SplineFontDB: 3.2
FontName: IndusFont
FullName: Indus Script Font
FamilyName: Untitled1
Weight: Book
Copyright: Copyright (c) 2023, Unknown
Version: 001.000
ItalicAngle: 0
UnderlinePosition: -100
UnderlineWidth: 50
Ascent: 800
Descent: 200
InvalidEm: 0
sfntRevision: 0x00010000
LayerCount: 2
Layer: 0 1 "Back" 1
Layer: 1 1 "Fore" 0
XUID: [1021 820 -1070415879 15335276]
StyleMap: 0x0000
FSType: 0
OS2Version: 4
OS2_WeightWidthSlopeOnly: 0
OS2_UseTypoMetrics: 1
CreationTime: 1683943658
ModificationTime: 1727227303
PfmFamily: 17
TTFWeight: 400
TTFWidth: 5
LineGap: 90
VLineGap: 0
Panose: 2 0 5 3 0 0 0 0 0 0
OS2TypoAscent: 800
OS2TypoAOffset: 0
OS2TypoDescent: -200
OS2TypoDOffset: 0
OS2TypoLinegap: 90
OS2WinAscent: 817
OS2WinAOffset: 0
OS2WinDescent: 228
OS2WinDOffset: 0
HheadAscent: 817
HheadAOffset: 0
HheadDescent: -228
HheadDOffset: 0
OS2SubXSize: 650
OS2SubYSize: 700
OS2SubXOff: 0
OS2SubYOff: 140
OS2SupXSize: 650
OS2SupYSize: 700
OS2SupXOff: 0
OS2SupYOff: 480
OS2StrikeYSize: 49
OS2StrikeYPos: 258
OS2Vendor: 'PfEd'
OS2CodePages: 00000001.00000000
OS2UnicodeRanges: 00000000.10000000.00000000.00000000
DEI: 91125
TtTable: prep
PUSHW_1
 511
SCANCTRL
PUSHB_1
 1
SCANTYPE
SVTCA[y-axis]
MPPEM
PUSHB_1
 8
LT
IF
PUSHB_2
 1
 1
INSTCTRL
EIF
PUSHB_2
 70
 6
CALL
IF
POP
PUSHB_1
 16
EIF
MPPEM
PUSHB_1
 20
GT
IF
POP
PUSHB_1
 128
EIF
SCVTCI
PUSHB_1
 20
CALL
EndTTInstrs
TtTable: fpgm
PUSHB_1
 0
FDEF
PUSHB_1
 0
SZP0
MPPEM
PUSHB_1
 42
LT
IF
PUSHB_1
 74
SROUND
EIF
PUSHB_1
 0
SWAP
MIAP[rnd]
RTG
PUSHB_1
 6
CALL
IF
RTDG
EIF
MPPEM
PUSHB_1
 42
LT
IF
RDTG
EIF
DUP
MDRP[rp0,rnd,grey]
PUSHB_1
 1
SZP0
MDAP[no-rnd]
RTG
ENDF
PUSHB_1
 1
FDEF
DUP
MDRP[rp0,min,white]
PUSHB_1
 12
CALL
ENDF
PUSHB_1
 2
FDEF
MPPEM
GT
IF
RCVT
SWAP
EIF
POP
ENDF
PUSHB_1
 3
FDEF
ROUND[Black]
RTG
DUP
PUSHB_1
 64
LT
IF
POP
PUSHB_1
 64
EIF
ENDF
PUSHB_1
 4
FDEF
PUSHB_1
 6
CALL
IF
POP
SWAP
POP
ROFF
IF
MDRP[rp0,min,rnd,black]
ELSE
MDRP[min,rnd,black]
EIF
ELSE
MPPEM
GT
IF
IF
MIRP[rp0,min,rnd,black]
ELSE
MIRP[min,rnd,black]
EIF
ELSE
SWAP

StartChar: .notdef
Encoding: 256 -1 0
Width: 364
GlyphClass: 1
Flags: W
LayerCount: 2
Fore
SplineSet
33 0 m 1,0,-1
 33 666 l 1,1,-1
 298 666 l 1,2,-1
 298 0 l 1,3,-1
 33 0 l 1,0,-1
66 33 m 1,4,-1
 265 33 l 1,5,-1
 265 633 l 1,6,-1
 66 633 l 1,7,-1
 66 33 l 1,4,-1
EndSplineSet
Validated: 1
EndChar

StartChar: uniE000
Encoding: 259 57344 3
Width: 687
GlyphClass: 1
Flags: W
LayerCount: 2
Fore
SplineSet
613.5 42 m 132,-1,1
 618 42 618 42 618 39.25 c 132,-1,2
 618 36.5 618 36.5 592 17 c 5,3,4
 592 12 592 12 601.5 2.5 c 132,-1,5
 611 -7 611 -7 614.5 -7 c 132,-1,6
 618 -7 618 -7 618 -16 c 260,7,8
 618 -25 618 -25 614.5 -25 c 132,-1,9
 611 -25 611 -25 589.935643564 -6.78217821782 c 132,-1,10
 568.871287129 11.4356435644 568.871287129 11.4356435644 547.435643564 1.71782178218 c 132,-1,11
 526 -8 526 -8 543.5 -25.5 c 132,-1,12
 561 -43 561 -43 577.5 -47 c 132,-1,13
 594 -51 594 -51 594 -59 c 132,-1,14
 594 -67 594 -67 602 -76.5 c 132,-1,15
 610 -86 610 -86 614 -86 c 260,16,17
 618 -86 618 -86 618 -98.9285714286 c 132,-1,18
 618 -111.857142857 618 -111.857142857 593.218309859 -91.009054326 c 132,-1,19
 568.436619718 -70.1609657948 568.436619718 -70.1609657948 548.218309859 -76.5804828974 c 132,-1,20
 528 -83 528 -83 528.5 -88.5 c 132,-1,21
 529 -94 529 -94 551.040669856 -114.253588517 c 132,-1,22
 573.081339713 -134.507177033 573.081339713 -134.507177033 595.540669856 -126.753588517 c 132,-1,23
 618 -119 618 -119 618 -127.5 c 132,-1,24
 618 -136 618 -136 606.5 -136 c 132,-1,25
 595 -136 595 -136 594 -149 c 132,-1,26
 593 -162 593 -162 606 -167 c 132,-1,27
 619 -172 619 -172 618 -180.5 c 132,-1,28
 617 -189 617 -189 614 -189 c 132,-1,29
 611 -189 611 -189 610.5 -188.5 c 4,30,31
 570.629213483 -148.629213483 570.629213483 -148.629213483 545.966472893 -157.735456162 c 132,-1,32
 521.303732304 -166.841698842 521.303732304 -166.841698842 536.52941064 -183.420849421 c 132,-1,33
 551.755088977 -200 551.755088977 -200 538.377544489 -200 c 132,-1,34
 525 -200 525 -200 523 -197 c 4,35,36
 516.727272727 -165.636363636 516.727272727 -165.636363636 478.863636364 -180.318181818 c 132,-1,37
 441 -195 441 -195 441 -197.5 c 132,-1,38
 441 -200 441 -200 419.5 -200 c 132,-1,39
 398 -200 398 -200 398 -198.5 c 132,-1,40
 398 -197 398 -197 401 -194 c 132,-1,41
 404 -191 404 -191 388.779220779 -169.12012987 c 132,-1,42
 373.558441558 -147.24025974 373.558441558 -147.24025974 341.039316579 -152.17357497 c 132,-1,43
 308.520191599 -157.106890199 308.520191599 -157.106890199 326.7600958 -177.553445099 c 132,-1,44
 345 -198 345 -198 341 -199 c 132,-1,45
 337 -200 337 -200 328.2 -200 c 132,-1,46
 319.4 -200 319.4 -200 313.7 -189 c 132,-1,47
 308 -178 308 -178 279.5 -178 c 132,-1,48
 251 -178 251 -178 238.5 -189 c 132,-1,49
 226 -200 226 -200 200 -200.5 c 132,-1,50
 174 -201 174 -201 173.5 -197 c 132,-1,51
 173 -193 173 -193 159.170886076 -180.373417722 c 132,-1,52
 145.341772152 -167.746835443 145.341772152 -167.746835443 131.670886076 -173.373417722 c 132,-1,53
 118 -179 118 -179 114.363636364 -169 c 132,-1,54
 110.727272727 -159 110.727272727 -159 119.863636364 -159 c 132,-1,55
 129 -159 129 -159 129 -150 c 132,-1,56
 129 -141 129 -141 106.5 -123.5 c 132,-1,57
 84 -106 84 -106 71 -110.789473684 c 132,-1,58
 58 -115.578947368 58 -115.578947368 58 -103 c 260,59,60
 58 -95 58 -95 63.5 -95 c 132,-1,61
 69 -95 69 -95 70 -82 c 132,-1,62
 71 -69 71 -69 84 -76 c 260,63,64
 97 -83 97 -83 107.5 -74 c 132,-1,65
 118 -65 118 -65 142 -56 c 5,66,67
 164.291666667 -38.1666666667 164.291666667 -38.1666666667 115.695643088 -10.0335235789 c 132,-1,68
 67.0996195088 18.0996195088 67.0996195088 18.0996195088 77.0498097544 28.0498097544 c 132,-1,69
 87 38 87 38 106 20 c 132,-1,70
 125 2 125 2 131 -1.5 c 132,-1,71
 137 -5 137 -5 152 -20.5 c 132,-1,72
 167 -36 167 -36 174.5 -38.5 c 132,-1,73
 182 -41 182 -41 200 -33.5 c 132,-1,74
 218 -26 218 -26 218 -21 c 4,75,76
 215 -14 215 -14 177 21 c 260,77,78
 129.621794872 64.6378205128 129.621794872 64.6378205128 116.810897436 65.8189102564 c 132,-1,79
 104 67 104 67 100.5 70.5 c 132,-1,80
 97 74 97 74 100.015075377 81.2361809045 c 132,-1,81
 103.030150754 88.472361809 103.030150754 88.472361809 85.5150753769 104.236180905 c 132,-1,82
 68 120 68 120 72 128 c 132,-1,83
 76 136 76 136 99.6923076923 114 c 132,-1,84
 123.384615385 92 123.384615385 92 135 92 c 261,85,86
 135 92 135 92 159.5 95 c 4,87,88
 209.068006182 101.069551777 209.068006182 101.069551777 165 128 c 4,89,90
 155 135 155 135 131.5 158 c 132,-1,91
 108 181 108 181 93 188.5 c 132,-1,92
 78 196 78 196 78.5 211.5 c 132,-1,93
 79 227 79 227 101.5 229 c 132,-1,94
 124 231 124 231 131.5 233.5 c 132,-1,95
 139 236 139 236 147.2 236 c 132,-1,96
 155.4 236 155.4 236 126.844444444 261 c 132,-1,97
 98.2888888889 286 98.2888888889 286 61.7154793495 284.228413962 c 132,-1,98
 25.1420698102 282.456827924 25.1420698102 282.456827924 43.0710349051 289.728413962 c 132,-1,99
 61 297 61 297 68 298 c 132,-1,100
 75 299 75 299 73.5 309 c 132,-1,101
 72 319 72 319 65 319 c 132,-1,102
 58 319 58 319 58 335.2 c 132,-1,103
 58 351.4 58 351.4 80.0680933852 327.40802155 c 132,-1,104
 102.13618677 303.416043101 102.13618677 303.416043101 120.068093385 307.20802155 c 132,-1,105
 138 311 138 311 138 315 c 132,-1,106
 138 319 138 319 124 333 c 132,-1,107
 110 347 110 347 88.6666666667 357.666666667 c 132,-1,108
 67.3333333333 368.333333333 67.3333333333 368.333333333 77.1666666667 378.666666667 c 132,-1,109
 87 389 87 389 103.5 372.5 c 132,-1,110
 120 356 120 356 128 350.5 c 132,-1,111
 136 345 136 345 150.96812749 330.607569721 c 132,-1,112
 165.93625498 316.215139442 165.93625498 316.215139442 194.46812749 320.607569721 c 132,-1,113
 223 325 223 325 223 330 c 132,-1,114
 223 335 223 335 188.636363636 366.5 c 132,-1,115
 154.272727273 398 154.272727273 398 123.31796741 398.641247379 c 132,-1,116
 92.3632075472 399.282494759 92.3632075472 399.282494759 101.181603774 406.141247379 c 132,-1,117
 110 413 110 413 122.5 415.5 c 132,-1,118
 135 418 135 418 123 427.5 c 132,-1,119
 111 437 111 437 88.5 431.5 c 132,-1,120
 66 426 66 426 64 434 c 4,121,122
 63 439 63 439 77.5 443.5 c 132,-1,123
 92 448 92 448 92 451.5 c 132,-1,124
 92 455 92 455 76 471.5 c 132,-1,125
 60 488 60 488 63.6813186813 493.153846154 c 132,-1,126
 67.3626373626 498.307692308 67.3626373626 498.307692308 93.9808493227 474.271355166 c 132,-1,127
 120.599061283 450.235018024 120.599061283 450.235018024 139.799530641 456.117509012 c 132,-1,128
 159 462 159 462 139.5 485 c 132,-1,129
 120 508 120 508 108 514.5 c 132,-1,130
 96 521 96 521 81.5 536 c 132,-1,131
 67 551 67 551 69.5 556.5 c 132,-1,132
 72 562 72 562 111 568 c 132,-1,133
 150 574 150 574 150.5 577 c 132,-1,134
 151 580 151 580 147.5 582.5 c 132,-1,135
 144 585 144 585 122 605 c 132,-1,136
 100 625 100 625 92 625 c 132,-1,137
 84 625 84 625 79.8333333333 640.5 c 132,-1,138
 75.6666666667 656 75.6666666667 656 61 656 c 260,139,140
 58 656 58 656 58 677 c 6,141,-1
 58 698 l 5,142,-1
 65 698 l 6,143,144
 96 698 96 698 101.5 704 c 132,-1,145
 107 710 107 710 92.3257575758 725.803030303 c 132,-1,146
 77.6515151515 741.606060606 77.6515151515 741.606060606 80.3257575758 748.303030303 c 132,-1,147
 83 755 83 755 108.239130435 730.934782609 c 132,-1,148
 133.47826087 706.869565217 133.47826087 706.869565217 153.239130435 711.934782609 c 132,-1,149
 173 717 173 717 155.5 736.5 c 132,-1,150
 138 756 138 756 117.5 768.3 c 132,-1,151
 97 780.6 97 780.6 97 790.3 c 132,-1,152
 97 800 97 800 106 800 c 132,-1,153
 115 800 115 800 117 794 c 132,-1,154
 119 788 119 788 142.5 786 c 132,-1,155
 166 784 166 784 178.5 789.5 c 132,-1,156
 191 795 191 795 195.5 795 c 132,-1,157
 200 795 200 795 353 796.5 c 5,158,159
 353 792 353 792 327.5 792 c 4,160,161
 281 792 281 792 304.5 768.5 c 132,-1,162
 328 745 328 745 339.5 744 c 132,-1,163
 351 743 351 743 385.5 749 c 132,-1,164
 420 755 420 755 420.5 759.5 c 132,-1,165
 421 764 421 764 403 781 c 4,166,167
 386 798 386 798 388.5 799 c 132,-1,168
 391 800 391 800 401.5 800 c 132,-1,169
 412 800 412 800 412 798 c 260,170,171
 412 796 412 796 428.5 780.5 c 132,-1,172
 445 765 445 765 450.5 762 c 132,-1,173
 456 759 456 759 494 765.5 c 132,-1,174
 532 772 532 772 532.5 776 c 132,-1,175
 533 780 533 780 525 790 c 132,-1,176
 517 800 517 800 535 800 c 260,177,178
 546 800 546 800 546 786.75 c 132,-1,179
 546 773.5 546 773.5 599.24120603 782.100502513 c 132,-1,180
 652.48241206 790.701005025 652.48241206 790.701005025 622.74120603 777.350502513 c 132,-1,181
 593 764 593 764 593.5 757 c 4,182,183
 595 736 595 736 614 736 c 4,184,185
 618 736 618 736 618 718.5 c 132,-1,186
 618 701 618 701 607.5 712.5 c 132,-1,187
 597 724 597 724 596.25 724.75 c 6,188,189
 596.25 724.75 596.25 724.75 575 746 c 5,190,-1
 559 760 l 5,191,-1
 546 758 l 5,192,193
 448.375 758 448.375 758 480 735 c 4,194,195
 491 726 491 726 517 698 c 132,-1,196
 543 670 543 670 560.5 679.5 c 132,-1,197
 578 689 578 689 599 690 c 5,198,-1
 618 690 l 5,199,-1
 618 682 l 5,200,-1
 618 675 l 5,201,-1
 600 675 l 5,202,203
 561 672 561 672 563 664.5 c 4,204,205
 567.913165266 646.075630252 567.913165266 646.075630252 589.956582633 649.537815126 c 132,-1,206
 612 653 612 653 617.5 653 c 132,-1,207
 623 653 623 653 618.5 646 c 132,-1,208
 614 639 614 639 605 637.5 c 132,-1,209
 596 636 596 636 596 626.5 c 132,-1,210
 596 617 596 617 615 617 c 4,211,212
 618 617 618 617 618 596 c 6,213,-1
 618 575 l 5,214,215
 598 571 598 571 590 571 c 261,216,217
 590 571 590 571 560.68494898 566.633928571 c 132,-1,218
 531.369897959 562.267857143 531.369897959 562.267857143 545.68494898 552.133928571 c 132,-1,219
 560 542 560 542 584.5 548 c 132,-1,220
 609 554 609 554 613.5 554 c 132,-1,221
 618 554 618 554 618 547.5 c 132,-1,222
 618 541 618 541 597 536.5 c 132,-1,223
 576 532 576 532 575.5 529 c 132,-1,224
 575 526 575 526 580 522 c 4,225,226
 587 517 587 517 596.5 506.5 c 132,-1,227
 606 496 606 496 612 494.363636364 c 132,-1,228
 618 492.727272727 618 492.727272727 618 473 c 6,229,-1
 618 453 l 5,230,-1
 611 453 l 5,231,232
 611 453 611 453 569.5 449.5 c 132,-1,233
 528 446 528 446 524 439.5 c 132,-1,234
 520 433 520 433 544.732912723 409.41745531 c 132,-1,235
 569.465825447 385.83491062 569.465825447 385.83491062 593.732912723 390.976916097 c 132,-1,236
 618 396.118921574 618 396.118921574 618 388.434460787 c 132,-1,237
 618 380.75 618 380.75 600.324601367 377.593678815 c 132,-1,238
 582.649202733 374.437357631 582.649202733 374.437357631 597.324601367 361.718678815 c 132,-1,239
 612 349 612 349 615 349 c 132,-1,240
 618 349 618 349 618 337.5 c 132,-1,241
 618 326 618 326 614 326 c 260,242,243
 610 326 610 326 586.85483871 348.016129032 c 132,-1,244
 563.709677419 370.032258065 563.709677419 370.032258065 529.35483871 364.516129032 c 132,-1,245
 495 359 495 359 493 354 c 132,-1,246
 491 349 491 349 515.5 324.5 c 4,247,248
 555.466666667 284.533333333 555.466666667 284.533333333 586.733333333 298.587310883 c 132,-1,249
 618 312.641288433 618 312.641288433 618 298.820644217 c 132,-1,250
 618 285 618 285 604 285 c 132,-1,251
 590 285 590 285 568 275 c 5,252,253
 568 272 568 272 589 251.5 c 132,-1,254
 610 231 610 231 614 231 c 260,255,256
 618 231 618 231 618 221 c 132,-1,257
 618 211 618 211 614 211 c 4,258,259
 608 212 608 212 575.666666667 244.333333333 c 132,-1,260
 543.333333333 276.666666667 543.333333333 276.666666667 526.446666667 272.693333333 c 132,-1,261
 509.56 268.72 509.56 268.72 529.28 257.36 c 132,-1,262
 549 246 549 246 577.5 218 c 132,-1,263
 606 190 606 190 612 190 c 132,-1,264
 618 190 618 190 618 182.5 c 132,-1,265
 618 175 618 175 610.153846154 174.346153846 c 132,-1,266
 602.307692308 173.692307692 602.307692308 173.692307692 588.653846154 187.346153846 c 132,-1,267
 575 201 575 201 572.75 194.75 c 132,-1,268
 570.5 188.5 570.5 188.5 536 177 c 5,269,270
 493.802047782 171.245733788 493.802047782 171.245733788 556 131 c 4,271,272
 560 129 560 129 572 119 c 132,-1,273
 584 109 584 109 601 116.555555556 c 132,-1,274
 618 124.111111111 618 124.111111111 618 113.055555556 c 132,-1,275
 618 102 618 102 609.5 102 c 132,-1,276
 601 102 601 102 601 91 c 132,-1,277
 601 80 601 80 614 80 c 260,278,279
 618 80 618 80 618 71.5 c 132,-1,280
 618 63 618 63 615 63 c 4,281,282
 612 64 612 64 593.265625 75.921875 c 132,-1,283
 574.53125 87.84375 574.53125 87.84375 554.765625 80.921875 c 132,-1,284
 535 74 535 74 534 70.5 c 132,-1,285
 533 67 533 67 553.272727273 46.7272727273 c 132,-1,286
 573.545454545 26.4545454545 573.545454545 26.4545454545 591.272727273 34.2272727273 c 132,-1,0
 609 42 609 42 613.5 42 c 132,-1,1
198 721.5 m 132,-1,288
 206 719 206 719 255 727.5 c 132,-1,289
 304 736 304 736 305 739.5 c 132,-1,290
 306 743 306 743 284.319548872 766.015037594 c 132,-1,291
 262.639097744 789.030075188 262.639097744 789.030075188 247.319548872 783.515037594 c 132,-1,292
 232 778 232 778 223.5 778 c 132,-1,293
 215 778 215 778 184 774.5 c 132,-1,294
 153 771 153 771 152.5 767.5 c 132,-1,295
 152 764 152 764 171 744 c 132,-1,287
 190 724 190 724 198 721.5 c 132,-1,288
372.5 706.5 m 132,-1,297
 387 692 387 692 391.5 690 c 132,-1,298
 396 688 396 688 408 677.5 c 132,-1,299
 420 667 420 667 431 671.5 c 132,-1,300
 442 676 442 676 472 676 c 132,-1,301
 502 676 502 676 502 682.5 c 132,-1,302
 502 689 502 689 474.861957226 716.784186649 c 132,-1,303
 447.723914452 744.568373299 447.723914452 744.568373299 425.361957226 740.784186649 c 132,-1,304
 403 737 403 737 391.5 735 c 132,-1,305
 380 733 380 733 369 731.5 c 132,-1,306
 358 730 358 730 358 725.5 c 132,-1,296
 358 721 358 721 372.5 706.5 c 132,-1,297
379 680.5 m 132,-1,308
 376 683 376 683 370.5 687 c 132,-1,309
 365 691 365 691 346.130319149 708.72606383 c 132,-1,310
 327.260638298 726.45212766 327.260638298 726.45212766 311.630319149 723.22606383 c 132,-1,311
 296 720 296 720 260.5 714.5 c 132,-1,312
 225 709 225 709 223 705 c 132,-1,313
 221 701 221 701 247.666666667 674.333333333 c 132,-1,314
 274.333333333 647.666666667 274.333333333 647.666666667 290.166666667 655.333333333 c 132,-1,315
 306 663 306 663 330.5 663 c 132,-1,316
 355 663 355 663 361 665 c 132,-1,317
 367 667 367 667 373.5 669 c 132,-1,318
 380 671 380 671 382 672 c 132,-1,319
 384 673 384 673 383 675.5 c 132,-1,307
 382 678 382 678 379 680.5 c 132,-1,308
205 649 m 4,320,321
 249 649 249 649 222.5 675.5 c 132,-1,322
 196 702 196 702 173 702 c 132,-1,323
 150 702 150 702 150 692.5 c 132,-1,324
 150 683 150 683 172.5 666 c 132,-1,325
 195 649 195 649 205 649 c 4,320,321
156.5 658 m 4,326,327
 144.161596958 697.482889734 144.161596958 697.482889734 103.080798479 689.741444867 c 132,-1,328
 62 682 62 682 62 680.5 c 132,-1,329
 62 679 62 679 69.5 674 c 132,-1,330
 77 669 77 669 96.8214285714 645.214285714 c 132,-1,331
 116.642857143 621.428571429 116.642857143 621.428571429 137.821428571 635.714285714 c 132,-1,332
 159 650 159 650 156.5 658 c 4,326,327
473 661 m 4,333,334
 413.12 659.464615385 413.12 659.464615385 443.56 640.732307692 c 132,-1,335
 474 622 474 622 510.5 632.5 c 132,-1,336
 547 643 547 643 547 648.2 c 132,-1,337
 547 653.4 547 653.4 535 661.7 c 132,-1,338
 523 670 523 670 514.5 666 c 132,-1,339
 506 662 506 662 473 661 c 4,333,334
433.5 626.5 m 132,-1,341
 435 631 435 631 420 642 c 132,-1,342
 405 653 405 653 397 653 c 132,-1,343
 389 653 389 653 345 649.5 c 132,-1,344
 301 646 301 646 296.5 641 c 132,-1,345
 292 636 292 636 299.5 628 c 132,-1,346
 307 620 307 620 314.857142857 611.642857143 c 132,-1,347
 322.714285714 603.285714286 322.714285714 603.285714286 377.357142857 612.642857143 c 132,-1,340
 432 622 432 622 433.5 626.5 c 132,-1,341
262 594 m 5,348,349
 327.326829268 598.214634146 327.326829268 598.214634146 267.5 636 c 4,350,351
 258 642 258 642 237.5 638 c 132,-1,352
 217 634 217 634 215.5 629.5 c 132,-1,353
 214 625 214 625 230 608 c 6,354,-1
 246 592 l 5,355,-1
 262 594 l 5,348,349
207.5 612 m 132,-1,357
 191 628 191 628 179.65 632.729166667 c 132,-1,358
 168.3 637.458333333 168.3 637.458333333 151.15 630.229166667 c 132,-1,359
 134 623 134 623 133.5 621.5 c 132,-1,360
 133 620 133 620 147.54 595.766666667 c 132,-1,361
 162.08 571.533333333 162.08 571.533333333 193.04 577.266666667 c 132,-1,362
 224 583 224 583 224 589.5 c 132,-1,356
 224 596 224 596 207.5 612 c 132,-1,357
607 591 m 132,-1,364
 609 595 609 595 591.474452555 614.52919708 c 132,-1,365
 573.948905109 634.058394161 573.948905109 634.058394161 552.974452555 630.02919708 c 132,-1,366
 532 626 532 626 527.5 625 c 132,-1,367
 523 624 523 624 499.633333333 620.105555556 c 132,-1,368
 476.266666667 616.211111111 476.266666667 616.211111111 499.417943237 591.193336104 c 132,-1,369
 522.569219808 566.175561097 522.569219808 566.175561097 545.284609904 575.587780549 c 132,-1,370
 568 585 568 585 586.5 586 c 132,-1,363
 605 587 605 587 607 591 c 132,-1,364
403.5 604 m 132,-1,372
 355 597 355 597 351 593 c 132,-1,373
 347 589 347 589 359.558252427 571.611650485 c 132,-1,374
 372.116504854 554.223300971 372.116504854 554.223300971 380.558252427 556.111650485 c 132,-1,375
 389 558 389 558 409 559.5 c 132,-1,376
 429 561 429 561 435 563.5 c 132,-1,377
 441 566 441 566 451 566 c 4,378,379
 498.571428571 566 498.571428571 566 484 583 c 4,380,381
 466 604 466 604 459 607.5 c 132,-1,371
 452 611 452 611 403.5 604 c 132,-1,372
349 555.5 m 132,-1,383
 352 567 352 567 334.5 579 c 132,-1,384
 317 591 317 591 292 586 c 132,-1,385
 267 581 267 581 267 573 c 132,-1,386
 267 565 267 565 284 554.5 c 132,-1,387
 301 544 301 544 323.5 544 c 132,-1,382
 346 544 346 544 349 555.5 c 132,-1,383
245 573 m 132,-1,389
 237 577 237 577 217 573 c 132,-1,390
 197 569 197 569 197 564 c 132,-1,391
 197 559 197 559 215.081837381 540.131995776 c 132,-1,392
 233.163674762 521.263991552 233.163674762 521.263991552 270 539 c 4,393,394
 276.780821918 543.520547945 276.780821918 543.520547945 264.890410959 556.260273973 c 132,-1,388
 253 569 253 569 245 573 c 132,-1,389
99.5 547 m 132,-1,396
 98 543 98 543 115.5 525 c 132,-1,397
 133 507 133 507 154.5 515.5 c 132,-1,398
 176 524 176 524 190 524 c 132,-1,399
 204 524 204 524 204 527 c 132,-1,400
 204 530 204 530 185.74852071 547.662721893 c 132,-1,401
 167.49704142 565.325443787 167.49704142 565.325443787 134.24852071 558.162721893 c 132,-1,395
 101 551 101 551 99.5 547 c 132,-1,396
410 529 m 4,402,403
 418.888888889 514.777777778 418.888888889 514.777777778 472.944444444 525.588888889 c 132,-1,404
 527 536.4 527 536.4 527 543.7 c 132,-1,405
 527 551 527 551 509 555.5 c 132,-1,406
 491 560 491 560 483 555 c 132,-1,407
 475 550 475 550 455.5 549 c 132,-1,408
 436 548 436 548 431.5 546 c 132,-1,409
 427 544 427 544 415.5 542.5 c 132,-1,410
 404 541 404 541 410 529 c 4,402,403
330 508 m 4,411,412
 342.369216682 497.176935403 342.369216682 497.176935403 374.902903559 504.048966662 c 132,-1,413
 407.436590437 510.920997921 407.436590437 510.920997921 389.639782822 527.729094002 c 132,-1,414
 371.842975207 544.537190083 371.842975207 544.537190083 356.921487603 538.268595041 c 132,-1,415
 342 532 342 532 330 530 c 132,-1,416
 318 528 318 528 318 523.5 c 132,-1,417
 318 519 318 519 330 508 c 4,411,412
582.5 497.5 m 132,-1,419
 562 518 562 518 553.101449275 522.449275362 c 132,-1,420
 544.202898551 526.898550725 544.202898551 526.898550725 493.601449275 515.949275362 c 132,-1,421
 443 505 443 505 443 500 c 132,-1,422
 443 495 443 495 451.5 491 c 132,-1,423
 460 487 460 487 479.5 467.5 c 132,-1,424
 499 448 499 448 515.5 454.5 c 132,-1,425
 532 461 532 461 565 462.5 c 132,-1,426
 598 464 598 464 600.5 470.5 c 132,-1,418
 603 477 603 477 582.5 497.5 c 132,-1,419
315 493 m 5,427,428
 327.333333333 505.333333333 327.333333333 505.333333333 295.25 521.375 c 132,-1,429
 263.166666667 537.416666667 263.166666667 537.416666667 256.583333333 522.708333333 c 132,-1,430
 250 508 250 508 269.473684211 493.394736842 c 132,-1,431
 288.947368421 478.789473684 288.947368421 478.789473684 315 493 c 5,427,428
250.5 483 m 132,-1,433
 253 488 253 488 237.373626374 501.89010989 c 132,-1,434
 221.747252747 515.78021978 221.747252747 515.78021978 212.873626374 511.89010989 c 132,-1,435
 204 508 204 508 191.5 508 c 132,-1,436
 179 508 179 508 164.483870968 504.774193548 c 132,-1,437
 149.967741935 501.548387097 149.967741935 501.548387097 160.823800348 481.782873849 c 132,-1,438
 171.679858761 462.0173606 171.679858761 462.0173606 209.839929381 470.0086803 c 132,-1,432
 248 478 248 478 250.5 483 c 132,-1,433
463 456 m 4,439,440
 463 473.5 463 473.5 438.5 485.75 c 132,-1,441
 414 498 414 498 410 498 c 132,-1,442
 406 498 406 498 384 494 c 132,-1,443
 362 490 362 490 360 485 c 132,-1,444
 358 480 358 480 377.313953488 461.271317829 c 132,-1,445
 396.627906977 442.542635659 396.627906977 442.542635659 407.813953488 445.771317829 c 132,-1,446
 419 449 419 449 441 449 c 132,-1,447
 463 449 463 449 463 456 c 4,439,440
302 471 m 132,-1,449
 302 466 302 466 317.980686695 450.36695279 c 132,-1,450
 333.961373391 434.733905579 333.961373391 434.733905579 341.480686695 437.86695279 c 132,-1,451
 349 441 349 441 359 441 c 132,-1,452
 369 441 369 441 369 445.5 c 132,-1,453
 369 450 369 450 352.33820841 467.256855576 c 132,-1,454
 335.676416819 484.513711152 335.676416819 484.513711152 318.83820841 480.256855576 c 132,-1,448
 302 476 302 476 302 471 c 132,-1,449
302 439 m 4,455,456
 302 490.75 302 490.75 212 457 c 4,457,458
 196.386934673 452.195979899 196.386934673 452.195979899 213.693467337 438.59798995 c 132,-1,459
 231 425 231 425 265.5 427.5 c 132,-1,460
 300 430 300 430 302 439 c 4,455,456
160.5 417.5 m 132,-1,462
 163 418 163 418 182 420 c 132,-1,463
 201 422 201 422 201 425 c 4,464,465
 201 439.25 201 439.25 184 445.625 c 132,-1,466
 167 452 167 452 142 442 c 5,467,468
 135.372093023 433.162790698 135.372093023 433.162790698 146.686046512 425.081395349 c 132,-1,461
 158 417 158 417 160.5 417.5 c 132,-1,462
540 387 m 260,469,470
 540 400.666666667 540 400.666666667 510.5 419.833333333 c 132,-1,471
 481 439 481 439 473.5 435.5 c 132,-1,472
 466 432 466 432 442 432 c 132,-1,473
 418 432 418 432 418 427.5 c 132,-1,474
 418 423 418 423 443 398 c 4,475,476
 471.921052632 369.078947368 471.921052632 369.078947368 505.960526316 374.236443381 c 132,-1,477
 540 379.393939394 540 379.393939394 540 387 c 260,469,470
359.25 425.25 m 132,-1,479
 352 418 352 418 384.692307692 385.307692308 c 132,-1,480
 417.384615385 352.615384615 417.384615385 352.615384615 432.192307692 359.307692308 c 132,-1,481
 447 366 447 366 430 391.5 c 132,-1,482
 413 417 413 417 389.75 424.75 c 132,-1,478
 366.5 432.5 366.5 432.5 359.25 425.25 c 132,-1,479
365.5 387 m 132,-1,484
 339 414 339 414 328.454545455 419.272727273 c 132,-1,485
 317.909090909 424.545454545 317.909090909 424.545454545 295.454545455 418.272727273 c 132,-1,486
 273 412 273 412 263 412 c 132,-1,487
 253 412 253 412 253 409 c 4,488,489
 254 405 254 405 280.5 378.5 c 132,-1,490
 307 352 307 352 318 348 c 132,-1,491
 329 344 329 344 360 349.5 c 132,-1,492
 391 355 391 355 391.5 357.5 c 132,-1,483
 392 360 392 360 365.5 387 c 132,-1,484
275.5 334 m 132,-1,494
 296 337 296 337 296 341.5 c 132,-1,495
 296 346 296 346 289 349.5 c 132,-1,496
 282 353 282 353 250.651479989 386.160591996 c 132,-1,497
 219.302959978 419.321183991 219.302959978 419.321183991 190.846372462 407.67268877 c 132,-1,498
 162.389784946 396.024193548 162.389784946 396.024193548 208.694892473 363.512096774 c 132,-1,493
 255 331 255 331 275.5 334 c 132,-1,494
517 289 m 132,-1,500
 523 290 523 290 523 293.5 c 132,-1,501
 523 297 523 297 494.192307692 325.807692308 c 132,-1,502
 465.384615385 354.615384615 465.384615385 354.615384615 451.192307692 350.807692308 c 132,-1,503
 437 347 437 347 449 332.5 c 132,-1,504
 461 318 461 318 470.5 313 c 132,-1,505
 480 308 480 308 487 301.5 c 132,-1,506
 494 295 494 295 502.5 291.5 c 132,-1,499
 511 288 511 288 517 289 c 132,-1,500
406 274 m 260,507,508
 411 275 411 275 417.5 275 c 4,509,510
 461 275 461 275 471.5 285.5 c 132,-1,511
 482 296 482 296 463 305 c 132,-1,512
 444 314 444 314 421.292682927 335.896341463 c 132,-1,513
 398.585365854 357.792682927 398.585365854 357.792682927 370.792682927 343.896341463 c 132,-1,514
 343 330 343 330 343 326.5 c 4,515,516
 343 308.857142857 343 308.857142857 360 301.428571429 c 132,-1,517
 377 294 377 294 389 283.5 c 132,-1,518
 401 273 401 273 406 274 c 260,507,508
337 305 m 260,519,520
 316.517241379 328.896551724 316.517241379 328.896551724 293.25862069 323.948275862 c 132,-1,521
 270 319 270 319 270.5 314.5 c 132,-1,522
 271 310 271 310 300.505415162 281.835740072 c 132,-1,523
 330.010830325 253.671480144 330.010830325 253.671480144 356.770121045 265.041622425 c 132,-1,524
 383.529411765 276.411764706 383.529411765 276.411764706 363.264705882 287.205882353 c 132,-1,525
 343 298 343 298 337 305 c 260,519,520
274.5 287 m 132,-1,527
 252 308 252 308 246 311.5 c 132,-1,528
 240 315 240 315 215 310.5 c 132,-1,529
 190 306 190 306 189.5 301.5 c 132,-1,530
 189 297 189 297 216.350917431 270.864678899 c 132,-1,531
 243.701834862 244.729357798 243.701834862 244.729357798 259.350917431 250.364678899 c 132,-1,532
 275 256 275 256 284 256 c 132,-1,533
 293 256 293 256 296 257.5 c 132,-1,534
 299 259 299 259 298 262.5 c 132,-1,526
 297 266 297 266 274.5 287 c 132,-1,527
171 292 m 4,535,536
 154 302 154 302 132.151958081 294.895587424 c 132,-1,537
 110.303916161 287.791174848 110.303916161 287.791174848 142.599326502 263.037692687 c 132,-1,538
 174.894736842 238.284210526 174.894736842 238.284210526 212.166666667 243.875 c 4,539,540
 231.333333333 246.75 231.333333333 246.75 171 292 c 4,535,536
509 257 m 132,-1,542
 506 259 506 259 494.5 267 c 132,-1,543
 483 275 483 275 466 268.5 c 132,-1,544
 449 262 449 262 426.794979079 259.70292887 c 132,-1,545
 404.589958159 257.405857741 404.589958159 257.405857741 421.294979079 248.70292887 c 132,-1,546
 438 240 438 240 467.714285714 210.285714286 c 132,-1,547
 497.428571429 180.571428571 497.428571429 180.571428571 517.714285714 188.785714286 c 132,-1,548
 538 197 538 197 550 200 c 132,-1,549
 562 203 562 203 549.423076923 219.769230769 c 132,-1,550
 536.846153846 236.538461538 536.846153846 236.538461538 527.423076923 243.269230769 c 132,-1,551
 518 250 518 250 515 252.5 c 132,-1,541
 512 255 512 255 509 257 c 132,-1,542
358 250 m 4,552,553
 343 243 343 243 384.03286385 203.201877934 c 132,-1,554
 425.0657277 163.403755869 425.0657277 163.403755869 436.03286385 168.201877934 c 132,-1,555
 447 173 447 173 460.5 173 c 132,-1,556
 474 173 474 173 438.608510638 222.265957447 c 132,-1,557
 403.217021277 271.531914894 403.217021277 271.531914894 358 250 c 4,552,553
392 158 m 4,558,559
 403 162 403 162 400.5 167 c 132,-1,560
 398 172 398 172 363.5 204.5 c 132,-1,561
 329 237 329 237 324 238.5 c 132,-1,562
 319 240 319 240 292 239 c 4,563,564
 233.263157895 235.210526316 233.263157895 235.210526316 312 186 c 4,565,566
 322 179 322 179 337 164 c 260,567,568
 352 149 352 149 357.5 148.5 c 132,-1,569
 363 148 363 148 392 158 c 4,558,559
286 186.5 m 132,-1,571
 276 193 276 193 254.158458244 214.199143469 c 132,-1,572
 232.316916488 235.398286938 232.316916488 235.398286938 223.658458244 230.199143469 c 132,-1,573
 215 225 215 225 205.5 225 c 132,-1,574
 196 225 196 225 196 222 c 4,575,576
 197 216 197 216 237.5 178 c 132,-1,577
 278 140 278 140 287 135 c 132,-1,578
 296 130 296 130 310 135 c 132,-1,579
 324 140 324 140 329 141 c 132,-1,580
 334 142 334 142 315 161 c 132,-1,570
 296 180 296 180 286 186.5 c 132,-1,571
186.082289803 205.161001789 m 132,-1,582
 163.164579606 227.322003578 163.164579606 227.322003578 144.582289803 219.661001789 c 132,-1,583
 126 212 126 212 117.5 212 c 132,-1,584
 109 212 109 212 110 203.5 c 132,-1,585
 111 195 111 195 123 188.5 c 132,-1,586
 135 182 135 182 160 157.5 c 132,-1,587
 185 133 185 133 188.5 131.5 c 132,-1,588
 192 130 192 130 203.253218884 120.52360515 c 132,-1,589
 214.506437768 111.0472103 214.506437768 111.0472103 227.253218884 115.02360515 c 132,-1,590
 240 119 240 119 245 119 c 4,591,592
 279 119 279 119 244 151 c 132,-1,581
 209 183 209 183 186.082289803 205.161001789 c 132,-1,582
533 130 m 4,593,594
 524 135 524 135 507.25 151.75 c 4,595,596
 489.714285714 169.285714286 489.714285714 169.285714286 474.357142857 163.142857143 c 132,-1,597
 459 157 459 157 449.54494382 154.478651685 c 132,-1,598
 440.08988764 151.957303371 440.08988764 151.957303371 476.165979297 118.633910555 c 132,-1,599
 512.242070954 85.3105177385 512.242070954 85.3105177385 527 89 c 4,600,601
 579 102 579 102 533 130 c 4,593,594
462 113 m 4,602,603
 430 142 430 142 425 144.5 c 132,-1,604
 420 147 420 147 399 141 c 132,-1,605
 378 135 378 135 378 132 c 260,606,607
 378 129 378 129 412.913830558 94.7096307024 c 132,-1,608
 447.827661115 60.4192614048 447.827661115 60.4192614048 469.913830558 66.7096307024 c 132,-1,609
 492 73 492 73 492 78.5 c 132,-1,610
 492 84 492 84 462 113 c 4,602,603
377.5 104.5 m 132,-1,612
 351 132 351 132 343 128 c 132,-1,613
 335 124 335 124 323 121.5 c 132,-1,614
 311 119 311 119 311 114 c 132,-1,615
 311 109 311 109 349.795638956 72.9103384787 c 132,-1,616
 388.591277912 36.8206769573 388.591277912 36.8206769573 416.402021935 47.3358703936 c 132,-1,617
 444.212765957 57.8510638298 444.212765957 57.8510638298 424.106382979 67.4255319149 c 132,-1,611
 404 77 404 77 377.5 104.5 c 132,-1,612
367 31 m 4,618,619
 365 38 365 38 323.541666667 76.9921875 c 132,-1,620
 282.083333333 115.984375 282.083333333 115.984375 270.541666667 109.4921875 c 132,-1,621
 259 103 259 103 247 101.5 c 132,-1,622
 235 100 235 100 235 88 c 132,-1,623
 235 76 235 76 243.5 76 c 132,-1,624
 252 76 252 76 284.852601156 43.7557803468 c 132,-1,625
 317.705202312 11.5115606936 317.705202312 11.5115606936 341.852601156 19.2557803468 c 132,-1,626
 366 27 366 27 367 31 c 4,618,619
152 71.5 m 132,-1,628
 152 66 152 66 159 59.5 c 132,-1,629
 166 53 166 53 204.76584507 15.7218309859 c 132,-1,630
 243.531690141 -21.5563380282 243.531690141 -21.5563380282 257.76584507 -14.7781690141 c 132,-1,631
 272 -8 272 -8 277.5 -5.5 c 132,-1,632
 283 -3 283 -3 295.580882353 1.86029411765 c 132,-1,633
 308.161764706 6.72058823529 308.161764706 6.72058823529 291.080882353 17.8602941176 c 132,-1,634
 274 29 274 29 241.533333333 61.4666666667 c 132,-1,635
 209.066666667 93.9333333333 209.066666667 93.9333333333 191.533333333 87.4666666667 c 132,-1,636
 174 81 174 81 163 79 c 260,637,627
 152 77 152 77 152 71.5 c 132,-1,628
533 10 m 132,-1,639
 552 15 552 15 552.5 21 c 132,-1,640
 553 27 553 27 533.869747899 46.7899159664 c 132,-1,641
 514.739495798 66.5798319328 514.739495798 66.5798319328 494.869747899 59.2899159664 c 132,-1,642
 475 52 475 52 471.342592593 45.4166666667 c 132,-1,643
 467.685185185 38.8333333333 467.685185185 38.8333333333 484.342592593 28.4166666667 c 132,-1,644
 501 18 501 18 507.5 11.5 c 132,-1,638
 514 5 514 5 533 10 c 132,-1,639
457 31 m 260,645,646
 443.5 44.5 443.5 44.5 439.25 40.25 c 132,-1,647
 435 36 435 36 424 33 c 260,648,649
 399.426900585 26.298245614 399.426900585 26.298245614 425.931455079 1.69829146821 c 132,-1,650
 452.436009574 -22.9016626776 452.436009574 -22.9016626776 479.625435784 -12.395289937 c 132,-1,651
 506.814861994 -1.88891719647 506.814861994 -1.88891719647 484.407430997 12.0555414018 c 132,-1,652
 462 26 462 26 457 31 c 260,645,646
414 -6.5 m 132,-1,654
 397 11 397 11 390 14.5 c 132,-1,655
 383 18 383 18 363 10.5 c 132,-1,656
 343 3 343 3 343 -4 c 132,-1,657
 343 -11 343 -11 364.5 -28.5 c 132,-1,658
 386 -46 386 -46 394 -46 c 260,659,660
 402 -46 402 -46 416.5 -38.5 c 132,-1,661
 431 -31 431 -31 431 -27.5 c 132,-1,653
 431 -24 431 -24 414 -6.5 c 132,-1,654
331 -21 m 260,662,663
 316.869565217 -6.86956521739 316.869565217 -6.86956521739 300.934782609 -14.4347826087 c 132,-1,664
 285 -22 285 -22 274.5 -24.5 c 132,-1,665
 264 -27 264 -27 264 -32 c 132,-1,666
 264 -37 264 -37 287.003831418 -59.398467433 c 132,-1,667
 310.007662835 -81.7969348659 310.007662835 -81.7969348659 337.503831418 -70.898467433 c 132,-1,668
 365 -60 365 -60 366.5 -54 c 132,-1,669
 368 -48 368 -48 353 -38 c 132,-1,670
 338 -28 338 -28 331 -21 c 260,662,663
480 -25.5 m 132,-1,672
 471 -39 471 -39 489.968085106 -58.7659574468 c 132,-1,673
 508.936170213 -78.5319148936 508.936170213 -78.5319148936 524.468085106 -70.7659574468 c 132,-1,674
 540 -63 540 -63 547.5 -63 c 132,-1,675
 555 -63 555 -63 550.5 -52.5 c 132,-1,676
 546 -42 546 -42 538.5 -38.5 c 132,-1,677
 531 -35 531 -35 521.5 -27 c 132,-1,678
 512 -19 512 -19 510 -19 c 132,-1,679
 508 -19 508 -19 498.5 -15.5 c 132,-1,671
 489 -12 489 -12 480 -25.5 c 132,-1,672
286 -81.5 m 132,-1,681
 284 -75 284 -75 262.844702467 -55.1669085631 c 132,-1,682
 241.689404935 -35.3338171263 241.689404935 -35.3338171263 220.344702467 -45.1669085631 c 132,-1,683
 199 -55 199 -55 200.5 -59 c 132,-1,684
 202 -63 202 -63 226.323529412 -90.0261437908 c 132,-1,685
 250.647058824 -117.052287582 250.647058824 -117.052287582 269.323529412 -102.526143791 c 132,-1,680
 288 -88 288 -88 286 -81.5 c 132,-1,681
484 -84 m 4,686,687
 496.142857143 -74.2857142857 496.142857143 -74.2857142857 471.071428571 -56.6428571429 c 132,-1,688
 446 -39 446 -39 422.689655172 -46.1724137931 c 132,-1,689
 399.379310345 -53.3448275862 399.379310345 -53.3448275862 417 -76 c 4,690,691
 446 -107 446 -107 484 -84 c 4,686,687
221 -114.5 m 132,-1,693
 222 -110 222 -110 199.8 -87.8 c 132,-1,694
 177.6 -65.6 177.6 -65.6 169.8 -67.3 c 4,695,696
 98.9293756397 -82.7461617195 98.9293756397 -82.7461617195 111.5 -102.5 c 4,697,698
 135.406779661 -140.06779661 135.406779661 -140.06779661 149.453389831 -142.408898305 c 132,-1,699
 163.5 -144.75 163.5 -144.75 191.75 -131.875 c 132,-1,692
 220 -119 220 -119 221 -114.5 c 132,-1,693
330 -92.5 m 132,-1,701
 329 -97 329 -97 345.727272727 -112.979020979 c 132,-1,702
 362.454545455 -128.958041958 362.454545455 -128.958041958 392.727272727 -118.479020979 c 132,-1,703
 423 -108 423 -108 422.5 -103 c 132,-1,704
 422 -98 422 -98 411.5 -91 c 132,-1,705
 401 -84 401 -84 393.348882035 -74.5647648419 c 132,-1,706
 385.697764071 -65.1295296839 385.697764071 -65.1295296839 358.348882035 -76.5647648419 c 132,-1,700
 331 -88 331 -88 330 -92.5 c 132,-1,701
483.623595506 -99.7921348315 m 132,-1,708
 450 -111 450 -111 478 -132 c 132,-1,709
 506 -153 506 -153 521 -151.5 c 4,710,711
 559.112840467 -147.688715953 559.112840467 -147.688715953 538.180015739 -118.136492808 c 132,-1,707
 517.247191011 -88.5842696629 517.247191011 -88.5842696629 483.623595506 -99.7921348315 c 132,-1,708
340 -132 m 132,-1,713
 340 -126 340 -126 322.9375 -111.78125 c 132,-1,714
 305.875 -97.5625 305.875 -97.5625 287.9375 -106.28125 c 4,715,716
 260.504130174 -119.615588295 260.504130174 -119.615588295 278.257149441 -136.139432696 c 132,-1,717
 296.010168708 -152.663277097 296.010168708 -152.663277097 318.005084354 -145.331638549 c 132,-1,712
 340 -138 340 -138 340 -132 c 132,-1,713
428 -182 m 132,-1,719
 438 -183 438 -183 468.348837209 -171.686046512 c 132,-1,720
 498.697674419 -160.372093023 498.697674419 -160.372093023 483.348837209 -152.186046512 c 132,-1,721
 468 -144 468 -144 455 -132.5 c 132,-1,722
 442 -121 442 -121 436 -121 c 132,-1,723
 430 -121 430 -121 407.5 -128 c 132,-1,724
 385 -135 385 -135 382.5 -140 c 132,-1,725
 380 -145 380 -145 399 -163 c 132,-1,718
 418 -181 418 -181 428 -182 c 132,-1,719
271 -161 m 132,-1,727
 274 -157 274 -157 260.453757225 -142.049132948 c 132,-1,728
 246.907514451 -127.098265896 246.907514451 -127.098265896 238.453757225 -129.049132948 c 132,-1,729
 230 -131 230 -131 201 -143.5 c 132,-1,730
 172 -156 172 -156 169.5 -160.5 c 132,-1,731
 167 -165 167 -165 179.857142857 -177.857142857 c 132,-1,732
 192.714285714 -190.714285714 192.714285714 -190.714285714 213.357142857 -182.857142857 c 132,-1,733
 234 -175 234 -175 251 -170 c 132,-1,726
 268 -165 268 -165 271 -161 c 132,-1,727
EndSplineSet
Validated: 3105
EndChar

StartChar: uniE001
Encoding: 260 57345 4
Width: 170
GlyphClass: 1
Flags: W
LayerCount: 2
Fore
SplineSet
72 791 m 0,0,1
 81 795 81 795 92 792 c 128,-1,2
 103 789 103 789 105 781 c 0,3,4
 107 777 107 777 108 673.5 c 128,-1,5
 109 570 109 570 108 556 c 0,6,7
 108 551 108 551 103.5 549 c 128,-1,8
 99 547 99 547 84 547 c 0,9,10
 82 547 82 547 77 547 c 0,11,12
 64 547 64 547 62.5 557.5 c 128,-1,13
 61 568 61 568 61 633 c 0,14,15
 62 654 62 654 62 667 c 0,16,17
 63 760 63 760 64 774 c 128,-1,18
 65 788 65 788 72 791 c 0,0,1
EndSplineSet
Validated: 33
EndChar

StartChar: uniE002
Encoding: 261 57346 5
Width: 334
GlyphClass: 1
Flags: W
LayerCount: 2
Fore
SplineSet
73 783 m 2,0,1
 80 785 80 785 95 784 c 0,2,3
 97 784 97 784 102 784 c 0,4,5
 114 784 114 784 116 774.5 c 128,-1,6
 118 765 118 765 118 706 c 0,7,8
 118 687 118 687 118 676 c 0,9,10
 118 580 118 580 119 536 c 0,11,12
 121 493 121 493 117.5 486.5 c 128,-1,13
 114 480 114 480 91 480 c 0,14,15
 70 480 70 480 65.5 485 c 128,-1,16
 61 490 61 490 63 509 c 0,17,18
 64 525 64 525 64 649 c 0,19,20
 64 661 64 661 65 682 c 0,21,22
 65 756 65 756 66 768.5 c 128,-1,23
 67 781 67 781 72 783 c 0,24,25
 73 783 73 783 73 783 c 2,0,1
221 783 m 0,26,27
 230 786 230 786 247 784 c 128,-1,28
 264 782 264 782 266 778 c 0,29,30
 268 776 268 776 268 647 c 0,31,32
 268 520 268 520 269 508 c 0,33,34
 271 489 271 489 266 484.5 c 128,-1,35
 261 480 261 480 240 480 c 0,36,37
 221 480 221 480 216.5 483 c 128,-1,38
 212 486 212 486 212 500 c 0,39,40
 212 503 212 503 212 521.5 c 128,-1,41
 212 540 212 540 212.5 577 c 128,-1,42
 213 614 213 614 214 643 c 0,43,44
 214 748 214 748 215 764.5 c 128,-1,45
 216 781 216 781 221 783 c 0,26,27
EndSplineSet
Validated: 33
EndChar

StartChar: uniE003
Encoding: 262 57347 6
Width: 740
GlyphClass: 1
Flags: W
LayerCount: 2
Fore
SplineSet
78 573 m 0,0,1
 90 576 90 576 109.5 574 c 128,-1,2
 129 572 129 572 131 568 c 256,3,4
 133 564 133 564 133 308.5 c 128,-1,5
 133 53 133 53 131 49 c 0,6,7
 128 43 128 43 103 42 c 128,-1,8
 78 41 78 41 72 47 c 0,9,10
 69 50 69 50 68 307.5 c 128,-1,11
 67 565 67 565 70 569 c 0,12,13
 72 571 72 571 78 573 c 0,0,1
327 573 m 2,14,15
 339 576 339 576 358.5 574 c 128,-1,16
 378 572 378 572 381 568 c 0,17,18
 385 562 385 562 383 305.5 c 128,-1,19
 381 49 381 49 378 46 c 0,20,21
 373 42 373 42 349.5 42 c 128,-1,22
 326 42 326 42 321 47 c 0,23,24
 319 50 319 50 318.5 82.5 c 128,-1,25
 318 115 318 115 318 308 c 0,26,27
 318 310 318 310 318 313 c 0,28,29
 317 506 317 506 318 538.5 c 128,-1,30
 319 571 319 571 325 572 c 0,31,32
 327 573 327 573 327 573 c 2,14,15
616 574 m 0,33,34
 622 576 622 576 642.5 574.5 c 128,-1,35
 663 573 663 573 665 570 c 0,36,37
 669 567 669 567 670 312.5 c 128,-1,38
 671 58 671 58 668 50 c 0,39,40
 666 44 666 44 643 42 c 128,-1,41
 620 40 620 40 611 45 c 0,42,43
 605 48 605 48 604.5 65.5 c 128,-1,44
 604 83 604 83 605 179 c 0,45,46
 607 299 607 299 605 430 c 0,47,48
 605 431 605 431 605 434 c 0,49,50
 603 535 603 535 604.5 552.5 c 128,-1,51
 606 570 606 570 614 573 c 0,52,53
 616 573 616 573 616 574 c 0,33,34
EndSplineSet
Validated: 33
EndChar

StartChar: uniE004
Encoding: 263 57348 7
Width: 916
GlyphClass: 1
Flags: W
LayerCount: 2
Fore
SplineSet
76 550 m 0,0,1
 81 553 81 553 104 553 c 0,2,3
 106 553 106 553 109 553 c 0,4,5
 134 553 134 553 138 546 c 128,-1,6
 142 539 142 539 141 498 c 0,7,8
 141 493 141 493 141 490 c 0,9,10
 139 439 139 439 139 240 c 0,11,12
 139 215 139 215 139 173 c 0,13,14
 140 63 140 63 137 45.5 c 128,-1,15
 134 28 134 28 117 29 c 0,16,17
 111 30 111 30 107 30 c 0,18,19
 104 30 104 30 98 30 c 0,20,21
 74 29 74 29 70 36.5 c 128,-1,22
 66 44 66 44 67 88 c 0,23,24
 68 98 68 98 68 104 c 0,25,26
 69 165 69 165 69 286.5 c 128,-1,27
 69 408 69 408 68 473 c 0,28,29
 67 528 67 528 68 537.5 c 128,-1,30
 69 547 69 547 76 550 c 0,0,1
303 551 m 256,31,32
 308 552 308 552 329 552 c 128,-1,33
 350 552 350 552 357 551 c 2,34,35
 357 551 357 551 359 550 c 0,36,37
 365 549 365 549 366 535.5 c 128,-1,38
 367 522 367 522 366 444 c 0,39,40
 365 425 365 425 365 414 c 0,41,42
 364 285 364 285 365 164 c 0,43,44
 366 114 366 114 366.5 90 c 128,-1,45
 367 66 367 66 366.5 52.5 c 128,-1,46
 366 39 366 39 365 36.5 c 128,-1,47
 364 34 364 34 361 32 c 0,48,49
 355 29 355 29 329.5 29.5 c 128,-1,50
 304 30 304 30 299 33 c 0,51,52
 296 36 296 36 294.5 289 c 128,-1,53
 293 542 293 542 296 547 c 0,54,55
 298 550 298 550 303 551 c 256,31,32
536 549 m 0,56,57
 546 555 546 555 572 553 c 128,-1,58
 598 551 598 551 601 545 c 0,59,60
 603 543 603 543 602 391 c 2,61,-1
 602 140 l 2,62,63
 602 128 602 128 602 109 c 0,64,65
 603 49 603 49 600 39 c 128,-1,66
 597 29 597 29 576 29 c 0,67,68
 569 30 569 30 565 30 c 0,69,70
 563 30 563 30 558 30 c 0,71,72
 535 29 535 29 531 35.5 c 128,-1,73
 527 42 527 42 529 81 c 0,74,75
 529 88 529 88 529 92 c 0,76,77
 530 140 530 140 530 286.5 c 128,-1,78
 530 433 530 433 529 485 c 0,79,80
 528 530 528 530 528.5 538.5 c 128,-1,81
 529 547 529 547 536 549 c 0,56,57
780 550 m 256,82,83
 786 553 786 553 809 553 c 128,-1,84
 832 553 832 553 838 550 c 2,85,86
 838 550 838 550 839 550 c 0,87,88
 845 548 845 548 846 531 c 128,-1,89
 847 514 847 514 845 417 c 0,90,91
 845 415 845 415 845 414 c 0,92,93
 844 273 844 273 846 163 c 0,94,95
 846 148 846 148 846 124 c 0,96,97
 847 52 847 52 844 40.5 c 128,-1,98
 841 29 841 29 821 29 c 0,99,100
 814 30 814 30 809 30 c 0,101,102
 807 30 807 30 801 30 c 0,103,104
 779 29 779 29 775.5 36.5 c 128,-1,105
 772 44 772 44 773 89 c 0,106,107
 773 98 773 98 773 103 c 0,108,109
 774 161 774 161 774 287 c 128,-1,110
 774 413 774 413 773 475 c 0,111,112
 772 527 772 527 773 537 c 128,-1,113
 774 547 774 547 780 550 c 256,82,83
EndSplineSet
Validated: 33
EndChar

StartChar: uniE005
Encoding: 264 57349 8
Width: 1011
GlyphClass: 1
Flags: W
LayerCount: 2
Fore
SplineSet
74 576 m 0,0,1
 80 578 80 578 99.5 578 c 128,-1,2
 119 578 119 578 124 576 c 0,3,4
 130 573 130 573 131 564 c 128,-1,5
 132 555 132 555 131 512 c 0,6,7
 130 459 130 459 130 347.5 c 128,-1,8
 130 236 130 236 131 184 c 0,9,10
 131 180 131 180 131 173 c 0,11,12
 132 133 132 133 128.5 126.5 c 128,-1,13
 125 120 125 120 104 120 c 0,14,15
 100 120 100 120 98.5 120 c 128,-1,16
 97 120 97 120 93 120 c 0,17,18
 73 120 73 120 69.5 127 c 128,-1,19
 66 134 66 134 67 179 c 0,20,21
 68 188 68 188 68 193 c 0,22,23
 69 246 69 246 69 350 c 128,-1,24
 69 454 69 454 68 514 c 0,25,26
 67 557 67 557 68 565 c 128,-1,27
 69 573 69 573 74 576 c 0,0,1
254 576 m 0,28,29
 277 587 277 587 295 577.5 c 128,-1,30
 313 568 313 568 312 545 c 256,31,32
 311 522 311 522 311 349 c 128,-1,33
 311 176 311 176 312 154 c 0,34,35
 313 129 313 129 308.5 124.5 c 128,-1,36
 304 120 304 120 281 120 c 0,37,38
 279 120 279 120 276 120 c 0,39,40
 254 120 254 120 250.5 126 c 128,-1,41
 247 132 247 132 248 170 c 0,42,43
 248 175 248 175 248 178 c 0,44,45
 249 222 249 222 249 347.5 c 128,-1,46
 249 473 249 473 248 518 c 0,47,48
 247 558 247 558 248 565.5 c 128,-1,49
 249 573 249 573 254 576 c 0,28,29
456 576 m 0,50,51
 462 578 462 578 483 578 c 128,-1,52
 504 578 504 578 508.5 575 c 128,-1,53
 513 572 513 572 513.5 565 c 128,-1,54
 514 558 514 558 514 515 c 0,55,56
 513 466 513 466 513 345 c 128,-1,57
 513 224 513 224 514 179 c 0,58,59
 514 177 514 177 514 172 c 0,60,61
 515 132 515 132 511 125.5 c 128,-1,62
 507 119 507 119 483 120 c 0,63,64
 480 120 480 120 478 120 c 0,65,66
 475 120 475 120 469 119 c 0,67,68
 457 118 457 118 454 127 c 0,69,70
 450 142 450 142 450 274 c 0,71,72
 451 320 451 320 451 348 c 2,73,-1
 451 572 l 2,74,75
 451 573 451 573 456 576 c 0,50,51
666 576 m 0,76,77
 671 578 671 578 692 578 c 128,-1,78
 713 578 713 578 718 576 c 0,79,80
 723 573 723 573 724 564 c 128,-1,81
 725 555 725 555 724 503 c 0,82,83
 721 342 721 342 724 191 c 0,84,85
 725 143 725 143 724 133.5 c 128,-1,86
 723 124 723 124 717 122 c 0,87,88
 710 119 710 119 688.5 120 c 128,-1,89
 667 121 667 121 664 124 c 0,90,91
 662 126 662 126 660.5 330 c 128,-1,92
 659 534 659 534 661 572 c 0,93,94
 661 573 661 573 666 576 c 0,76,77
885 576 m 2,95,96
 890 578 890 578 913 577 c 128,-1,97
 936 576 936 576 939 574 c 0,98,99
 941 571 941 571 942 349.5 c 128,-1,100
 943 128 943 128 940 125 c 0,101,102
 936 120 936 120 911 119.5 c 128,-1,103
 886 119 886 119 882 124 c 0,104,105
 879 126 879 126 879 154 c 128,-1,106
 879 182 879 182 879 349 c 0,107,108
 879 370 879 370 878 407 c 0,109,110
 878 532 878 532 879 553 c 128,-1,111
 880 574 880 574 884 576 c 0,112,113
 885 576 885 576 885 576 c 2,95,96
EndSplineSet
Validated: 33
EndChar

StartChar: uniE006
Encoding: 265 57350 9
Width: 1044
GlyphClass: 1
Flags: W
LayerCount: 2
Fore
SplineSet
74 520 m 0,0,1
 80 522 80 522 102 521 c 0,2,3
 127 521 127 521 129.5 517 c 128,-1,4
 132 513 132 513 132 476 c 0,5,6
 131 456 131 456 131 368 c 256,7,8
 131 280 131 280 132 258 c 0,9,10
 132 221 132 221 129.5 217 c 128,-1,11
 127 213 127 213 99 213 c 0,12,13
 72 213 72 213 68 216 c 128,-1,14
 64 219 64 219 65 238 c 0,15,16
 67 265 67 265 67 339.5 c 128,-1,17
 67 414 67 414 66 455 c 0,18,19
 65 503 65 503 66 510.5 c 128,-1,20
 67 518 67 518 74 520 c 0,0,1
224 520 m 2,21,22
 235 523 235 523 257.5 521.5 c 128,-1,23
 280 520 280 520 281 516 c 0,24,25
 283 510 283 510 282.5 364 c 128,-1,26
 282 218 282 218 280 216 c 0,27,28
 278 213 278 213 250 213 c 256,29,30
 222 213 222 213 218.5 217 c 128,-1,31
 215 221 215 221 216 252 c 0,32,33
 219 349 219 349 217 441 c 0,34,35
 217 447 217 447 216 457 c 0,36,37
 216 503 216 503 216.5 511 c 128,-1,38
 217 519 217 519 223 520 c 2,39,-1
 224 520 l 2,21,22
398 520 m 0,40,41
 411 526 411 526 434.5 521.5 c 128,-1,42
 458 517 458 517 459 509 c 0,43,44
 459 508 459 508 459 501.5 c 128,-1,45
 459 495 459 495 459 484 c 128,-1,46
 459 473 459 473 458.5 459.5 c 128,-1,47
 458 446 458 446 458 429 c 128,-1,48
 458 412 458 412 458 395 c 0,49,50
 457 288 457 288 458 257 c 0,51,52
 459 221 459 221 456 217 c 128,-1,53
 453 213 453 213 425 213 c 0,54,55
 422 213 422 213 416 213 c 0,56,57
 397 212 397 212 393.5 218 c 128,-1,58
 390 224 390 224 392 258 c 0,59,60
 392 266 392 266 392 271 c 0,61,62
 393 318 393 318 392 409 c 0,63,64
 392 428 392 428 391.5 453.5 c 128,-1,65
 391 479 391 479 391 492 c 128,-1,66
 391 505 391 505 391 507 c 0,67,68
 391 517 391 517 398 520 c 0,40,41
573 519 m 0,69,70
 581 523 581 523 607 521.5 c 128,-1,71
 633 520 633 520 633 516 c 0,72,73
 634 496 634 496 634 429.5 c 128,-1,74
 634 363 634 363 633.5 290 c 128,-1,75
 633 217 633 217 632 216 c 0,76,77
 628 212 628 212 600.5 212 c 128,-1,78
 573 212 573 212 569 216 c 0,79,80
 568 217 568 217 567.5 358.5 c 128,-1,81
 567 500 567 500 568 516 c 0,82,83
 568 517 568 517 573 519 c 0,69,70
749 520 m 0,84,85
 769 529 769 529 790 521.5 c 128,-1,86
 811 514 811 514 810 497 c 0,87,88
 809 473 809 473 808.5 394.5 c 128,-1,89
 808 316 808 316 809 276 c 0,90,91
 809 270 809 270 809 259 c 0,92,93
 810 224 810 224 807 218 c 128,-1,94
 804 212 804 212 784 213 c 0,95,96
 779 213 779 213 776 213 c 256,97,98
 773 213 773 213 767 213 c 0,99,100
 747 212 747 212 744 217.5 c 128,-1,101
 741 223 741 223 743 256 c 0,102,103
 743 264 743 264 743 269 c 0,104,105
 744 314 744 314 743 408 c 0,106,107
 743 430 743 430 742.5 455 c 128,-1,108
 742 480 742 480 742 493.5 c 128,-1,109
 742 507 742 507 742 508 c 0,110,111
 742 517 742 517 749 520 c 0,84,85
915 519 m 0,112,113
 923 523 923 523 949 521.5 c 128,-1,114
 975 520 975 520 975 516 c 0,115,116
 977 482 977 482 976 350 c 128,-1,117
 975 218 975 218 972 215 c 256,118,119
 969 212 969 212 943 212 c 128,-1,120
 917 212 917 212 912 215 c 0,121,122
 910 217 910 217 909 355 c 128,-1,123
 908 493 908 493 910 516 c 0,124,125
 910 517 910 517 915 519 c 0,112,113
EndSplineSet
Validated: 33
EndChar

StartChar: uniE007
Encoding: 266 57351 10
Width: 1075
GlyphClass: 1
Flags: W
LayerCount: 2
Fore
SplineSet
370 659 m 0,0,1
 372 661 372 661 386.5 661 c 128,-1,2
 401 661 401 661 404 659 c 0,3,4
 405 658 405 658 406 509.5 c 128,-1,5
 407 361 407 361 405 356 c 0,6,7
 404 352 404 352 386 352 c 128,-1,8
 368 352 368 352 368 356 c 0,9,10
 367 369 367 369 368 513.5 c 128,-1,11
 369 658 369 658 370 659 c 0,0,1
538 660 m 0,12,13
 558 661 558 661 560 658 c 0,14,15
 562 656 562 656 562 505.5 c 128,-1,16
 562 355 562 355 560 353 c 0,17,18
 557 351 557 351 542 351.5 c 128,-1,19
 527 352 527 352 526 354 c 0,20,21
 524 356 524 356 524 506 c 128,-1,22
 524 656 524 656 526 658 c 0,23,24
 527 659 527 659 538 660 c 0,12,13
831 659 m 0,25,26
 833 661 833 661 847.5 661 c 128,-1,27
 862 661 862 661 864 659 c 0,28,29
 866 658 866 658 866.5 509 c 128,-1,30
 867 360 867 360 865.5 356.5 c 128,-1,31
 864 353 864 353 846.5 353 c 128,-1,32
 829 353 829 353 829 356 c 0,33,34
 827 371 827 371 828 514.5 c 128,-1,35
 829 658 829 658 831 659 c 0,25,26
70 659 m 0,36,37
 72 660 72 660 84.5 660 c 128,-1,38
 97 660 97 660 100 659 c 256,39,40
 103 658 103 658 103.5 651 c 128,-1,41
 104 644 104 644 103 611 c 0,42,43
 101 503 101 503 103 398 c 0,44,45
 104 360 104 360 102.5 356 c 128,-1,46
 101 352 101 352 85 352 c 256,47,48
 69 352 69 352 67 355.5 c 128,-1,49
 65 359 65 359 65 391 c 0,50,51
 66 424 66 424 66 505 c 128,-1,52
 66 586 66 586 65 619 c 0,53,54
 65 647 65 647 65.5 652.5 c 128,-1,55
 66 658 66 658 70 659 c 0,36,37
223 659 m 0,56,57
 226 660 226 660 240 660 c 128,-1,58
 254 660 254 660 255 658 c 0,59,60
 258 656 258 656 258 505.5 c 128,-1,61
 258 355 258 355 255 353 c 0,62,63
 253 351 253 351 238 351.5 c 128,-1,64
 223 352 223 352 221 354 c 0,65,66
 220 355 220 355 219.5 505 c 128,-1,67
 219 655 219 655 220 657 c 256,68,69
 221 659 221 659 223 659 c 0,56,57
680 658 m 0,70,71
 683 660 683 660 697.5 660 c 128,-1,72
 712 660 712 660 714 658 c 256,73,74
 716 656 716 656 716 505.5 c 128,-1,75
 716 355 716 355 714 353 c 0,76,77
 711 351 711 351 696 351.5 c 128,-1,78
 681 352 681 352 680 354 c 0,79,80
 678 356 678 356 678 506 c 128,-1,81
 678 656 678 656 680 658 c 0,70,71
976 659 m 0,82,83
 990 662 990 662 999 658 c 128,-1,84
 1008 654 1008 654 1008 645 c 0,85,86
 1008 643 1008 643 1007.5 630 c 128,-1,87
 1007 617 1007 617 1007 590 c 128,-1,88
 1007 563 1007 563 1007 543 c 0,89,90
 1006 443 1006 443 1007 404 c 0,91,92
 1007 399 1007 399 1007 391 c 0,93,94
 1008 361 1008 361 1006 356 c 128,-1,95
 1004 351 1004 351 993 352 c 0,96,97
 990 352 990 352 988.5 352 c 128,-1,98
 987 352 987 352 983 352 c 0,99,100
 972 351 972 351 970.5 356.5 c 128,-1,101
 969 362 969 362 969 392 c 0,102,103
 970 401 970 401 970 406 c 0,104,105
 971 446 971 446 970 545 c 0,106,107
 970 564 970 564 969.5 590 c 128,-1,108
 969 616 969 616 969 629 c 128,-1,109
 969 642 969 642 969 644 c 0,110,111
 969 657 969 657 976 659 c 0,82,83
EndSplineSet
Validated: 33
EndChar

StartChar: uniE00C
Encoding: 267 57356 11
Width: 219
GlyphClass: 1
Flags: W
LayerCount: 2
Fore
SplineSet
88 743 m 0,0,1
 103 748 103 748 118 744 c 0,2,3
 134 740 134 740 141 740 c 0,4,5
 150 740 150 740 148 593 c 2,6,-1
 145 445 l 1,7,-1
 108 442 l 1,8,-1
 70 439 l 1,9,-1
 70 589 l 2,10,11
 70 689 70 689 73 714.5 c 128,-1,12
 76 740 76 740 88 743 c 0,0,1
70 1 m 1,13,-1
 70 151 l 1,14,-1
 108 148 l 1,15,-1
 145 145 l 1,16,-1
 148 -2 l 1,17,-1
 151 -150 l 1,18,-1
 110 -150 l 1,19,-1
 70 -150 l 1,20,-1
 70 1 l 1,13,-1
EndSplineSet
Validated: 33
EndChar

StartChar: uniE00D
Encoding: 268 57357 12
Width: 412
GlyphClass: 1
Flags: W
LayerCount: 2
Fore
SplineSet
66 758 m 0,0,1
 71 771 71 771 98 768 c 2,2,-1
 126 765 l 1,3,-1
 129 557 l 1,4,-1
 131 349 l 1,5,-1
 99 352 l 1,6,-1
 66 355 l 1,7,-1
 63 550 l 2,8,9
 62 745 62 745 66 758 c 0,0,1
281 565 m 2,10,-1
 281 770 l 1,11,-1
 310 770 l 1,12,-1
 339 770 l 1,13,-1
 346 669 l 2,14,15
 353 580 353 580 346.5 468 c 128,-1,16
 340 356 340 356 328 348 c 0,17,18
 319 341 319 341 299 351 c 0,19,20
 287 358 287 358 284 392 c 128,-1,21
 281 426 281 426 281 565 c 2,10,-1
176 248 m 0,22,23
 181 261 181 261 208 258 c 2,24,-1
 236 255 l 1,25,-1
 236 40 l 1,26,-1
 236 -175 l 1,27,-1
 206 -175 l 1,28,-1
 176 -175 l 1,29,-1
 173 30 l 2,30,31
 172 237 172 237 176 248 c 0,22,23
EndSplineSet
Validated: 33
EndChar

StartChar: uniE00E
Encoding: 269 57358 13
Width: 468
GlyphClass: 1
Flags: W
LayerCount: 2
Fore
SplineSet
82 763 m 0,0,1
 91 773 91 773 117.5 769.5 c 128,-1,2
 144 766 144 766 149 754 c 0,3,4
 155 736 155 736 155 544 c 0,5,6
 155 399 155 399 152 373 c 128,-1,7
 149 347 149 347 133 341 c 0,8,9
 109 333 109 333 93 338 c 0,10,11
 80 341 80 341 77.5 373 c 128,-1,12
 75 405 75 405 75 549 c 0,13,14
 75 758 75 758 82 763 c 0,0,1
311 739 m 0,15,16
 315 759 315 759 322 764.5 c 128,-1,17
 329 770 329 770 350 770 c 128,-1,18
 371 770 371 770 377.5 764.5 c 128,-1,19
 384 759 384 759 389 739 c 0,20,21
 395 709 395 709 395 540.5 c 128,-1,22
 395 372 395 372 389 356 c 0,23,24
 382 340 382 340 350 340 c 0,25,26
 329 340 329 340 322 345.5 c 128,-1,27
 315 351 315 351 311 371 c 0,28,29
 305 405 305 405 305 555 c 128,-1,30
 305 705 305 705 311 739 c 0,15,16
328 253 m 0,31,32
 353 264 353 264 379 254 c 0,33,34
 389 250 389 250 392 214.5 c 128,-1,35
 395 179 395 179 395 50 c 0,36,37
 395 -146 395 -146 389 -164 c 0,38,39
 383 -180 383 -180 355 -180 c 128,-1,40
 327 -180 327 -180 321 -164 c 0,41,42
 315 -146 315 -146 315 50 c 0,43,44
 315 163 315 163 317.5 207 c 128,-1,45
 320 251 320 251 328 253 c 0,31,32
71 213 m 0,46,47
 75 239 75 239 81 244.5 c 128,-1,48
 87 250 87 250 110 250 c 2,49,-1
 143 250 l 1,50,-1
 150 137 l 2,51,52
 156 32 156 32 149 -75 c 2,53,-1
 140 -175 l 1,54,-1
 110 -175 l 2,55,56
 88 -175 88 -175 83 -167 c 128,-1,57
 78 -159 78 -159 74 -115 c 0,58,59
 67 -56 67 -56 66 61.5 c 128,-1,60
 65 179 65 179 71 213 c 0,46,47
EndSplineSet
Validated: 33
EndChar

StartChar: uniE00F
Encoding: 270 57359 14
Width: 744
GlyphClass: 1
Flags: W
LayerCount: 2
Fore
SplineSet
75 748 m 0,0,1
 81 771 81 771 103 768 c 0,2,3
 119 766 119 766 123 751.5 c 128,-1,4
 127 737 127 737 130 669 c 0,5,6
 136 573 136 573 130 469 c 0,7,8
 126 379 126 379 119 370 c 0,9,10
 115 365 115 365 100 365 c 2,11,-1
 75 365 l 1,12,-1
 72 545 l 2,13,14
 71 727 71 727 75 748 c 0,0,1
365 760 m 0,15,16
 373 772 373 772 393 768 c 0,17,18
 410 766 410 766 412.5 740 c 128,-1,19
 415 714 415 714 415 565 c 0,20,21
 415 426 415 426 412.5 395 c 128,-1,22
 410 364 410 364 397 362 c 0,23,24
 379 358 379 358 363 372 c 0,25,26
 353 380 353 380 351.5 414 c 128,-1,27
 350 448 350 448 353 567 c 0,28,29
 359 747 359 747 365 760 c 0,15,16
625 760 m 0,30,31
 633 772 633 772 653 768 c 0,32,33
 667 766 667 766 670 753 c 0,34,35
 676 734 676 734 678 568 c 0,36,37
 680 422 680 422 677.5 395.5 c 128,-1,38
 675 369 675 369 659 365 c 0,39,40
 639 358 639 358 628 368 c 0,41,42
 620 376 620 376 618.5 561.5 c 128,-1,43
 617 747 617 747 625 760 c 0,30,31
74 227 m 0,44,45
 80 240 80 240 103 240 c 0,46,47
 121 240 121 240 125 225.5 c 128,-1,48
 129 211 129 211 133 135 c 0,49,50
 141 30 141 30 133 -76 c 2,51,-1
 127 -181 l 1,52,-1
 101 -178 l 1,53,-1
 75 -175 l 1,54,-1
 72 20 l 2,55,56
 71 214 71 214 74 227 c 0,44,45
365 228 m 0,57,58
 370 240 370 240 382.5 240.5 c 128,-1,59
 395 241 395 241 406.5 230.5 c 128,-1,60
 418 220 418 220 421 205 c 0,61,62
 427 176 427 176 427 69.5 c 128,-1,63
 427 -37 427 -37 421 -105 c 0,64,65
 417 -155 417 -155 412.5 -165 c 128,-1,66
 408 -175 408 -175 390 -175 c 2,67,-1
 365 -175 l 1,68,-1
 362 20 l 2,69,70
 361 215 361 215 365 228 c 0,57,58
EndSplineSet
Validated: 33
EndChar

StartChar: uniE010
Encoding: 271 57360 15
Width: 608
GlyphClass: 1
Flags: W
LayerCount: 2
Fore
SplineSet
71 753 m 0,0,1
 76 775 76 775 94.5 779.5 c 128,-1,2
 113 784 113 784 121 764 c 0,3,4
 127 746 127 746 127 570 c 0,5,6
 127 399 127 399 112 379 c 0,7,8
 105 369 105 369 89 379 c 0,9,10
 79 385 79 385 70.5 552.5 c 128,-1,11
 62 720 62 720 71 753 c 0,0,1
284 773 m 0,12,13
 289 780 289 780 308 780 c 0,14,15
 319 780 319 780 323 763 c 128,-1,16
 327 746 327 746 332 685 c 0,17,18
 339 584 339 584 334.5 486 c 128,-1,19
 330 388 330 388 318 380 c 0,20,21
 294 366 294 366 287 383 c 0,22,23
 277 407 277 407 277 574 c 0,24,25
 277 768 277 768 284 773 c 0,12,13
485 618 m 0,26,27
 486 678 486 678 487 706.5 c 128,-1,28
 488 735 488 735 490.5 754 c 128,-1,29
 493 773 493 773 496.5 776.5 c 128,-1,30
 500 780 500 780 507 780 c 256,31,32
 514 780 514 780 521 775.5 c 128,-1,33
 528 771 528 771 531 764 c 0,34,35
 538 745 538 745 536.5 580.5 c 128,-1,36
 535 416 535 416 527 395 c 0,37,38
 522 384 522 384 515.5 377.5 c 128,-1,39
 509 371 509 371 504 373 c 0,40,41
 490 377 490 377 486 429 c 128,-1,42
 482 481 482 481 485 618 c 0,26,27
83 212 m 0,43,44
 89 222 89 222 102 219.5 c 128,-1,45
 115 217 115 217 121 204 c 0,46,47
 127 186 127 186 127 10 c 0,48,49
 127 -99 127 -99 124 -135.5 c 128,-1,50
 121 -172 121 -172 112 -180 c 128,-1,51
 103 -188 103 -188 96.5 -187.5 c 128,-1,52
 90 -187 90 -187 81 -179 c 0,53,54
 69 -170 69 -170 67.5 -137 c 128,-1,55
 66 -104 66 -104 71 19 c 0,56,57
 78 204 78 204 83 212 c 0,43,44
281 207 m 0,58,59
 286 220 286 220 306 220 c 0,60,61
 318 220 318 220 322.5 205 c 128,-1,62
 327 190 327 190 332 135 c 0,63,64
 339 50 339 50 332 -70 c 0,65,66
 326 -156 326 -156 322 -173 c 128,-1,67
 318 -190 318 -190 303 -188 c 128,-1,68
 288 -186 288 -186 284.5 -159.5 c 128,-1,69
 281 -133 281 -133 279 5 c 0,70,71
 277 194 277 194 281 207 c 0,58,59
488 202 m 256,72,73
 497 218 497 218 511 219 c 128,-1,74
 525 220 525 220 531 204 c 0,75,76
 537 186 537 186 537 5 c 0,77,78
 537 -114 537 -114 534 -147 c 128,-1,79
 531 -180 531 -180 521 -184 c 0,80,81
 504 -190 504 -190 498 -185 c 0,82,83
 489 -180 489 -180 484 3 c 128,-1,84
 479 186 479 186 488 202 c 256,72,73
EndSplineSet
Validated: 33
EndChar

StartChar: uniE011
Encoding: 272 57361 16
Width: 770
GlyphClass: 1
Flags: W
LayerCount: 2
Fore
SplineSet
71 673 m 0,0,1
 76 743 76 743 80 756.5 c 128,-1,2
 84 770 84 770 99 768 c 0,3,4
 112 766 112 766 116 753 c 0,5,6
 121 733 121 733 124 559 c 0,7,8
 125 418 125 418 123 384 c 128,-1,9
 121 350 121 350 110 346 c 0,10,11
 92 339 92 339 84 348 c 0,12,13
 74 358 74 358 69 475 c 128,-1,14
 64 592 64 592 71 673 c 0,0,1
250 757 m 0,15,16
 255 770 255 770 269 770 c 0,17,18
 282 770 282 770 288.5 763 c 128,-1,19
 295 756 295 756 299.5 732.5 c 128,-1,20
 304 709 304 709 304 664 c 128,-1,21
 304 619 304 619 304 544 c 2,22,-1
 301 345 l 1,23,-1
 276 345 l 1,24,-1
 251 345 l 1,25,-1
 248 545 l 2,26,27
 246 744 246 744 250 757 c 0,15,16
450 757 m 0,28,29
 455 770 455 770 474 770 c 0,30,31
 492 770 492 770 499 723.5 c 128,-1,32
 506 677 506 677 506 546 c 0,33,34
 506 479 506 479 504.5 440.5 c 128,-1,35
 503 402 503 402 499 378.5 c 128,-1,36
 495 355 495 355 489 347.5 c 128,-1,37
 483 340 483 340 472 342 c 0,38,39
 457 344 457 344 453.5 372 c 128,-1,40
 450 400 450 400 448 545 c 0,41,42
 446 744 446 744 450 757 c 0,28,29
650 757 m 0,43,44
 655 770 655 770 674 770 c 256,45,46
 693 770 693 770 699.5 727 c 128,-1,47
 706 684 706 684 706 549 c 0,48,49
 706 477 706 477 704.5 439 c 128,-1,50
 703 401 703 401 699 377 c 128,-1,51
 695 353 695 353 689 346.5 c 128,-1,52
 683 340 683 340 672 342 c 0,53,54
 657 344 657 344 653.5 372 c 128,-1,55
 650 400 650 400 648 545 c 0,56,57
 646 744 646 744 650 757 c 0,43,44
80 256 m 0,58,59
 90 282 90 282 114 258 c 0,60,61
 126 246 126 246 126 44 c 0,62,63
 126 -90 126 -90 123 -125 c 128,-1,64
 120 -160 120 -160 109 -164 c 1,65,66
 96 -164 96 -164 88.5 -165 c 128,-1,67
 81 -166 81 -166 77 -138.5 c 128,-1,68
 73 -111 73 -111 72.5 -72 c 128,-1,69
 72 -33 72 -33 73 47 c 0,70,71
 74 242 74 242 80 256 c 0,58,59
267 257 m 0,72,73
 278 269 278 269 292 263 c 0,74,75
 300 260 300 260 303 217 c 128,-1,76
 306 174 306 174 306 49 c 0,77,78
 306 -88 306 -88 303 -125.5 c 128,-1,79
 300 -163 300 -163 290 -167 c 0,80,81
 273 -173 273 -173 265 -159 c 0,82,83
 255 -143 255 -143 256 52 c 128,-1,84
 257 247 257 247 267 257 c 0,72,73
449 253 m 0,85,86
 452 261 452 261 459 265.5 c 128,-1,87
 466 270 466 270 473 268 c 0,88,89
 479 267 479 267 482 261.5 c 128,-1,90
 485 256 485 256 487.5 231.5 c 128,-1,91
 490 207 490 207 491 171 c 128,-1,92
 492 135 492 135 494 59 c 0,93,94
 495 -73 495 -73 492.5 -112.5 c 128,-1,95
 490 -152 490 -152 481 -160 c 0,96,97
 458 -179 458 -179 450 -154 c 0,98,99
 441 -123 441 -123 441 43 c 0,100,101
 442 238 442 238 449 253 c 0,85,86
EndSplineSet
Validated: 33
EndChar

StartChar: uniE012
Encoding: 273 57362 17
Width: 779
GlyphClass: 1
Flags: W
LayerCount: 2
Fore
SplineSet
83 713 m 0,0,1
 102 721 102 721 107 704 c 0,2,3
 115 680 115 680 115 529 c 0,4,5
 115 392 115 392 112 368 c 128,-1,6
 109 344 109 344 93 342 c 2,7,-1
 70 339 l 1,8,-1
 70 523 l 2,9,10
 70 709 70 709 83 713 c 0,0,1
257 714 m 0,11,12
 263 720 263 720 280 718 c 0,13,14
 290 716 290 716 292.5 682.5 c 128,-1,15
 295 649 295 649 295 530 c 0,16,17
 295 392 295 392 292 368 c 128,-1,18
 289 344 289 344 273 342 c 2,19,-1
 250 339 l 1,20,-1
 250 523 l 2,21,22
 250 707 250 707 257 714 c 0,11,12
462 712 m 0,23,24
 477 721 477 721 484 719 c 128,-1,25
 491 717 491 717 500 701 c 0,26,27
 508 684 508 684 509.5 578.5 c 128,-1,28
 511 473 511 473 504 401 c 0,29,30
 500 359 500 359 495 349.5 c 128,-1,31
 490 340 490 340 476 342 c 0,32,33
 461 344 461 344 457.5 369.5 c 128,-1,34
 454 395 454 395 452 524 c 0,35,36
 449 702 449 702 462 712 c 0,23,24
662 708 m 0,37,38
 673 719 673 719 681 719 c 128,-1,39
 689 719 689 719 699 706 c 0,40,41
 711 693 711 693 708 519 c 0,42,43
 706 393 706 393 702.5 368.5 c 128,-1,44
 699 344 699 344 684 342 c 0,45,46
 673 340 673 340 666.5 346.5 c 128,-1,47
 660 353 660 353 656 377 c 128,-1,48
 652 401 652 401 651 439 c 128,-1,49
 650 477 650 477 650 549 c 0,50,51
 650 696 650 696 662 708 c 0,37,38
75 218 m 0,52,53
 81 232 81 232 97 228 c 0,54,55
 109 226 109 226 112 195.5 c 128,-1,56
 115 165 115 165 115 40 c 0,57,58
 115 -93 115 -93 112 -119 c 128,-1,59
 109 -145 109 -145 95 -145 c 128,-1,60
 81 -145 81 -145 77.5 -120 c 128,-1,61
 74 -95 74 -95 72 30 c 0,62,63
 70 205 70 205 75 218 c 0,52,53
255 218 m 0,64,65
 261 232 261 232 277 228 c 0,66,67
 289 226 289 226 292 195.5 c 128,-1,68
 295 165 295 165 295 40 c 0,69,70
 295 -93 295 -93 292 -119 c 128,-1,71
 289 -145 289 -145 275 -145 c 128,-1,72
 261 -145 261 -145 257.5 -120 c 128,-1,73
 254 -95 254 -95 252 30 c 0,74,75
 250 205 250 205 255 218 c 0,64,65
457 224 m 0,76,77
 463 230 463 230 480 228 c 0,78,79
 489 226 489 226 493 207 c 128,-1,80
 497 188 497 188 501 135 c 0,81,82
 518 -101 518 -101 496 -138 c 0,83,84
 485 -154 485 -154 465 -146 c 0,85,86
 455 -143 455 -143 452.5 -109.5 c 128,-1,87
 450 -76 450 -76 450 38 c 0,88,89
 450 217 450 217 457 224 c 0,76,77
656 169 m 0,90,91
 660 211 660 211 665 220.5 c 128,-1,92
 670 230 670 230 684 228 c 0,93,94
 699 226 699 226 702.5 202.5 c 128,-1,95
 706 179 706 179 708 60 c 0,96,97
 710 -107 710 -107 705 -128 c 0,98,99
 702 -141 702 -141 693.5 -146.5 c 128,-1,100
 685 -152 685 -152 676 -148 c 128,-1,101
 667 -144 667 -144 660 -131 c 0,102,103
 652 -114 652 -114 650.5 -8.5 c 128,-1,104
 649 97 649 97 656 169 c 0,90,91
EndSplineSet
Validated: 33
EndChar

StartChar: uniE013
Encoding: 274 57363 18
Width: 1018
GlyphClass: 1
Flags: W
LayerCount: 2
Fore
SplineSet
72 551 m 2,0,-1
 72 750 l 1,1,-1
 111 750 l 2,2,3
 135 750 135 750 143.5 746 c 128,-1,4
 152 742 152 742 156 728 c 0,5,6
 162 706 162 706 162 558.5 c 128,-1,7
 162 411 162 411 156 382 c 0,8,9
 147 333 147 333 92 347 c 0,10,11
 78 351 78 351 75 380 c 128,-1,12
 72 409 72 409 72 551 c 2,0,-1
252 551 m 2,13,-1
 252 750 l 1,14,-1
 292 750 l 1,15,-1
 332 750 l 1,16,-1
 332 551 l 2,17,18
 332 409 332 409 329 380 c 128,-1,19
 326 351 326 351 312 347 c 0,20,21
 292 342 292 342 272 347 c 0,22,23
 258 351 258 351 255 380 c 128,-1,24
 252 409 252 409 252 551 c 2,13,-1
457 704 m 0,25,26
 462 737 462 737 468 743.5 c 128,-1,27
 474 750 474 750 497 750 c 0,28,29
 529 750 529 750 535.5 723 c 128,-1,30
 542 696 542 696 542 559 c 0,31,32
 542 432 542 432 536.5 391.5 c 128,-1,33
 531 351 531 351 512 345 c 0,34,35
 480 335 480 335 471.5 359.5 c 128,-1,36
 463 384 463 384 458 504 c 0,37,38
 451 652 451 652 457 704 c 0,25,26
660 644 m 2,39,-1
 663 750 l 1,40,-1
 701 750 l 1,41,-1
 739 750 l 1,42,-1
 745 650 l 2,43,44
 750 550 750 550 745 450 c 2,45,-1
 739 350 l 1,46,-1
 701 350 l 1,47,-1
 663 350 l 1,48,-1
 660 444 l 2,49,50
 656 539 656 539 660 644 c 2,39,-1
868 713 m 0,51,52
 873 739 873 739 879 744.5 c 128,-1,53
 885 750 885 750 913 750 c 2,54,-1
 952 750 l 1,55,-1
 952 561 l 2,56,57
 952 374 952 374 946 356 c 0,58,59
 940 340 940 340 907 340 c 0,60,61
 884 340 884 340 878 346.5 c 128,-1,62
 872 353 872 353 868 386 c 0,63,64
 862 431 862 431 862 553.5 c 128,-1,65
 862 676 862 676 868 713 c 0,51,52
79 263 m 0,66,67
 84 270 84 270 118 270 c 0,68,69
 150 270 150 270 156 248 c 0,70,71
 162 225 162 225 162 92.5 c 128,-1,72
 162 -40 162 -40 156 -84 c 0,73,74
 151 -118 151 -118 145.5 -124 c 128,-1,75
 140 -130 140 -130 111 -130 c 2,76,-1
 72 -130 l 1,77,-1
 72 63 l 2,78,79
 72 258 72 258 79 263 c 0,66,67
259 263 m 0,80,81
 264 270 264 270 299 270 c 2,82,-1
 332 270 l 1,83,-1
 332 70 l 1,84,-1
 332 -130 l 1,85,-1
 292 -130 l 1,86,-1
 252 -130 l 1,87,-1
 252 63 l 2,88,89
 252 258 252 258 259 263 c 0,80,81
461 263 m 2,90,91
 463 270 463 270 496 270 c 0,92,93
 530 270 530 270 536 248 c 0,94,95
 542 225 542 225 542 78 c 128,-1,96
 542 -69 542 -69 536 -99 c 0,97,98
 531 -121 531 -121 524.5 -125.5 c 128,-1,99
 518 -130 518 -130 495 -128 c 2,100,-1
 461 -125 l 1,101,-1
 461 65 l 2,102,103
 461 94 461 94 461 125 c 128,-1,104
 461 156 461 156 461 179.5 c 128,-1,105
 461 203 461 203 461 221 c 128,-1,106
 461 239 461 239 461 251 c 2,107,-1
 461 263 l 2,90,91
662 70 m 1,108,-1
 662 270 l 1,109,-1
 702 270 l 1,110,-1
 742 270 l 1,111,-1
 742 70 l 1,112,-1
 742 -130 l 1,113,-1
 702 -130 l 1,114,-1
 662 -130 l 1,115,-1
 662 70 l 1,108,-1
EndSplineSet
Validated: 33
EndChar

StartChar: uniE014
Encoding: 275 57364 19
Width: 1031
GlyphClass: 1
Flags: W
LayerCount: 2
Fore
SplineSet
75 758 m 0,0,1
 79 771 79 771 117 768 c 2,2,-1
 155 765 l 1,3,-1
 155 565 l 1,4,-1
 155 365 l 1,5,-1
 115 365 l 1,6,-1
 75 365 l 1,7,-1
 72 555 l 2,8,9
 70 745 70 745 75 758 c 0,0,1
267 764 m 0,10,11
 274 772 274 772 299 768 c 0,12,13
 313 766 313 766 320 760 c 128,-1,14
 327 754 327 754 331.5 732.5 c 128,-1,15
 336 711 336 711 337.5 679 c 128,-1,16
 339 647 339 647 339 584 c 0,17,18
 340 530 340 530 339 493.5 c 128,-1,19
 338 457 338 457 335.5 428 c 128,-1,20
 333 399 333 399 328.5 384.5 c 128,-1,21
 324 370 324 370 317 359.5 c 128,-1,22
 310 349 310 349 299.5 351 c 128,-1,23
 289 353 289 353 276 356 c 0,24,25
 265 360 265 360 262.5 394.5 c 128,-1,26
 260 429 260 429 260 559 c 0,27,28
 260 757 260 757 267 764 c 0,10,11
467 733 m 0,29,30
 471 759 471 759 476.5 764.5 c 128,-1,31
 482 770 482 770 504 768 c 2,32,-1
 535 765 l 1,33,-1
 538 563 l 1,34,-1
 540 360 l 1,35,-1
 506 360 l 2,36,37
 484 360 484 360 477.5 365.5 c 128,-1,38
 471 371 471 371 466 391 c 0,39,40
 460 421 460 421 460 559 c 128,-1,41
 460 697 460 697 467 733 c 0,29,30
666 748 m 0,42,43
 671 763 671 763 678.5 766.5 c 128,-1,44
 686 770 686 770 709 768 c 2,45,-1
 745 765 l 1,46,-1
 748 571 l 2,47,48
 748 496 748 496 748.5 452 c 128,-1,49
 749 408 749 408 744 385.5 c 128,-1,50
 739 363 739 363 731.5 356.5 c 128,-1,51
 724 350 724 350 709 350 c 0,52,53
 691 350 691 350 682.5 355.5 c 128,-1,54
 674 361 674 361 668.5 384.5 c 128,-1,55
 663 408 663 408 661.5 444 c 128,-1,56
 660 480 660 480 660 553 c 0,57,58
 660 722 660 722 666 748 c 0,42,43
875 758 m 0,59,60
 879 771 879 771 917 768 c 2,61,-1
 955 765 l 1,62,-1
 955 565 l 1,63,-1
 955 365 l 1,64,-1
 915 365 l 1,65,-1
 875 365 l 1,66,-1
 872 555 l 2,67,68
 870 745 870 745 875 758 c 0,59,60
83 284 m 0,69,70
 93 289 93 289 115 285 c 0,71,72
 133 280 133 280 148 280 c 0,73,74
 160 280 160 280 160 80 c 2,75,-1
 160 -120 l 1,76,-1
 121 -120 l 2,77,78
 93 -120 93 -120 87 -114.5 c 128,-1,79
 81 -109 81 -109 76 -83 c 0,80,81
 70 -41 70 -41 70 117 c 0,82,83
 70 279 70 279 83 284 c 0,69,70
267 284 m 0,84,85
 275 292 275 292 300 288 c 0,86,87
 316 286 316 286 322 277.5 c 128,-1,88
 328 269 328 269 332 240 c 0,89,90
 338 196 338 196 339 75.5 c 128,-1,91
 340 -45 340 -45 334 -83 c 0,92,93
 329 -109 329 -109 323 -114.5 c 128,-1,94
 317 -120 317 -120 294 -120 c 2,95,-1
 260 -120 l 1,96,-1
 260 78 l 2,97,98
 260 277 260 277 267 284 c 0,84,85
465 249 m 0,99,100
 470 279 470 279 475.5 284.5 c 128,-1,101
 481 290 481 290 503 288 c 2,102,-1
 535 285 l 1,103,-1
 538 83 l 1,104,-1
 540 -120 l 1,105,-1
 506 -120 l 1,106,-1
 472 -120 l 1,107,-1
 465 43 l 2,108,109
 458 207 458 207 465 249 c 0,99,100
673 284 m 0,110,111
 683 289 683 289 715 287 c 2,112,-1
 745 285 l 1,113,-1
 748 83 l 1,114,-1
 750 -120 l 1,115,-1
 711 -120 l 2,116,117
 672 -120 672 -120 666 -104 c 0,118,119
 660 -86 660 -86 660 95 c 0,120,121
 660 279 660 279 673 284 c 0,110,111
877 284 m 0,122,123
 885 292 885 292 920 288 c 2,124,-1
 955 285 l 1,125,-1
 955 85 l 1,126,-1
 955 -115 l 1,127,-1
 913 -118 l 1,128,-1
 870 -121 l 1,129,-1
 870 78 l 2,130,131
 870 277 870 277 877 284 c 0,122,123
EndSplineSet
Validated: 33
EndChar

StartChar: uniE019
Encoding: 276 57369 20
Width: 562
GlyphClass: 1
Flags: W
LayerCount: 2
Fore
SplineSet
157 734 m 0,0,1
 183 759 183 759 214 746 c 128,-1,2
 245 733 245 733 244 697 c 0,3,4
 244 682 244 682 216 629.5 c 128,-1,5
 188 577 188 577 157 533 c 0,6,7
 131 494 131 494 81 520 c 0,8,9
 61 531 61 531 63 560.5 c 128,-1,10
 65 590 65 590 87 624 c 0,11,12
 94 634 94 634 127 689 c 0,13,14
 140 715 140 715 157 734 c 0,0,1
421 733 m 0,15,16
 436 752 436 752 460 749.5 c 128,-1,17
 484 747 484 747 497 726 c 0,18,19
 508 710 508 710 508.5 700.5 c 128,-1,20
 509 691 509 691 498 668 c 0,21,22
 479 629 479 629 454 586 c 128,-1,23
 429 543 429 543 415 528 c 0,24,25
 402 514 402 514 384.5 511 c 128,-1,26
 367 508 367 508 353 515 c 128,-1,27
 339 522 339 522 330.5 537 c 128,-1,28
 322 552 322 552 326 571 c 0,29,30
 330 591 330 591 362.5 646.5 c 128,-1,31
 395 702 395 702 421 733 c 0,15,16
414 428 m 0,32,33
 426 441 426 441 461 438 c 2,34,-1
 497 435 l 1,35,-1
 496 385 l 2,36,37
 496 336 496 336 466 275 c 0,38,39
 446 233 446 233 436 223.5 c 128,-1,40
 426 214 426 214 400 212 c 0,41,42
 356 208 356 208 350.5 232 c 128,-1,43
 345 256 345 256 373 331 c 0,44,45
 401 410 401 410 414 428 c 0,32,33
64 408 m 0,46,47
 76 420 76 420 103 419.5 c 128,-1,48
 130 419 130 419 140 408 c 0,49,50
 153 390 153 390 187 313 c 0,51,52
 217 247 217 247 218.5 215.5 c 128,-1,53
 220 184 220 184 192 175 c 0,54,55
 163 166 163 166 143 183.5 c 128,-1,56
 123 201 123 201 92.5 262 c 128,-1,57
 62 323 62 323 55 357.5 c 128,-1,58
 48 392 48 392 64 408 c 0,46,47
258 117 m 0,59,60
 295 145 295 145 328 113 c 0,61,62
 338 102 338 102 340 87.5 c 128,-1,63
 342 73 342 73 338 37 c 0,64,65
 332 -29 332 -29 332 -81 c 0,66,67
 332 -180 332 -180 270 -180 c 0,68,69
 233 -180 233 -180 227.5 -158.5 c 128,-1,70
 222 -137 222 -137 230 -29 c 0,71,72
 236 53 236 53 241.5 81 c 128,-1,73
 247 109 247 109 258 117 c 0,59,60
EndSplineSet
Validated: 33
EndChar

StartChar: uniE01A
Encoding: 277 57370 21
Width: 586
GlyphClass: 1
Flags: W
LayerCount: 2
Fore
SplineSet
70 735 m 0,0,1
 77 751 77 751 113 748 c 2,2,-1
 149 745 l 1,3,-1
 149 650 l 1,4,-1
 149 555 l 1,5,-1
 119 552 l 2,6,7
 91 548 91 548 77 566 c 0,8,9
 67 579 67 579 64.5 646 c 128,-1,10
 62 713 62 713 70 735 c 0,0,1
445 731 m 0,11,12
 456 751 456 751 487 748 c 2,13,-1
 519 745 l 1,14,-1
 522 648 l 1,15,-1
 525 550 l 1,16,-1
 485 550 l 2,17,18
 446 550 446 550 440 566 c 0,19,20
 432 585 432 585 434 650 c 128,-1,21
 436 715 436 715 445 731 c 0,11,12
254 484 m 0,22,23
 263 510 263 510 286 510 c 0,24,25
 304 510 304 510 312.5 506.5 c 128,-1,26
 321 503 321 503 327 492 c 128,-1,27
 333 481 333 481 332.5 458.5 c 128,-1,28
 332 436 332 436 332 399 c 2,29,-1
 329 305 l 1,30,-1
 294 305 l 2,31,32
 273 305 273 305 265.5 309.5 c 128,-1,33
 258 314 258 314 253 330 c 0,34,35
 245 359 245 359 245.5 411 c 128,-1,36
 246 463 246 463 254 484 c 0,22,23
68 267 m 0,37,38
 73 278 73 278 84.5 279.5 c 128,-1,39
 96 281 96 281 122 274 c 0,40,41
 131 271 131 271 134.5 268 c 128,-1,42
 138 265 138 265 141 255 c 128,-1,43
 144 245 144 245 143 225.5 c 128,-1,44
 142 206 142 206 142 171 c 2,45,-1
 139 75 l 1,46,-1
 104 75 l 1,47,-1
 69 75 l 1,48,-1
 66 164 l 2,49,50
 62 252 62 252 68 267 c 0,37,38
441 263 m 0,51,52
 447 271 447 271 477 268 c 2,53,-1
 509 265 l 1,54,-1
 512 168 l 1,55,-1
 515 70 l 1,56,-1
 475 70 l 2,57,58
 447 70 447 70 440.5 75.5 c 128,-1,59
 434 81 434 81 429 110 c 0,60,61
 424 138 424 138 428.5 194 c 128,-1,62
 433 250 433 250 441 263 c 0,51,52
251 24 m 0,63,64
 259 32 259 32 289 28 c 2,65,-1
 319 25 l 1,66,-1
 322 -72 l 1,67,-1
 325 -170 l 1,68,-1
 284 -170 l 1,69,-1
 244 -170 l 1,70,-1
 244 -77 l 2,71,72
 244 17 244 17 251 24 c 0,63,64
EndSplineSet
Validated: 33
EndChar

StartChar: uniE01B
Encoding: 278 57371 22
Width: 539
GlyphClass: 1
Flags: W
LayerCount: 2
Fore
SplineSet
129 754 m 0,0,1
 150 769 150 769 157.5 769 c 128,-1,2
 165 769 165 769 186 754 c 0,3,4
 201 743 201 743 204.5 726.5 c 128,-1,5
 208 710 208 710 208 647 c 0,6,7
 208 562 208 562 201 535.5 c 128,-1,8
 194 509 194 509 171 504 c 0,9,10
 137 495 137 495 124.5 521 c 128,-1,11
 112 547 112 547 110 634 c 0,12,13
 107 708 107 708 109.5 725 c 128,-1,14
 112 742 112 742 129 754 c 0,0,1
330 754 m 0,15,16
 350 768 350 768 355 769 c 128,-1,17
 360 770 360 770 379 760 c 0,18,19
 392 752 392 752 395 732 c 128,-1,20
 398 712 398 712 398 635 c 0,21,22
 398 559 398 559 395 538.5 c 128,-1,23
 392 518 392 518 380 511 c 0,24,25
 359 501 359 501 339 507.5 c 128,-1,26
 319 514 319 514 314 533 c 0,27,28
 308 557 308 557 308 647 c 0,29,30
 308 710 308 710 311.5 726.5 c 128,-1,31
 315 743 315 743 330 754 c 0,15,16
239 451 m 0,32,33
 268 469 268 469 292 444 c 0,34,35
 301 435 301 435 304.5 407.5 c 128,-1,36
 308 380 308 380 308 306 c 0,37,38
 308 237 308 237 304.5 209 c 128,-1,39
 301 181 301 181 292 170.5 c 128,-1,40
 283 160 283 160 261 160 c 0,41,42
 234 160 234 160 225 196 c 128,-1,43
 216 232 216 232 221 329 c 0,44,45
 225 443 225 443 239 451 c 0,32,33
399 443 m 0,46,47
 421 459 421 459 430.5 458.5 c 128,-1,48
 440 458 440 458 458 440 c 0,49,50
 471 427 471 427 474.5 404 c 128,-1,51
 478 381 478 381 478 302 c 0,52,53
 478 237 478 237 474.5 209 c 128,-1,54
 471 181 471 181 462.5 170.5 c 128,-1,55
 454 160 454 160 434 160 c 0,56,57
 420 160 420 160 412.5 163 c 128,-1,58
 405 166 405 166 398.5 172 c 128,-1,59
 392 178 392 178 389.5 196.5 c 128,-1,60
 387 215 387 215 385 237 c 128,-1,61
 383 259 383 259 381 302 c 0,62,63
 376 394 376 394 378.5 412.5 c 128,-1,64
 381 431 381 431 399 443 c 0,46,47
70 428 m 0,65,66
 91 449 91 449 129 430 c 0,67,68
 142 422 142 422 145 401.5 c 128,-1,69
 148 381 148 381 148 302 c 0,70,71
 148 184 148 184 136 172 c 0,72,73
 124 161 124 161 102.5 161 c 128,-1,74
 81 161 81 161 70 172 c 0,75,76
 57 185 57 185 57 300 c 128,-1,77
 57 415 57 415 70 428 c 0,65,66
148 110 m 0,78,79
 166 128 166 128 175 129 c 128,-1,80
 184 130 184 130 203 116 c 0,81,82
 215 108 215 108 218 87 c 128,-1,83
 221 66 221 66 222 -4 c 0,84,85
 223 -75 223 -75 219.5 -95.5 c 128,-1,86
 216 -116 216 -116 204 -126 c 0,87,88
 184 -140 184 -140 175 -139 c 128,-1,89
 166 -138 166 -138 148 -120 c 0,90,91
 135 -107 135 -107 131.5 -86.5 c 128,-1,92
 128 -66 128 -66 128 -5 c 128,-1,93
 128 56 128 56 131.5 76.5 c 128,-1,94
 135 97 135 97 148 110 c 0,78,79
327 114 m 128,-1,96
 339 128 339 128 349 129.5 c 128,-1,97
 359 131 359 131 379 120 c 0,98,99
 392 112 392 112 395 92 c 128,-1,100
 398 72 398 72 398 -5 c 0,101,102
 398 -83 398 -83 394.5 -102.5 c 128,-1,103
 391 -122 391 -122 378 -130 c 0,104,105
 355 -142 355 -142 336.5 -129 c 128,-1,106
 318 -116 318 -116 312 -85 c 0,107,108
 304 -45 304 -45 309.5 27.5 c 128,-1,95
 315 100 315 100 327 114 c 128,-1,96
EndSplineSet
Validated: 33
EndChar

StartChar: uniE01C
Encoding: 279 57372 23
Width: 555
GlyphClass: 1
Flags: W
LayerCount: 2
Fore
SplineSet
74 773 m 0,0,1
 79 780 79 780 109 780 c 2,2,-1
 137 780 l 1,3,-1
 137 655 l 1,4,-1
 137 530 l 1,5,-1
 102 530 l 1,6,-1
 67 530 l 1,7,-1
 67 648 l 2,8,9
 67 768 67 768 74 773 c 0,0,1
413 734 m 0,10,11
 417 765 417 765 422.5 772.5 c 128,-1,12
 428 780 428 780 447 780 c 0,13,14
 464 780 464 780 470.5 774 c 128,-1,15
 477 768 477 768 481 749 c 0,16,17
 489 707 489 707 487 624.5 c 128,-1,18
 485 542 485 542 475 532 c 0,19,20
 462 519 462 519 440 520.5 c 128,-1,21
 418 522 418 522 413 536 c 0,22,23
 407 552 407 552 407 621 c 128,-1,24
 407 690 407 690 413 734 c 0,10,11
231 736 m 0,25,26
 237 751 237 751 269 748 c 2,27,-1
 302 745 l 1,28,-1
 305 618 l 1,29,-1
 308 491 l 1,30,-1
 282 484 l 2,31,32
 256 477 256 477 244 489 c 0,33,34
 234 499 234 499 228.5 607.5 c 128,-1,35
 223 716 223 716 231 736 c 0,25,26
234 413 m 0,36,37
 239 420 239 420 268 420 c 0,38,39
 294 420 294 420 300.5 396.5 c 128,-1,40
 307 373 307 373 307 282 c 0,41,42
 307 207 307 207 298.5 178.5 c 128,-1,43
 290 150 290 150 267 150 c 0,44,45
 248 150 248 150 237 169 c 0,46,47
 229 185 229 185 227.5 295 c 128,-1,48
 226 405 226 405 234 413 c 0,36,37
72 316 m 2,49,-1
 79 391 l 1,50,-1
 110 388 l 1,51,-1
 142 385 l 1,52,-1
 145 285 l 2,53,54
 148 190 148 190 142 153 c 0,55,56
 138 132 138 132 132 126 c 128,-1,57
 126 120 126 120 108 120 c 0,58,59
 87 120 87 120 82 128.5 c 128,-1,60
 77 137 77 137 72 181 c 0,61,62
 65 241 65 241 72 316 c 2,49,-1
413 358 m 0,63,64
 420 380 420 380 448 380 c 128,-1,65
 476 380 476 380 482 355.5 c 128,-1,66
 488 331 488 331 485 230 c 2,67,-1
 482 125 l 1,68,-1
 453 122 l 2,69,70
 424 118 424 118 416 132 c 0,71,72
 409 143 409 143 407.5 238 c 128,-1,73
 406 333 406 333 413 358 c 0,63,64
174 73 m 0,74,75
 187 88 187 88 221 74 c 0,76,77
 231 70 231 70 234 46.5 c 128,-1,78
 237 23 237 23 237 -51 c 0,79,80
 237 -129 237 -129 234 -151 c 128,-1,81
 231 -173 231 -173 219 -179 c 0,82,83
 201 -189 201 -189 184 -179 c 0,84,85
 173 -172 173 -172 170 -149.5 c 128,-1,86
 167 -127 167 -127 167 -51 c 0,87,88
 167 68 167 68 174 73 c 0,74,75
311 67 m 0,89,90
 317 80 317 80 347 80 c 2,91,-1
 377 80 l 1,92,-1
 377 -51 l 1,93,-1
 377 -181 l 1,94,-1
 345 -178 l 1,95,-1
 312 -175 l 1,96,-1
 309 -61 l 2,97,98
 307 54 307 54 311 67 c 0,89,90
EndSplineSet
Validated: 33
EndChar

StartChar: uniE01D
Encoding: 280 57373 24
Width: 468
GlyphClass: 1
Flags: W
LayerCount: 2
Fore
SplineSet
123 728 m 0,0,1
 136 747 136 747 150 749 c 128,-1,2
 164 751 164 751 171 735 c 0,3,4
 177 718 177 718 144.5 619 c 128,-1,5
 112 520 112 520 99 515 c 0,6,7
 83 510 83 510 69 524 c 0,8,9
 60 532 60 532 62 550 c 128,-1,10
 64 568 64 568 82 622 c 0,11,12
 108 700 108 700 123 728 c 0,0,1
230 738 m 0,13,14
 240 751 240 751 254 749.5 c 128,-1,15
 268 748 268 748 274 734 c 0,16,17
 278 722 278 722 258 638 c 128,-1,18
 238 554 238 554 225 528 c 0,19,20
 217 513 217 513 203 510.5 c 128,-1,21
 189 508 189 508 181 521 c 0,22,23
 176 530 176 530 197.5 626 c 128,-1,24
 219 722 219 722 230 738 c 0,13,14
355 739 m 0,25,26
 372 749 372 749 379 748.5 c 128,-1,27
 386 748 386 748 397 735 c 0,28,29
 411 718 411 718 383 619.5 c 128,-1,30
 355 521 355 521 335 514 c 0,31,32
 296 502 296 502 298 546 c 0,33,34
 299 573 299 573 317 625 c 0,35,36
 337 683 337 683 337 706 c 0,37,38
 337 730 337 730 355 739 c 0,25,26
57 408 m 0,39,40
 57 433 57 433 68.5 439 c 128,-1,41
 80 445 80 445 95 428 c 0,42,43
 107 412 107 412 137 304.5 c 128,-1,44
 167 197 167 197 163 185 c 0,45,46
 158 171 158 171 143.5 170.5 c 128,-1,47
 129 170 129 170 118 184 c 0,48,49
 106 198 106 198 81.5 287.5 c 128,-1,50
 57 377 57 377 57 408 c 0,39,40
165 428 m 0,51,52
 169 442 169 442 191 438 c 0,53,54
 204 436 204 436 215 412.5 c 128,-1,55
 226 389 226 389 248 315 c 0,56,57
 263 267 263 267 270 240 c 128,-1,58
 277 213 277 213 278 196.5 c 128,-1,59
 279 180 279 180 274 175 c 128,-1,60
 269 170 269 170 258 170 c 0,61,62
 241 170 241 170 229 183 c 128,-1,63
 217 196 217 196 216 215 c 0,64,65
 216 232 216 232 188 325 c 0,66,67
 159 414 159 414 165 428 c 0,51,52
298 426 m 0,68,69
 311 442 311 442 325 439.5 c 128,-1,70
 339 437 339 437 347 418 c 0,71,72
 358 391 358 391 377.5 309 c 128,-1,73
 397 227 397 227 397 206 c 128,-1,74
 397 185 397 185 382.5 175 c 128,-1,75
 368 165 368 165 356 177 c 0,76,77
 347 186 347 186 316 299 c 0,78,79
 286 412 286 412 298 426 c 0,68,69
128 106 m 0,80,81
 139 119 139 119 153.5 119.5 c 128,-1,82
 168 120 168 120 173 107 c 128,-1,83
 178 94 178 94 146 -16 c 128,-1,84
 114 -126 114 -126 101 -140 c 0,85,86
 92 -149 92 -149 86.5 -148.5 c 128,-1,87
 81 -148 81 -148 71 -138 c 0,88,89
 60 -128 60 -128 62.5 -108 c 128,-1,90
 65 -88 65 -88 86 -15 c 0,91,92
 116 93 116 93 128 106 c 0,80,81
244 113 m 0,93,94
 249 122 249 122 267 120 c 128,-1,95
 285 118 285 118 290 108 c 0,96,97
 294 93 294 93 253 -25 c 0,98,99
 212 -145 212 -145 194 -148 c 0,100,101
 171 -152 171 -152 172 -126 c 0,102,103
 172 -96 172 -96 202 -7 c 0,104,105
 237 101 237 101 244 113 c 0,93,94
349 68 m 0,106,107
 361 100 361 100 369.5 110 c 128,-1,108
 378 120 378 120 393 120 c 0,109,110
 406 120 406 120 411.5 115 c 128,-1,111
 417 110 417 110 415 91.5 c 128,-1,112
 413 73 413 73 404.5 45.5 c 128,-1,113
 396 18 396 18 378 -35 c 0,114,115
 355 -101 355 -101 343 -123.5 c 128,-1,116
 331 -146 331 -146 318 -148 c 0,117,118
 291 -152 291 -152 289 -131 c 0,119,120
 288 -100 288 -100 349 68 c 0,106,107
EndSplineSet
Validated: 33
EndChar

StartChar: uniE01F
Encoding: 281 57375 25
Width: 206
GlyphClass: 1
Flags: W
LayerCount: 2
Fore
SplineSet
80 774 m 0,0,1
 88 781 88 781 108 778 c 0,2,3
 118 777 118 777 121 764 c 0,4,5
 128 734 128 734 131 387 c 0,6,7
 131 370 131 370 131 330 c 0,8,9
 133 -119 133 -119 128 -148 c 0,10,11
 124 -174 124 -174 106 -180 c 128,-1,12
 88 -186 88 -186 79 -164 c 0,13,14
 73 -147 73 -147 73.5 310 c 128,-1,15
 74 767 74 767 80 774 c 0,0,1
EndSplineSet
Validated: 33
EndChar

StartChar: uniE020
Encoding: 282 57376 26
Width: 334
GlyphClass: 1
Flags: W
LayerCount: 2
Fore
SplineSet
80 793 m 0,0,1
 89 803 89 803 105.5 799.5 c 128,-1,2
 122 796 122 796 127 784 c 0,3,4
 133 769 133 769 133 305 c 128,-1,5
 133 -159 133 -159 127 -174 c 0,6,7
 121 -190 121 -190 103 -190 c 128,-1,8
 85 -190 85 -190 79 -174 c 128,-1,9
 73 -158 73 -158 73 314.5 c 128,-1,10
 73 787 73 787 80 793 c 0,0,1
213 305 m 1,11,-1
 213 801 l 1,12,-1
 236 798 l 1,13,-1
 258 795 l 1,14,-1
 258 305 l 1,15,-1
 258 -185 l 1,16,-1
 236 -188 l 1,17,-1
 213 -191 l 1,18,-1
 213 305 l 1,11,-1
EndSplineSet
Validated: 1
EndChar

StartChar: uniE021
Encoding: 283 57377 27
Width: 469
GlyphClass: 1
Flags: W
LayerCount: 2
Fore
SplineSet
86 773 m 0,0,1
 90 781 90 781 102 777 c 256,2,3
 114 773 114 773 117 297 c 0,4,5
 118 -53 118 -53 116 -116.5 c 128,-1,6
 114 -180 114 -180 100 -180 c 256,7,8
 86 -180 86 -180 82.5 -147.5 c 128,-1,9
 79 -115 79 -115 73.5 48 c 128,-1,10
 68 211 68 211 72.5 485.5 c 128,-1,11
 77 760 77 760 86 773 c 0,0,1
211 772 m 0,12,13
 223 779 223 779 234 777 c 0,14,15
 246 773 246 773 251 602.5 c 128,-1,16
 256 432 256 432 252 162 c 0,17,18
 246 -142 246 -142 240 -167 c 0,19,20
 235 -179 235 -179 225 -178 c 0,21,22
 209 -176 209 -176 206 -116.5 c 128,-1,23
 203 -57 203 -57 201 294 c 0,24,25
 199 572 199 572 201 669.5 c 128,-1,26
 203 767 203 767 211 772 c 0,12,13
354 758 m 0,27,28
 360 781 360 781 377 778 c 0,29,30
 389 776 389 776 391.5 704 c 128,-1,31
 394 632 394 632 394 300 c 0,32,33
 394 -53 394 -53 391.5 -114 c 128,-1,34
 389 -175 389 -175 374 -175 c 0,35,36
 364 -175 364 -175 361 -162 c 0,37,38
 353 -133 353 -133 351 217 c 0,39,40
 351 236 351 236 351 280 c 0,41,42
 349 737 349 737 354 758 c 0,27,28
EndSplineSet
Validated: 33
EndChar

StartChar: uniE022
Encoding: 284 57378 28
Width: 623
GlyphClass: 1
Flags: W
LayerCount: 2
Fore
SplineSet
508 778 m 0,0,1
 513 792 513 792 530 788 c 0,2,3
 543 786 543 786 545.5 714.5 c 128,-1,4
 548 643 548 643 548 305 c 0,5,6
 548 -52 548 -52 545.5 -113.5 c 128,-1,7
 543 -175 543 -175 528 -175 c 0,8,9
 518 -175 518 -175 515 -162 c 0,10,11
 508 -133 508 -133 505 224 c 0,12,13
 505 245 505 245 505 295 c 0,14,15
 503 767 503 767 508 778 c 0,0,1
73 300 m 0,16,17
 73 729 73 729 80 765 c 0,18,19
 83 780 83 780 92 780 c 0,20,21
 105 780 105 780 108.5 745 c 128,-1,22
 112 710 112 710 115 538 c 0,23,24
 119 294 119 294 115 58 c 0,25,26
 112 -112 112 -112 108.5 -146 c 128,-1,27
 105 -180 105 -180 92 -180 c 0,28,29
 83 -180 83 -180 80 -162 c 0,30,31
 73 -122 73 -122 73 300 c 0,16,17
203 301 m 2,32,-1
 203 781 l 1,33,-1
 226 778 l 1,34,-1
 248 775 l 1,35,-1
 251 320 l 2,36,37
 253 -137 253 -137 248 -158 c 0,38,39
 243 -180 243 -180 223 -180 c 0,40,41
 208 -180 208 -180 205.5 -118 c 128,-1,42
 203 -56 203 -56 203 301 c 2,32,-1
350 773 m 0,43,44
 355 780 355 780 380 780 c 2,45,-1
 403 780 l 1,46,-1
 403 299 l 1,47,-1
 403 -181 l 1,48,-1
 381 -178 l 2,49,50
 364 -176 364 -176 360 -155.5 c 128,-1,51
 356 -135 356 -135 352 -30 c 0,52,53
 345 119 345 119 344.5 444 c 128,-1,54
 344 769 344 769 350 773 c 0,43,44
EndSplineSet
Validated: 33
EndChar

StartChar: uniE023
Encoding: 285 57379 29
Width: 848
GlyphClass: 1
Flags: W
LayerCount: 2
Fore
SplineSet
73 535 m 0,0,1
 78 703 78 703 81.5 741.5 c 128,-1,2
 85 780 85 780 97 780 c 0,3,4
 116 780 116 780 121 764 c 0,5,6
 127 749 127 749 127 300 c 128,-1,7
 127 -149 127 -149 121 -164 c 0,8,9
 116 -180 116 -180 97 -180 c 0,10,11
 85 -180 85 -180 81.5 -143 c 128,-1,12
 78 -106 78 -106 73 55 c 0,13,14
 66 291 66 291 73 535 c 0,0,1
224 774 m 0,15,16
 230 780 230 780 247 778 c 0,17,18
 257 776 257 776 260 696.5 c 128,-1,19
 263 617 263 617 265 306 c 0,20,21
 267 -105 267 -105 258 -157 c 0,22,23
 253 -185 253 -185 242 -185 c 0,24,25
 238 -186 238 -186 231 -183 c 0,26,27
 222 -180 222 -180 219.5 -93.5 c 128,-1,28
 217 -7 217 -7 217 294 c 0,29,30
 217 767 217 767 224 774 c 0,15,16
384 773 m 0,31,32
 389 780 389 780 407 780 c 0,33,34
 413 780 413 780 416.5 773.5 c 128,-1,35
 420 767 420 767 422.5 740 c 128,-1,36
 425 713 425 713 427 669 c 128,-1,37
 429 625 429 625 431 540 c 0,38,39
 438 300 438 300 431 60 c 2,40,-1
 424 -180 l 1,41,-1
 400 -180 l 1,42,-1
 377 -180 l 1,43,-1
 377 293 l 2,44,45
 377 768 377 768 384 773 c 0,31,32
545 538 m 0,46,47
 549 707 549 707 552 743.5 c 128,-1,48
 555 780 555 780 567 780 c 0,49,50
 586 780 586 780 591 764 c 0,51,52
 597 749 597 749 597 300 c 128,-1,53
 597 -149 597 -149 591 -164 c 0,54,55
 586 -180 586 -180 567 -180 c 0,56,57
 555 -180 555 -180 551.5 -142.5 c 128,-1,58
 548 -105 548 -105 545 58 c 0,59,60
 540 294 540 294 545 538 c 0,46,47
734 774 m 0,61,62
 740 780 740 780 757 778 c 0,63,64
 767 776 767 776 769.5 695 c 128,-1,65
 772 614 772 614 772 300 c 2,66,-1
 772 -175 l 1,67,-1
 750 -178 l 1,68,-1
 727 -181 l 1,69,-1
 727 293 l 2,70,71
 727 767 727 767 734 774 c 0,61,62
EndSplineSet
Validated: 33
EndChar

StartChar: uniE024
Encoding: 286 57380 30
Width: 928
GlyphClass: 1
Flags: W
LayerCount: 2
Fore
SplineSet
84 761 m 0,0,1
 89 771 89 771 102 770 c 128,-1,2
 115 769 115 769 126 758 c 0,3,4
 138 746 138 746 138 299 c 0,5,6
 138 -85 138 -85 130 -136 c 0,7,8
 124 -169 124 -169 110 -169 c 0,9,10
 105 -169 105 -169 95 -165 c 0,11,12
 86 -161 86 -161 81.5 -106 c 128,-1,13
 77 -51 77 -51 73 128 c 0,14,15
 68 331 68 331 71.5 539 c 128,-1,16
 75 747 75 747 84 761 c 0,0,1
215 764 m 0,17,18
 221 770 221 770 238 768 c 0,19,20
 248 766 248 766 251 688 c 128,-1,21
 254 610 254 610 256 305 c 0,22,23
 258 -154 258 -154 250 -162 c 0,24,25
 241 -171 241 -171 225 -164 c 0,26,27
 213 -160 213 -160 210.5 -88.5 c 128,-1,28
 208 -17 208 -17 208 299 c 0,29,30
 208 757 208 757 215 764 c 0,17,18
360 758 m 128,-1,32
 372 770 372 770 388 768 c 0,33,34
 398 766 398 766 401 686.5 c 128,-1,35
 404 607 404 607 406 302 c 0,36,37
 407 0 407 0 405 -81 c 128,-1,38
 403 -162 403 -162 393 -166 c 0,39,40
 387 -169 387 -169 378 -167 c 128,-1,41
 369 -165 369 -165 363 -160 c 0,42,43
 353 -152 353 -152 350.5 -70.5 c 128,-1,44
 348 11 348 11 348 299 c 0,45,31
 348 746 348 746 360 758 c 128,-1,32
505 763 m 0,46,47
 510 770 510 770 523 770 c 0,48,49
 541 770 541 770 546 752 c 0,50,51
 557 716 557 716 558 435 c 0,52,53
 558 388 558 388 558 299 c 0,54,55
 558 -85 558 -85 549 -136 c 0,56,57
 544 -168 544 -168 530 -168 c 0,58,59
 525 -168 525 -168 514 -164 c 0,60,61
 503 -159 503 -159 500.5 -83.5 c 128,-1,62
 498 -8 498 -8 498 299 c 0,63,64
 498 758 498 758 505 763 c 0,46,47
650 758 m 128,-1,66
 662 770 662 770 678 768 c 0,67,68
 688 766 688 766 691 687 c 128,-1,69
 694 608 694 608 696 303 c 0,70,71
 697 3 697 3 695 -78.5 c 128,-1,72
 693 -160 693 -160 683 -164 c 0,73,74
 668 -170 668 -170 653 -164 c 0,75,76
 643 -160 643 -160 640.5 -80 c 128,-1,77
 638 0 638 0 638 294 c 0,78,65
 638 746 638 746 650 758 c 128,-1,66
794 758 m 0,79,80
 796 763 796 763 803.5 766 c 128,-1,81
 811 769 811 769 820 768 c 0,82,83
 836 766 836 766 840.5 754 c 128,-1,84
 845 742 845 742 849 695 c 0,85,86
 856 621 856 621 856.5 429 c 128,-1,87
 857 237 857 237 851 52 c 2,88,-1
 845 -160 l 1,89,-1
 818 -160 l 1,90,-1
 791 -160 l 1,91,-1
 784 116 l 2,92,93
 779 302 779 302 782.5 517 c 128,-1,94
 786 732 786 732 794 758 c 0,79,80
EndSplineSet
Validated: 33
EndChar

StartChar: uniE025
Encoding: 287 57381 31
Width: 1030
GlyphClass: 1
Flags: W
LayerCount: 2
Fore
SplineSet
73 545 m 0,0,1
 78 743 78 743 85 761 c 0,2,3
 89 770 89 770 101 770 c 0,4,5
 117 770 117 770 120.5 754.5 c 128,-1,6
 124 739 124 739 129 663 c 0,7,8
 136 561 136 561 136 370 c 128,-1,9
 136 179 136 179 129 28 c 0,10,11
 125 -87 125 -87 121 -108.5 c 128,-1,12
 117 -130 117 -130 101 -130 c 0,13,14
 88 -130 88 -130 84 -118 c 0,15,16
 78 -99 78 -99 73 95 c 0,17,18
 66 320 66 320 73 545 c 0,0,1
201 758 m 0,19,20
 207 772 207 772 228 768 c 2,21,-1
 251 765 l 1,22,-1
 251 320 l 1,23,-1
 251 -125 l 1,24,-1
 226 -125 l 1,25,-1
 201 -125 l 1,26,-1
 198 310 l 2,27,28
 196 747 196 747 201 758 c 0,19,20
341 758 m 0,29,30
 347 772 347 772 368 768 c 2,31,-1
 391 765 l 1,32,-1
 391 320 l 1,33,-1
 391 -125 l 1,34,-1
 366 -125 l 1,35,-1
 341 -125 l 1,36,-1
 338 310 l 2,37,38
 336 747 336 747 341 758 c 0,29,30
481 758 m 0,39,40
 487 772 487 772 508 768 c 2,41,-1
 531 765 l 1,42,-1
 531 320 l 1,43,-1
 531 -125 l 1,44,-1
 506 -125 l 1,45,-1
 481 -125 l 1,46,-1
 478 310 l 2,47,48
 476 747 476 747 481 758 c 0,39,40
614 523 m 2,49,-1
 618 771 l 1,50,-1
 644 768 l 1,51,-1
 671 765 l 1,52,-1
 671 320 l 1,53,-1
 671 -125 l 1,54,-1
 646 -125 l 1,55,-1
 621 -125 l 1,56,-1
 616 75 l 2,57,58
 612 228 612 228 614 523 c 2,49,-1
761 758 m 0,59,60
 767 772 767 772 788 768 c 2,61,-1
 811 765 l 1,62,-1
 811 320 l 1,63,-1
 811 -125 l 1,64,-1
 786 -125 l 1,65,-1
 761 -125 l 1,66,-1
 758 310 l 2,67,68
 756 747 756 747 761 758 c 0,59,60
901 758 m 0,69,70
 905 770 905 770 931 770 c 2,71,-1
 956 770 l 1,72,-1
 954 323 l 1,73,-1
 951 -125 l 1,74,-1
 926 -125 l 1,75,-1
 901 -125 l 1,76,-1
 898 310 l 2,77,78
 896 747 896 747 901 758 c 0,69,70
EndSplineSet
Validated: 33
EndChar

StartChar: uniE027
Encoding: 288 57383 32
Width: 1083
GlyphClass: 1
Flags: W
LayerCount: 2
Fore
SplineSet
72 744 m 0,0,1
 76 758 76 758 81.5 764 c 128,-1,2
 87 770 87 770 96 768 c 0,3,4
 108 766 108 766 111 712 c 128,-1,5
 114 658 114 658 116 410 c 0,6,7
 118 85 118 85 108 51 c 0,8,9
 102 32 102 32 88 46 c 0,10,11
 80 54 80 54 72.5 384 c 128,-1,12
 65 714 65 714 72 744 c 0,0,1
173 686 m 0,13,14
 178 740 178 740 182 755 c 128,-1,15
 186 770 186 770 196 768 c 0,16,17
 208 766 208 766 211 707.5 c 128,-1,18
 214 649 214 649 216 407 c 0,19,20
 218 173 218 173 215.5 110.5 c 128,-1,21
 213 48 213 48 203 43 c 0,22,23
 188 38 188 38 180 44 c 0,24,25
 173 52 173 52 170 330.5 c 128,-1,26
 167 609 167 609 173 686 c 0,13,14
288 405 m 0,27,28
 288 730 288 730 295 758 c 0,29,30
 299 770 299 770 307 770 c 0,31,32
 314 770 314 770 317.5 766 c 128,-1,33
 321 762 321 762 323.5 741.5 c 128,-1,34
 326 721 326 721 327.5 689.5 c 128,-1,35
 329 658 329 658 330 591 c 0,36,37
 336 413 336 413 330 226 c 0,38,39
 326 60 326 60 318 46 c 0,40,41
 315 40 315 40 307 40 c 0,42,43
 298 40 298 40 294 56 c 0,44,45
 288 88 288 88 288 405 c 0,27,28
403 758 m 0,46,47
 406 763 406 763 412.5 766 c 128,-1,48
 419 769 419 769 425 768 c 0,49,50
 438 766 438 766 440.5 711.5 c 128,-1,51
 443 657 443 657 443 405 c 0,52,53
 443 138 443 138 440.5 91.5 c 128,-1,54
 438 45 438 45 423 45 c 0,55,56
 413 45 413 45 409 59 c 0,57,58
 403 86 403 86 400 395 c 0,59,60
 398 747 398 747 403 758 c 0,46,47
513 758 m 0,61,62
 516 763 516 763 522.5 766 c 128,-1,63
 529 769 529 769 535 768 c 0,64,65
 548 766 548 766 550.5 711.5 c 128,-1,66
 553 657 553 657 553 405 c 0,67,68
 553 138 553 138 550.5 91.5 c 128,-1,69
 548 45 548 45 533 45 c 0,70,71
 523 45 523 45 519 59 c 0,72,73
 513 86 513 86 510 395 c 0,74,75
 508 747 508 747 513 758 c 0,61,62
628 404 m 0,76,77
 628 730 628 730 635 758 c 0,78,79
 639 770 639 770 647 770 c 0,80,81
 660 770 660 770 663.5 739 c 128,-1,82
 667 708 667 708 671 558 c 0,83,84
 676 362 676 362 670 195 c 0,85,86
 666 96 666 96 662 70 c 128,-1,87
 658 44 658 44 646 42 c 0,88,89
 638 41 638 41 635 53 c 0,90,91
 628 81 628 81 628 404 c 0,76,77
735 764 m 0,92,93
 743 771 743 771 763 768 c 0,94,95
 774 766 774 766 777 754 c 0,96,97
 784 728 784 728 786 428 c 0,98,99
 786 422 786 422 786 407 c 0,100,101
 788 174 788 174 785.5 111 c 128,-1,102
 783 48 783 48 773 44 c 0,103,104
 767 41 767 41 758 43 c 128,-1,105
 749 45 749 45 743 50 c 0,106,107
 734 58 734 58 731 122.5 c 128,-1,108
 728 187 728 187 728 410 c 0,109,110
 728 757 728 757 735 764 c 0,92,93
853 758 m 0,111,112
 856 763 856 763 862.5 766 c 128,-1,113
 869 769 869 769 875 768 c 0,114,115
 888 766 888 766 890.5 711.5 c 128,-1,116
 893 657 893 657 893 405 c 0,117,118
 893 138 893 138 890.5 91.5 c 128,-1,119
 888 45 888 45 873 45 c 0,120,121
 863 45 863 45 859 59 c 0,122,123
 853 86 853 86 850 395 c 0,124,125
 848 747 848 747 853 758 c 0,111,112
963 757 m 0,126,127
 965 762 965 762 972 766 c 128,-1,128
 979 770 979 770 986 770 c 0,129,130
 1000 770 1000 770 1003.5 740 c 128,-1,131
 1007 710 1007 710 1010 563 c 0,132,133
 1016 343 1016 343 1009 200 c 0,134,135
 1005 90 1005 90 1001 67.5 c 128,-1,136
 997 45 997 45 983 45 c 0,137,138
 973 45 973 45 969 59 c 0,139,140
 963 86 963 86 960 395 c 0,141,142
 958 747 958 747 963 757 c 0,126,127
EndSplineSet
Validated: 33
EndChar

StartChar: uniE029
Encoding: 289 57385 33
Width: 699
GlyphClass: 1
Flags: W
LayerCount: 2
Fore
SplineSet
84 759 m 0,0,1
 97 779 97 779 118 758 c 0,2,3
 129 747 129 747 130.5 302.5 c 128,-1,4
 132 -142 132 -142 121 -159 c 0,5,6
 113 -173 113 -173 97 -167 c 0,7,8
 88 -164 88 -164 84 -133.5 c 128,-1,9
 80 -103 80 -103 75 -13 c 0,10,11
 68 113 68 113 72 429 c 128,-1,12
 76 745 76 745 84 759 c 0,0,1
585 758 m 0,13,14
 590 772 590 772 607 768 c 0,15,16
 620 766 620 766 622.5 696.5 c 128,-1,17
 625 627 625 627 625 300 c 0,18,19
 625 -45 625 -45 622.5 -105 c 128,-1,20
 620 -165 620 -165 605 -165 c 0,21,22
 595 -165 595 -165 592 -152 c 0,23,24
 585 -123 585 -123 583 227 c 0,25,26
 582 246 582 246 582 290 c 0,27,28
 580 747 580 747 585 758 c 0,13,14
326 419 m 0,29,30
 331 441 331 441 337 445.5 c 128,-1,31
 343 450 343 450 364 448 c 2,32,-1
 395 445 l 1,33,-1
 398 301 l 2,34,35
 398 244 398 244 398 209.5 c 128,-1,36
 398 175 398 175 393 157 c 128,-1,37
 388 139 388 139 380 134.5 c 128,-1,38
 372 130 372 130 356 132 c 0,39,40
 344 133 344 133 338.5 142.5 c 128,-1,41
 333 152 333 152 328 175 c 0,42,43
 321 213 321 213 320.5 300.5 c 128,-1,44
 320 388 320 388 326 419 c 0,29,30
EndSplineSet
Validated: 33
EndChar

StartChar: uniE02A
Encoding: 290 57386 34
Width: 822
GlyphClass: 1
Flags: W
LayerCount: 2
Fore
SplineSet
381 768 m 0,0,1
 389 779 389 779 401.5 779.5 c 128,-1,2
 414 780 414 780 426 768 c 0,3,4
 436 758 436 758 438.5 398.5 c 128,-1,5
 441 39 441 39 431 -89 c 0,6,7
 427 -154 427 -154 423 -167 c 128,-1,8
 419 -180 419 -180 404 -178 c 0,9,10
 391 -176 391 -176 386 -163 c 128,-1,11
 381 -150 381 -150 375 -105 c 0,12,13
 368 -38 368 -38 370.5 358.5 c 128,-1,14
 373 755 373 755 381 768 c 0,0,1
65 764 m 0,15,16
 71 770 71 770 88 768 c 0,17,18
 99 766 99 766 105 726.5 c 128,-1,19
 111 687 111 687 107.5 647 c 128,-1,20
 104 607 104 607 92 603 c 0,21,22
 76 597 76 597 67 611 c 0,23,24
 60 624 60 624 59 690 c 128,-1,25
 58 756 58 756 65 764 c 0,15,16
152 756 m 0,26,27
 158 770 158 770 176 770 c 0,28,29
 208 770 208 770 208 666 c 0,30,31
 208 639 208 639 204 623 c 128,-1,32
 200 607 200 607 191.5 603 c 128,-1,33
 183 599 183 599 171 606 c 0,34,35
 161 612 161 612 156.5 628 c 128,-1,36
 152 644 152 644 150 680 c 0,37,38
 147 743 147 743 152 756 c 0,26,27
628 751 m 0,39,40
 638 768 638 768 652 769 c 128,-1,41
 666 770 666 770 672 754 c 0,42,43
 679 736 679 736 678 674.5 c 128,-1,44
 677 613 677 613 669 601 c 0,45,46
 661 587 661 587 645 593 c 0,47,48
 627 600 627 600 620 661 c 128,-1,49
 613 722 613 722 628 751 c 0,39,40
725 764 m 0,50,51
 731 770 731 770 748 768 c 0,52,53
 757 766 757 766 761 749 c 128,-1,54
 765 732 765 732 766 686 c 0,55,56
 770 592 770 592 749 592 c 0,57,58
 743 592 743 592 733 600 c 0,59,60
 718 612 718 612 718 685 c 0,61,62
 718 757 718 757 725 764 c 0,50,51
64 -6 m 0,63,64
 67 1 67 1 72.5 5.5 c 128,-1,65
 78 10 78 10 83 10 c 0,66,67
 98 10 98 10 103 -11.5 c 128,-1,68
 108 -33 108 -33 108 -90 c 0,69,70
 108 -168 108 -168 89 -168 c 0,71,72
 83 -168 83 -168 73 -160 c 0,73,74
 62 -150 62 -150 58.5 -90 c 128,-1,75
 55 -30 55 -30 64 -6 c 0,63,64
152 -3 m 0,76,77
 159 14 159 14 175 9 c 128,-1,78
 191 4 191 4 199 -17 c 0,79,80
 208 -39 208 -39 206 -98 c 128,-1,81
 204 -157 204 -157 194 -167 c 0,82,83
 188 -174 188 -174 170 -164 c 0,84,85
 153 -153 153 -153 150 -85 c 0,86,87
 147 -18 147 -18 152 -3 c 0,76,77
624 -16 m 0,88,89
 627 -9 627 -9 635.5 -4.5 c 128,-1,90
 644 0 644 0 653 0 c 0,91,92
 669 0 669 0 673.5 -10 c 128,-1,93
 678 -20 678 -20 683 -65 c 0,94,95
 689 -134 689 -134 683 -150 c 0,96,97
 677 -172 677 -172 657 -169.5 c 128,-1,98
 637 -167 637 -167 628 -144 c 0,99,100
 620 -123 620 -123 619 -78.5 c 128,-1,101
 618 -34 618 -34 624 -16 c 0,88,89
EndSplineSet
Validated: 33
EndChar

StartChar: uniE02B
Encoding: 291 57387 35
Width: 851
GlyphClass: 1
Flags: W
LayerCount: 2
Fore
SplineSet
55 693 m 2,0,-1
 52 760 l 1,1,-1
 81 760 l 2,2,3
 100 760 100 760 106.5 754 c 128,-1,4
 113 748 113 748 117 728 c 0,5,6
 122 695 122 695 115 660 c 0,7,8
 110 639 110 639 104 632 c 128,-1,9
 98 625 98 625 83 625 c 0,10,11
 65 625 65 625 61 634.5 c 128,-1,12
 57 644 57 644 55 693 c 2,0,-1
240 753 m 0,13,14
 245 760 245 760 296 760 c 2,15,-1
 346 760 l 1,16,-1
 340 573 l 2,17,18
 333 391 333 391 333 108 c 2,19,-1
 333 -170 l 1,20,-1
 289 -170 l 2,21,22
 245 -170 245 -170 239 -154 c 128,-1,23
 233 -138 233 -138 233 304.5 c 128,-1,24
 233 747 233 747 240 753 c 0,13,14
473 295 m 1,25,-1
 473 761 l 1,26,-1
 521 758 l 1,27,-1
 568 755 l 1,28,-1
 568 295 l 1,29,-1
 568 -165 l 1,30,-1
 521 -168 l 1,31,-1
 473 -171 l 1,32,-1
 473 295 l 1,25,-1
727 747 m 0,33,34
 733 761 733 761 760 758 c 0,35,36
 779 756 779 756 784 748.5 c 128,-1,37
 789 741 789 741 791 711 c 0,38,39
 795 658 795 658 787 638.5 c 128,-1,40
 779 619 779 619 755 622 c 0,41,42
 736 624 736 624 731.5 632.5 c 128,-1,43
 727 641 727 641 725 679 c 0,44,45
 721 732 721 732 727 747 c 0,33,34
67 -33 m 0,46,47
 74 -19 74 -19 95 -22 c 0,48,49
 111 -24 111 -24 114.5 -35.5 c 128,-1,50
 118 -47 118 -47 118 -95 c 0,51,52
 118 -146 118 -146 114.5 -155.5 c 128,-1,53
 111 -165 111 -165 93 -165 c 0,54,55
 76 -165 76 -165 71.5 -156 c 128,-1,56
 67 -147 67 -147 65 -106 c 0,57,58
 61 -48 61 -48 67 -33 c 0,46,47
736 -27 m 0,59,60
 748 -21 748 -21 751 -21 c 0,61,62
 753 -20 753 -20 774 -30 c 0,63,64
 785 -37 785 -37 789 -50.5 c 128,-1,65
 793 -64 793 -64 793 -100 c 0,66,67
 793 -141 793 -141 789.5 -151 c 128,-1,68
 786 -161 786 -161 769 -166 c 0,69,70
 742 -172 742 -172 734 -165 c 0,71,72
 722 -158 722 -158 723 -95 c 128,-1,73
 724 -32 724 -32 736 -27 c 0,59,60
EndSplineSet
Validated: 33
EndChar

StartChar: uniE02C
Encoding: 292 57388 36
Width: 547
GlyphClass: 1
Flags: W
LayerCount: 2
Fore
SplineSet
143 703 m 0,0,1
 181 731 181 731 213.5 750.5 c 128,-1,2
 246 770 246 770 255 770 c 0,3,4
 277 770 277 770 390 704 c 0,5,6
 452 668 452 668 477 648.5 c 128,-1,7
 502 629 502 629 502 619 c 0,8,9
 502 589 502 589 470 598 c 0,10,11
 442 606 442 606 372 649 c 0,12,13
 271 710 271 710 258 710 c 256,14,15
 245 710 245 710 161 645 c 0,16,17
 100 597 100 597 78 586 c 128,-1,18
 56 575 56 575 47 590 c 0,19,20
 38 607 38 607 58 630.5 c 128,-1,21
 78 654 78 654 143 703 c 0,0,1
129 375 m 0,22,23
 135 520 135 520 142 533 c 0,24,25
 146 540 146 540 157 540 c 0,26,27
 173 540 173 540 177.5 527 c 128,-1,28
 182 514 182 514 185 458 c 0,29,30
 192 378 192 378 192 180 c 256,31,32
 192 -18 192 -18 185 -97 c 0,33,34
 182 -154 182 -154 177.5 -167 c 128,-1,35
 173 -180 173 -180 157 -180 c 256,36,37
 141 -180 141 -180 137.5 -155 c 128,-1,38
 134 -130 134 -130 130 13 c 0,39,40
 129 14 129 14 129 15 c 0,41,42
 122 210 122 210 129 375 c 0,22,23
247 527 m 0,43,44
 249 532 249 532 256 536 c 128,-1,45
 263 540 263 540 271 540 c 0,46,47
 285 540 285 540 288 514.5 c 128,-1,48
 291 489 291 489 294 363 c 0,49,50
 297 158 297 158 293 2 c 0,51,52
 291 -159 291 -159 283 -173 c 0,53,54
 280 -180 280 -180 268 -178 c 0,55,56
 253 -176 253 -176 250 -132 c 128,-1,57
 247 -88 247 -88 244 170 c 0,58,59
 243 517 243 517 247 527 c 0,43,44
354 183 m 1,60,-1
 352 540 l 1,61,-1
 377 540 l 1,62,-1
 402 540 l 1,63,-1
 402 179 l 1,64,-1
 402 -181 l 1,65,-1
 380 -178 l 1,66,-1
 357 -175 l 1,67,-1
 354 183 l 1,60,-1
EndSplineSet
Validated: 33
EndChar

StartChar: uniE02D
Encoding: 293 57389 37
Width: 753
GlyphClass: 1
Flags: W
LayerCount: 2
Fore
SplineSet
582 754 m 0,0,1
 589 770 589 770 602 770 c 0,2,3
 617 770 617 770 663.5 720 c 128,-1,4
 710 670 710 670 707 657 c 0,5,6
 704 643 704 643 603.5 549 c 128,-1,7
 503 455 503 455 454 419 c 2,8,-1
 409 387 l 1,9,-1
 409 109 l 2,10,11
 409 -97 409 -97 406.5 -134 c 128,-1,12
 404 -171 404 -171 388 -175 c 0,13,14
 367 -182 367 -182 358 -173 c 256,15,16
 349 -164 349 -164 351 296 c 2,17,-1
 354 755 l 1,18,-1
 379 755 l 1,19,-1
 404 755 l 1,20,-1
 407 620 l 2,21,22
 408 566 408 566 411.5 523 c 128,-1,23
 415 480 415 480 419 476 c 0,24,25
 428 467 428 467 463.5 499.5 c 128,-1,26
 499 532 499 532 499 549 c 0,27,28
 499 563 499 563 472 592 c 0,29,30
 456 609 456 609 453.5 617 c 128,-1,31
 451 625 451 625 459 635 c 0,32,33
 468 646 468 646 476 642.5 c 128,-1,34
 484 639 484 639 509 615 c 0,35,36
 538 586 538 586 552 582 c 128,-1,37
 566 578 566 578 573 595 c 0,38,39
 579 611 579 611 544 646 c 0,40,41
 515 675 515 675 511.5 686 c 128,-1,42
 508 697 508 697 524 710 c 0,43,44
 534 718 534 718 543 713 c 128,-1,45
 552 708 552 708 572 686 c 0,46,47
 610 646 610 646 631 650 c 0,48,49
 639 652 639 652 639 662 c 0,50,51
 639 675 639 675 608 706 c 0,52,53
 576 738 576 738 582 754 c 0,0,1
81 748 m 0,54,55
 94 761 94 761 111 759.5 c 128,-1,56
 128 758 128 758 133 744 c 0,57,58
 140 725 140 725 138.5 284 c 128,-1,59
 137 -157 137 -157 130 -168 c 0,60,61
 121 -182 121 -182 103 -178 c 0,62,63
 96 -177 96 -177 92.5 -172 c 128,-1,64
 89 -167 89 -167 86 -146.5 c 128,-1,65
 83 -126 83 -126 81.5 -93 c 128,-1,66
 80 -60 80 -60 78 5 c 0,67,68
 69 256 69 256 70 497 c 128,-1,69
 71 738 71 738 81 748 c 0,54,55
215 745 m 0,70,71
 222 761 222 761 243 758 c 0,72,73
 258 756 258 756 261.5 725.5 c 128,-1,74
 265 695 265 695 269 535 c 0,75,76
 275 266 275 266 270 47 c 128,-1,77
 265 -172 265 -172 253 -177 c 0,78,79
 238 -183 238 -183 224 -170 c 0,80,81
 214 -162 214 -162 211.5 -81 c 128,-1,82
 209 0 209 0 209 285 c 0,83,84
 209 727 209 727 215 745 c 0,70,71
EndSplineSet
Validated: 33
EndChar

StartChar: uniE02E
Encoding: 294 57390 38
Width: 806
GlyphClass: 1
Flags: W
LayerCount: 2
Fore
SplineSet
500 761 m 0,0,1
 517 780 517 780 533 778 c 0,2,3
 546 775 546 775 547.5 752 c 128,-1,4
 549 729 549 729 539 673 c 0,5,6
 531 628 531 628 545 630 c 0,7,8
 560 633 560 633 588 685 c 0,9,10
 616 740 616 740 636 740 c 0,11,12
 651 740 651 740 656.5 731.5 c 128,-1,13
 662 723 662 723 658 707 c 128,-1,14
 654 691 654 691 640 670 c 0,15,16
 603 614 603 614 619 609 c 0,17,18
 637 604 637 604 688 663 c 0,19,20
 720 700 720 700 729 705 c 128,-1,21
 738 710 738 710 748 697 c 0,22,23
 761 680 761 680 757 663.5 c 128,-1,24
 753 647 753 647 730 621 c 128,-1,25
 707 595 707 595 662 567.5 c 128,-1,26
 617 540 617 540 597 540 c 0,27,28
 575 540 575 540 491 459 c 2,29,-1
 409 379 l 1,30,-1
 404 97 l 1,31,-1
 399 -185 l 1,32,-1
 374 -185 l 2,33,34
 355 -185 355 -185 351.5 -172 c 128,-1,35
 348 -159 348 -159 343 -85 c 0,36,37
 336 19 336 19 335.5 259.5 c 128,-1,38
 335 500 335 500 341 623 c 2,39,-1
 347 760 l 1,40,-1
 376 760 l 2,41,42
 397 760 397 760 400 754 c 0,43,44
 407 744 407 744 405 639 c 0,45,46
 404 618 404 618 404 608 c 0,47,48
 402 494 402 494 413 483 c 0,49,50
 422 473 422 473 457 508 c 0,51,52
 460 511 460 511 463 514 c 0,53,54
 489 541 489 541 492 559 c 128,-1,55
 495 577 495 577 488 663 c 0,56,57
 484 713 484 713 486 730 c 128,-1,58
 488 747 488 747 500 761 c 0,0,1
74 291 m 2,59,-1
 74 761 l 1,60,-1
 102 758 l 1,61,-1
 129 755 l 1,62,-1
 132 291 l 2,63,64
 134 -174 134 -174 125 -183 c 128,-1,65
 116 -192 116 -192 95 -185 c 0,66,67
 79 -181 79 -181 76.5 -120.5 c 128,-1,68
 74 -60 74 -60 74 291 c 2,59,-1
204 290 m 2,69,-1
 204 760 l 1,70,-1
 228 760 l 2,71,72
 245 760 245 760 250 750 c 128,-1,73
 255 740 255 740 260 693 c 0,74,75
 268 619 268 619 261.5 223 c 128,-1,76
 255 -173 255 -173 245 -183 c 128,-1,77
 235 -193 235 -193 220 -187 c 0,78,79
 209 -182 209 -182 206.5 -102 c 128,-1,80
 204 -22 204 -22 204 290 c 2,69,-1
EndSplineSet
Validated: 33
EndChar

StartChar: uniE02F
Encoding: 295 57391 39
Width: 853
GlyphClass: 1
Flags: W
LayerCount: 2
Fore
SplineSet
193 758 m 0,0,1
 217 784 217 784 239 779 c 0,2,3
 250 777 250 777 250 766 c 0,4,5
 250 753 250 753 215 694 c 0,6,7
 181 637 181 637 150.5 542 c 128,-1,8
 120 447 120 447 109 361 c 0,9,10
 96 254 96 254 111 179 c 128,-1,11
 126 104 126 104 186 -19 c 0,12,13
 247 -143 247 -143 240 -162 c 0,14,15
 236 -172 236 -172 214 -168 c 0,16,17
 196 -165 196 -165 152.5 -83.5 c 128,-1,18
 109 -2 109 -2 85 74 c 0,19,20
 69 124 69 124 64 160.5 c 128,-1,21
 59 197 59 197 59 266 c 0,22,23
 59 370 59 370 69 442 c 0,24,25
 83 526 83 526 121 623.5 c 128,-1,26
 159 721 159 721 193 758 c 0,0,1
610 761 m 0,27,28
 610 787 610 787 633 777 c 0,29,30
 644 772 644 772 658 758 c 0,31,32
 681 733 681 733 716.5 653 c 128,-1,33
 752 573 752 573 770 506 c 0,34,35
 792 421 792 421 791.5 285 c 128,-1,36
 791 149 791 149 769 80 c 0,37,38
 746 9 746 9 699.5 -78 c 128,-1,39
 653 -165 653 -165 636 -168 c 0,40,41
 609 -173 609 -173 610 -152 c 0,42,43
 611 -129 611 -129 645 -66 c 0,44,45
 718 69 718 69 738 171 c 128,-1,46
 758 273 758 273 736 399 c 0,47,48
 702 591 702 591 640 693 c 0,49,50
 610 741 610 741 610 761 c 0,27,28
275 707 m 0,51,52
 279 720 279 720 298 720 c 0,53,54
 312 720 312 720 315.5 688.5 c 128,-1,55
 319 657 319 657 322 510 c 0,56,57
 327 299 327 299 322 89 c 0,58,59
 318 -96 318 -96 311 -112 c 0,60,61
 308 -120 308 -120 296 -118 c 0,62,63
 280 -116 280 -116 277 -64.5 c 128,-1,64
 274 -13 274 -13 272 290 c 0,65,66
 270 697 270 697 275 707 c 0,51,52
406 659 m 0,67,68
 410 701 410 701 415 710.5 c 128,-1,69
 420 720 420 720 434 718 c 0,70,71
 450 716 450 716 452.5 663.5 c 128,-1,72
 455 611 455 611 455 300 c 128,-1,73
 455 -11 455 -11 452.5 -63.5 c 128,-1,74
 450 -116 450 -116 434 -118 c 0,75,76
 420 -120 420 -120 415 -110.5 c 128,-1,77
 410 -101 410 -101 406 -59 c 0,78,79
 400 1 400 1 400 300 c 128,-1,80
 400 599 400 599 406 659 c 0,67,68
547 714 m 0,81,82
 558 725 558 725 572 715 c 128,-1,83
 586 705 586 705 593 681 c 0,84,85
 602 640 602 640 598 274 c 0,86,87
 595 -53 595 -53 586 -96 c 0,88,89
 580 -120 580 -120 568 -120 c 0,90,91
 563 -120 563 -120 556 -117 c 0,92,93
 545 -112 545 -112 542.5 -42 c 128,-1,94
 540 28 540 28 540 298 c 0,95,96
 540 707 540 707 547 714 c 0,81,82
EndSplineSet
Validated: 33
EndChar

StartChar: uniE030
Encoding: 296 57392 40
Width: 1079
GlyphClass: 1
Flags: W
LayerCount: 2
Fore
SplineSet
191 768 m 0,0,1
 211 792 211 792 232 757 c 0,2,3
 239 747 239 747 229 720 c 128,-1,4
 219 693 219 693 183 624 c 2,5,-1
 123 507 l 1,6,-1
 124 341 l 2,7,8
 124 200 124 200 137.5 132 c 128,-1,9
 151 64 151 64 194 -20 c 0,10,11
 246 -120 246 -120 204 -120 c 0,12,13
 180 -120 180 -120 151.5 -74 c 128,-1,14
 123 -28 123 -28 96 54 c 0,15,16
 74 119 74 119 64 278.5 c 128,-1,17
 54 438 54 438 67 503 c 0,18,19
 76 543 76 543 121 640.5 c 128,-1,20
 166 738 166 738 191 768 c 0,0,1
838 764 m 0,21,22
 838 778 838 778 855.5 779.5 c 128,-1,23
 873 781 873 781 889 768 c 0,24,25
 909 752 909 752 926 718.5 c 128,-1,26
 943 685 943 685 967 617 c 0,27,28
 1019 470 1019 470 1018.5 293.5 c 128,-1,29
 1018 117 1018 117 965 14 c 0,30,31
 935 -44 935 -44 905 -82 c 128,-1,32
 875 -120 875 -120 858 -120 c 0,33,34
 830 -120 830 -120 836 -94 c 0,35,36
 841 -71 841 -71 878 -10 c 0,37,38
 929 74 929 74 944 124 c 0,39,40
 961 178 961 178 965 263.5 c 128,-1,41
 969 349 969 349 958 416 c 0,42,43
 948 484 948 484 918.5 573 c 128,-1,44
 889 662 889 662 863 706 c 0,45,46
 838 747 838 747 838 764 c 0,21,22
308 740 m 0,47,48
 336 758 336 758 346 730 c 0,49,50
 356 698 356 698 357 554 c 0,51,52
 358 483 358 483 357 446.5 c 128,-1,53
 356 410 356 410 352 386 c 128,-1,54
 348 362 348 362 341.5 356 c 128,-1,55
 335 350 335 350 322 350 c 256,56,57
 309 350 309 350 302.5 357 c 128,-1,58
 296 364 296 364 292 386 c 128,-1,59
 288 408 288 408 288.5 451 c 128,-1,60
 289 494 289 494 290 566 c 0,61,62
 292 664 292 664 296 699.5 c 128,-1,63
 300 735 300 735 308 740 c 0,47,48
453 738 m 0,64,65
 456 743 456 743 463.5 746 c 128,-1,66
 471 749 471 749 480 748 c 0,67,68
 497 746 497 746 500 721 c 128,-1,69
 503 696 503 696 503 550 c 2,70,-1
 503 355 l 1,71,-1
 478 355 l 1,72,-1
 453 355 l 1,73,-1
 450 540 l 2,74,75
 448 725 448 725 453 738 c 0,64,65
610 742 m 0,76,77
 624 750 624 750 628 750 c 0,78,79
 639 750 639 750 644 743.5 c 128,-1,80
 649 737 649 737 653 716 c 128,-1,81
 657 695 657 695 656.5 654 c 128,-1,82
 656 613 656 613 656 544 c 2,83,-1
 653 355 l 1,84,-1
 628 355 l 1,85,-1
 603 355 l 1,86,-1
 600 544 l 2,87,88
 598 732 598 732 610 742 c 0,76,77
758 731 m 0,89,90
 775 762 775 762 796 737 c 0,91,92
 802 730 802 730 807.5 575.5 c 128,-1,93
 813 421 813 421 809 363 c 0,94,95
 808 358 808 358 801 354 c 128,-1,96
 794 350 794 350 784 350 c 0,97,98
 771 350 771 350 764.5 356.5 c 128,-1,99
 758 363 758 363 754 381 c 0,100,101
 747 420 747 420 748.5 567.5 c 128,-1,102
 750 715 750 715 758 731 c 0,89,90
314 265 m 0,103,104
 354 304 354 304 362 217 c 0,105,106
 368 160 368 160 361 38 c 0,107,108
 355 -72 355 -72 351 -94 c 128,-1,109
 347 -116 347 -116 332 -118 c 128,-1,110
 317 -120 317 -120 313.5 -105 c 128,-1,111
 310 -90 310 -90 305 -14 c 0,112,113
 296 124 296 124 298.5 187.5 c 128,-1,114
 301 251 301 251 314 265 c 0,103,104
465 273 m 0,115,116
 475 283 475 283 487.5 278.5 c 128,-1,117
 500 274 500 274 509 258 c 0,118,119
 520 237 520 237 516.5 69 c 128,-1,120
 513 -99 513 -99 501 -111 c 256,121,122
 489 -123 489 -123 474 -117 c 0,123,124
 464 -113 464 -113 461 -78.5 c 128,-1,125
 458 -44 458 -44 458 78 c 0,126,127
 458 268 458 268 465 273 c 0,115,116
621 273 m 0,128,129
 649 285 649 285 657 265 c 0,130,131
 668 240 668 240 668 79 c 0,132,133
 668 -28 668 -28 665 -65 c 128,-1,134
 662 -102 662 -102 653 -110 c 0,135,136
 647 -115 647 -115 638 -117 c 128,-1,137
 629 -119 629 -119 623 -116 c 0,138,139
 614 -113 614 -113 611 -77.5 c 128,-1,140
 608 -42 608 -42 608 79 c 0,141,142
 608 186 608 186 611 228.5 c 128,-1,143
 614 271 614 271 621 273 c 0,128,129
EndSplineSet
Validated: 33
EndChar

StartChar: uniE031
Encoding: 297 57393 41
Width: 1047
GlyphClass: 1
Flags: W
LayerCount: 2
Fore
SplineSet
184 733 m 0,0,1
 223 773 223 773 242.5 786.5 c 128,-1,2
 262 800 262 800 275 798 c 0,3,4
 313 793 313 793 292 758 c 0,5,6
 279 738 279 738 244 701 c 0,7,8
 166 618 166 618 138.5 540 c 128,-1,9
 111 462 111 462 117 340 c 0,10,11
 123 233 123 233 145 171.5 c 128,-1,12
 167 110 167 110 212 69 c 0,13,14
 241 44 241 44 247.5 33.5 c 128,-1,15
 254 23 254 23 248 12 c 0,16,17
 223 -27 223 -27 171 13 c 0,18,19
 109 61 109 61 80 172.5 c 128,-1,20
 51 284 51 284 63 432 c 0,21,22
 72 548 72 548 96 607.5 c 128,-1,23
 120 667 120 667 184 733 c 0,0,1
744 776 m 0,24,25
 744 817 744 817 791 789 c 0,26,27
 846 756 846 756 904 670 c 0,28,29
 922 644 922 644 936 617 c 2,30,-1
 979 535 l 1,31,-1
 982 387 l 2,32,33
 986 241 986 241 968 173 c 128,-1,34
 950 105 950 105 890 44 c 0,35,36
 838 -10 838 -10 811 -10 c 0,37,38
 759 -10 759 -10 791 36 c 0,39,40
 805 54 805 54 832 82 c 0,41,42
 893 142 893 142 909 189 c 0,43,44
 926 237 926 237 931.5 329 c 128,-1,45
 937 421 937 421 925 465 c 0,46,47
 911 525 911 525 875 590.5 c 128,-1,48
 839 656 839 656 797 699 c 0,49,50
 744 752 744 752 744 776 c 0,24,25
291 494 m 0,51,52
 297 500 297 500 314 498 c 0,53,54
 323 496 323 496 327.5 471 c 128,-1,55
 332 446 332 446 336 370 c 0,56,57
 343 239 343 239 325 224 c 0,58,59
 316 217 316 217 300 223 c 0,60,61
 291 227 291 227 287.5 252.5 c 128,-1,62
 284 278 284 278 284 358 c 0,63,64
 284 487 284 487 291 494 c 0,51,52
184 465 m 0,65,66
 195 491 195 491 212 488 c 0,67,68
 224 486 224 486 227 464 c 128,-1,69
 230 442 230 442 232 357 c 0,70,71
 234 277 234 277 231.5 252.5 c 128,-1,72
 229 228 229 228 219 224 c 0,73,74
 207 220 207 220 198 222 c 128,-1,75
 189 224 189 224 184 238.5 c 128,-1,76
 179 253 179 253 176.5 277.5 c 128,-1,77
 174 302 174 302 174 341 c 0,78,79
 174 437 174 437 184 465 c 0,65,66
401 483 m 0,80,81
 405 490 405 490 425 490 c 0,82,83
 439 490 439 490 441.5 470 c 128,-1,84
 444 450 444 450 444 355 c 0,85,86
 444 259 444 259 441.5 239.5 c 128,-1,87
 439 220 439 220 424 220 c 0,88,89
 399 220 399 220 391.5 251 c 128,-1,90
 384 282 384 282 390 368 c 0,91,92
 396 468 396 468 401 483 c 0,80,81
506 478 m 0,93,94
 518 490 518 490 534 488 c 0,95,96
 545 486 545 486 551 421.5 c 128,-1,97
 557 357 557 357 553.5 292.5 c 128,-1,98
 550 228 550 228 539 224 c 0,99,100
 533 221 533 221 524.5 223 c 128,-1,101
 516 225 516 225 509 230 c 0,102,103
 495 242 495 242 493.5 353 c 128,-1,104
 492 464 492 464 506 478 c 0,93,94
615 476 m 256,105,106
 627 490 627 490 639.5 489.5 c 128,-1,107
 652 489 652 489 658 474 c 0,108,109
 665 456 665 456 664 349.5 c 128,-1,110
 663 243 663 243 655 232 c 0,111,112
 647 218 647 218 628 222 c 0,113,114
 616 224 616 224 612.5 244 c 128,-1,115
 609 264 609 264 606 344 c 0,116,117
 603 462 603 462 615 476 c 256,105,106
719 468 m 0,118,119
 722 478 722 478 728.5 484 c 128,-1,120
 735 490 735 490 743 490 c 0,121,122
 762 490 762 490 768 468 c 0,123,124
 774 445 774 445 774 369 c 128,-1,125
 774 293 774 293 767 257 c 0,126,127
 764 233 764 233 759 226.5 c 128,-1,128
 754 220 754 220 740 222 c 256,129,130
 726 224 726 224 722.5 240.5 c 128,-1,131
 719 257 719 257 716 335 c 0,132,133
 713 440 713 440 719 468 c 0,118,119
830 475 m 0,134,135
 834 482 834 482 840.5 485.5 c 128,-1,136
 847 489 847 489 853 488 c 0,137,138
 864 486 864 486 867 463 c 128,-1,139
 870 440 870 440 872 357 c 0,140,141
 874 275 874 275 871.5 251.5 c 128,-1,142
 869 228 869 228 858 223 c 0,143,144
 842 217 842 217 833 231 c 0,145,146
 826 243 826 243 825 349.5 c 128,-1,147
 824 456 824 456 830 475 c 0,134,135
EndSplineSet
Validated: 33
EndChar

StartChar: uniE032
Encoding: 298 57394 42
Width: 1064
GlyphClass: 1
Flags: W
LayerCount: 2
Fore
SplineSet
161 758 m 0,0,1
 172 775 172 775 186.5 779 c 128,-1,2
 201 783 201 783 209 771 c 0,3,4
 214 762 214 762 171 669 c 0,5,6
 114 550 114 550 106.5 454.5 c 128,-1,7
 99 359 99 359 140 279 c 0,8,9
 163 231 163 231 184 200.5 c 128,-1,10
 205 170 205 170 214 170 c 0,11,12
 222 170 222 170 230 458 c 0,13,14
 237 745 237 745 241 749 c 0,15,16
 244 752 244 752 260 747 c 0,17,18
 269 742 269 742 272 690 c 128,-1,19
 275 638 275 638 275 447 c 2,20,-1
 275 154 l 1,21,-1
 245 132 l 2,22,23
 215 110 215 110 206 110 c 0,24,25
 194 110 194 110 156.5 157 c 128,-1,26
 119 204 119 204 99 245 c 0,27,28
 54 337 54 337 57 443 c 128,-1,29
 60 549 60 549 110 657 c 0,30,31
 144 731 144 731 161 758 c 0,0,1
855 765 m 0,32,33
 855 788 855 788 877 777 c 0,34,35
 892 769 892 769 909 748 c 0,36,37
 979 653 979 653 998.5 505.5 c 128,-1,38
 1018 358 1018 358 973 263 c 0,39,40
 946 210 946 210 909 160 c 128,-1,41
 872 110 872 110 859 110 c 0,42,43
 844 110 844 110 815 132 c 2,44,-1
 785 154 l 1,45,-1
 785 452 l 2,46,47
 785 672 785 672 787.5 711 c 128,-1,48
 790 750 790 750 805 750 c 0,49,50
 819 750 819 750 822 723.5 c 128,-1,51
 825 697 825 697 825 562 c 0,52,53
 825 369 825 369 832 266 c 2,54,-1
 838 159 l 1,55,-1
 862 182 l 2,56,57
 871 191 871 191 888.5 218.5 c 128,-1,58
 906 246 906 246 921 275 c 0,59,60
 943 320 943 320 949.5 345.5 c 128,-1,61
 956 371 956 371 956 415 c 0,62,63
 957 546 957 546 889 681 c 0,64,65
 855 749 855 749 855 765 c 0,32,33
332 754 m 0,66,67
 346 769 346 769 352 741 c 0,68,69
 360 701 360 701 363 447 c 0,70,71
 364 219 364 219 361.5 179.5 c 128,-1,72
 359 140 359 140 344.5 140 c 128,-1,73
 330 140 330 140 327.5 179.5 c 128,-1,74
 325 219 325 219 325 443 c 0,75,76
 325 747 325 747 332 754 c 0,66,67
420 748 m 0,77,78
 425 762 425 762 438 758 c 0,79,80
 450 752 450 752 453 446 c 0,81,82
 454 170 454 170 447 149 c 0,83,84
 445 141 445 141 438 142 c 0,85,86
 425 144 425 144 422 188.5 c 128,-1,87
 419 233 419 233 417 440 c 0,88,89
 415 737 415 737 420 748 c 0,77,78
510 748 m 0,90,91
 515 762 515 762 528 758 c 0,92,93
 540 752 540 752 543 446 c 0,94,95
 544 170 544 170 537 149 c 0,96,97
 535 141 535 141 528 142 c 0,98,99
 515 144 515 144 512 188.5 c 128,-1,100
 509 233 509 233 507 440 c 0,101,102
 505 737 505 737 510 748 c 0,90,91
601 723 m 0,103,104
 608 760 608 760 620 760 c 256,105,106
 632 760 632 760 638 584 c 0,107,108
 644 415 644 415 638 277.5 c 128,-1,109
 632 140 632 140 620 140 c 256,110,111
 608 140 608 140 601 171 c 0,112,113
 595 202 595 202 595 444 c 128,-1,114
 595 686 595 686 601 723 c 0,103,104
693 593 m 0,115,116
 697 760 697 760 710 760 c 0,117,118
 722 760 722 760 729 582 c 0,119,120
 732 468 732 468 731 370 c 128,-1,121
 730 272 730 272 724 206 c 128,-1,122
 718 140 718 140 710 140 c 256,123,124
 702 140 702 140 697 203 c 128,-1,125
 692 266 692 266 691 366.5 c 128,-1,126
 690 467 690 467 693 593 c 0,115,116
EndSplineSet
Validated: 33
EndChar

StartChar: uniE033
Encoding: 299 57395 43
Width: 1045
GlyphClass: 1
Flags: W
LayerCount: 2
Fore
SplineSet
88 763 m 0,0,1
 123 770 123 770 531.5 768.5 c 128,-1,2
 940 767 940 767 959 760 c 2,3,-1
 985 750 l 1,4,-1
 982 613 l 1,5,-1
 979 475 l 1,6,-1
 952 472 l 1,7,-1
 924 469 l 1,8,-1
 924 583 l 1,9,-1
 924 697 l 1,10,-1
 827 703 l 2,11,12
 732 710 732 710 524 710 c 0,13,14
 314 710 314 710 222 703 c 2,15,-1
 124 697 l 1,16,-1
 124 594 l 2,17,18
 124 533 124 533 120.5 509 c 128,-1,19
 117 485 117 485 108 476 c 0,20,21
 94 461 94 461 85 460.5 c 128,-1,22
 76 460 76 460 65 474 c 0,23,24
 53 489 53 489 60 623 c 0,25,26
 65 720 65 720 69 740 c 128,-1,27
 73 760 73 760 88 763 c 0,0,1
351 633 m 0,28,29
 354 640 354 640 372 640 c 0,30,31
 388 640 388 640 395 635.5 c 128,-1,32
 402 631 402 631 407.5 616 c 128,-1,33
 413 601 413 601 412 571 c 128,-1,34
 411 541 411 541 412 489 c 2,35,36
 412 489 412 489 412 488 c 0,37,38
 409 390 409 390 406 372 c 128,-1,39
 403 354 403 354 386 352 c 0,40,41
 366 349 366 349 357 352.5 c 128,-1,42
 348 356 348 356 342 371.5 c 128,-1,43
 336 387 336 387 337 417.5 c 128,-1,44
 338 448 338 448 340 499 c 0,45,46
 345 624 345 624 351 633 c 0,28,29
504 614 m 0,47,48
 511 633 511 633 523 637.5 c 128,-1,49
 535 642 535 642 558 634 c 0,50,51
 568 630 568 630 571 605 c 128,-1,52
 574 580 574 580 574 495 c 0,53,54
 574 401 574 401 571 380 c 128,-1,55
 568 359 568 359 554 355 c 0,56,57
 534 350 534 350 514 355 c 0,58,59
 500 360 500 360 497 378.5 c 128,-1,60
 494 397 494 397 494 475 c 0,61,62
 494 591 494 591 504 614 c 0,47,48
672 629 m 0,63,64
 689 640 689 640 696.5 639 c 128,-1,65
 704 638 704 638 718 624 c 0,66,67
 727 615 727 615 730.5 587 c 128,-1,68
 734 559 734 559 734 484 c 0,69,70
 734 391 734 391 730.5 374.5 c 128,-1,71
 727 358 727 358 709 354 c 0,72,73
 670 344 670 344 662 364 c 128,-1,74
 654 384 654 384 654 489 c 0,75,76
 654 574 654 574 657 598 c 128,-1,77
 660 622 660 622 672 629 c 0,63,64
184 495 m 2,78,-1
 184 630 l 1,79,-1
 218 630 l 1,80,-1
 251 630 l 1,81,-1
 257 545 l 2,82,83
 262 475 262 475 257.5 418 c 128,-1,84
 253 361 253 361 242 354 c 0,85,86
 233 349 233 349 208 354 c 0,87,88
 190 358 190 358 187 376 c 128,-1,89
 184 394 184 394 184 495 c 2,78,-1
806 493 m 1,90,-1
 803 631 l 1,91,-1
 836 628 l 1,92,-1
 869 625 l 1,93,-1
 869 490 l 1,94,-1
 869 355 l 1,95,-1
 839 355 l 1,96,-1
 809 355 l 1,97,-1
 806 493 l 1,90,-1
191 284 m 0,98,99
 198 292 198 292 224 288 c 0,100,101
 241 286 241 286 245.5 275.5 c 128,-1,102
 250 265 250 265 255 220 c 0,103,104
 261 148 261 148 256 68 c 2,105,-1
 251 -20 l 1,106,-1
 218 -20 l 1,107,-1
 184 -20 l 1,108,-1
 184 128 l 2,109,110
 184 277 184 277 191 284 c 0,98,99
351 284 m 0,111,112
 358 292 358 292 384 288 c 2,113,-1
 409 285 l 1,114,-1
 412 132 l 1,115,-1
 415 -20 l 1,116,-1
 379 -20 l 1,117,-1
 344 -20 l 1,118,-1
 344 128 l 2,119,120
 344 277 344 277 351 284 c 0,111,112
500 275 m 256,121,122
 506 291 506 291 533 288 c 0,123,124
 550 286 550 286 555.5 277.5 c 128,-1,125
 561 269 561 269 566 240 c 0,126,127
 572 189 572 189 567 87 c 2,128,-1
 561 -20 l 1,129,-1
 534 -20 l 2,130,131
 516 -20 516 -20 509.5 -14 c 128,-1,132
 503 -8 503 -8 500 11 c 0,133,134
 494 42 494 42 494 150.5 c 128,-1,135
 494 259 494 259 500 275 c 256,121,122
659 278 m 256,136,137
 664 291 664 291 691 288 c 2,138,-1
 719 285 l 1,139,-1
 722 132 l 1,140,-1
 725 -21 l 1,141,-1
 692 -18 l 1,142,-1
 659 -15 l 1,143,-1
 656 125 l 2,144,145
 654 265 654 265 659 278 c 256,136,137
EndSplineSet
Validated: 33
EndChar

StartChar: uniE037
Encoding: 300 57399 44
Width: 702
GlyphClass: 1
Flags: W
LayerCount: 2
Fore
SplineSet
83 762 m 0,0,1
 104 775 104 775 110.5 753.5 c 128,-1,2
 117 732 117 732 119 641 c 2,3,-1
 122 519 l 1,4,-1
 99 522 l 2,5,6
 82 524 82 524 78.5 540.5 c 128,-1,7
 75 557 75 557 73 639 c 0,8,9
 70 754 70 754 83 762 c 0,0,1
227 755 m 0,10,11
 234 771 234 771 255 768 c 0,12,13
 270 766 270 766 273 748.5 c 128,-1,14
 276 731 276 731 276 645 c 0,15,16
 276 564 276 564 273 544 c 128,-1,17
 270 524 270 524 257 522 c 0,18,19
 239 518 239 518 230 532 c 0,20,21
 223 543 223 543 221.5 639.5 c 128,-1,22
 220 736 220 736 227 755 c 0,10,11
405 757 m 0,23,24
 410 769 410 769 423.5 769.5 c 128,-1,25
 437 770 437 770 449 758 c 0,26,27
 460 747 460 747 461 647.5 c 128,-1,28
 462 548 462 548 452 532 c 0,29,30
 443 518 443 518 425 522 c 0,31,32
 412 524 412 524 408.5 542.5 c 128,-1,33
 405 561 405 561 403 634 c 0,34,35
 401 744 401 744 405 757 c 0,23,24
583 762 m 0,36,37
 597 770 597 770 601 770 c 0,38,39
 621 770 621 770 626 745 c 128,-1,40
 631 720 631 720 629 639 c 2,41,-1
 626 525 l 1,42,-1
 601 525 l 1,43,-1
 576 525 l 1,44,-1
 573 639 l 2,45,46
 570 754 570 754 583 762 c 0,36,37
84 413 m 0,47,48
 112 425 112 425 121.5 403.5 c 128,-1,49
 131 382 131 382 131 309 c 0,50,51
 131 231 131 231 124.5 210.5 c 128,-1,52
 118 190 118 190 95 190 c 0,53,54
 77 190 77 190 74 204 c 128,-1,55
 71 218 71 218 71 299 c 0,56,57
 71 409 71 409 84 413 c 0,47,48
226 407 m 0,58,59
 231 422 231 422 253 418 c 0,60,61
 270 416 270 416 273 400.5 c 128,-1,62
 276 385 276 385 276 305 c 2,63,-1
 276 195 l 1,64,-1
 251 195 l 2,65,66
 232 195 232 195 228.5 207.5 c 128,-1,67
 225 220 225 220 223 294 c 0,68,69
 221 396 221 396 226 407 c 0,58,59
401 394 m 0,70,71
 406 409 406 409 415 415.5 c 128,-1,72
 424 422 424 422 434 418 c 128,-1,73
 444 414 444 414 451 401 c 0,74,75
 461 382 461 382 461 306 c 128,-1,76
 461 230 461 230 451 205 c 0,77,78
 442 180 442 180 425 182 c 128,-1,79
 408 184 408 184 400 210 c 0,80,81
 392 239 392 239 392.5 306 c 128,-1,82
 393 373 393 373 401 394 c 0,70,71
584 413 m 0,83,84
 598 416 598 416 606.5 419 c 128,-1,85
 615 422 615 422 619.5 407.5 c 128,-1,86
 624 393 624 393 625 372 c 128,-1,87
 626 351 626 351 626 305 c 2,88,-1
 626 195 l 1,89,-1
 599 192 l 1,90,-1
 571 189 l 1,91,-1
 571 299 l 2,92,93
 571 409 571 409 584 413 c 0,83,84
83 72 m 0,94,95
 114 92 114 92 124 55 c 0,96,97
 131 27 131 27 131 -44 c 0,98,99
 131 -125 131 -125 124 -149 c 128,-1,100
 117 -173 117 -173 95 -168 c 0,101,102
 82 -166 82 -166 78.5 -147 c 128,-1,103
 75 -128 75 -128 73 -51 c 0,104,105
 70 64 70 64 83 72 c 0,94,95
232 66 m 0,106,107
 244 80 244 80 260 78 c 0,108,109
 270 76 270 76 273.5 52.5 c 128,-1,110
 277 29 277 29 279 -48 c 2,111,-1
 282 -171 l 1,112,-1
 254 -168 l 1,113,-1
 226 -165 l 1,114,-1
 223 -56 l 2,115,116
 220 53 220 53 232 66 c 0,106,107
408 73 m 0,117,118
 418 84 418 84 431.5 78 c 128,-1,119
 445 72 445 72 452 53 c 0,120,121
 461 28 461 28 459 -69 c 2,122,-1
 456 -165 l 1,123,-1
 429 -168 l 1,124,-1
 401 -171 l 1,125,-1
 401 -52 l 2,126,127
 401 68 401 68 408 73 c 0,117,118
575 67 m 0,128,129
 581 80 581 80 594 80 c 0,130,131
 617 80 617 80 624 53 c 128,-1,132
 631 26 631 26 629 -56 c 128,-1,133
 627 -138 627 -138 623.5 -151.5 c 128,-1,134
 620 -165 620 -165 601 -165 c 128,-1,135
 582 -165 582 -165 578.5 -151.5 c 128,-1,136
 575 -138 575 -138 573 -56 c 0,137,138
 571 54 571 54 575 67 c 0,128,129
EndSplineSet
Validated: 33
EndChar

StartChar: uniE038
Encoding: 301 57400 45
Width: 1116
GlyphClass: 1
Flags: W
LayerCount: 2
Fore
SplineSet
76 773 m 0,0,1
 99 796 99 796 112 754 c 0,2,3
 123 719 123 719 117 659 c 0,4,5
 113 617 113 617 107 607 c 128,-1,6
 101 597 101 597 84 603 c 0,7,8
 69 609 69 609 69 688 c 0,9,10
 69 768 69 768 76 773 c 0,0,1
185 758 m 0,11,12
 192 781 192 781 208 778 c 0,13,14
 218 776 218 776 222 758.5 c 128,-1,15
 226 741 226 741 227 691 c 0,16,17
 230 594 230 594 208 594 c 0,18,19
 202 594 202 594 192 602 c 256,20,21
 182 610 182 610 179.5 668.5 c 128,-1,22
 177 727 177 727 185 758 c 0,11,12
316 773 m 0,23,24
 321 780 321 780 341 780 c 0,25,26
 353 780 353 780 356 766 c 128,-1,27
 359 752 359 752 359 697 c 0,28,29
 359 594 359 594 336 595 c 0,30,31
 330 595 330 595 322 601 c 0,32,33
 312 610 312 610 309 686.5 c 128,-1,34
 306 763 306 763 316 773 c 0,23,24
446 773 m 0,35,36
 451 780 451 780 471 780 c 0,37,38
 484 780 484 780 486.5 766 c 128,-1,39
 489 752 489 752 487 693 c 0,40,41
 485 630 485 630 481.5 617 c 128,-1,42
 478 604 478 604 462 602 c 0,43,44
 445 600 445 600 442 611 c 128,-1,45
 439 622 439 622 439 683 c 0,46,47
 439 768 439 768 446 773 c 0,35,36
625 758 m 0,48,49
 632 781 632 781 648 778 c 0,50,51
 658 776 658 776 662 758.5 c 128,-1,52
 666 741 666 741 667 691 c 0,53,54
 670 592 670 592 650 592 c 0,55,56
 643 592 643 592 634 600 c 0,57,58
 622 610 622 610 619 666.5 c 128,-1,59
 616 723 616 723 625 758 c 0,48,49
739 691 m 0,60,61
 739 757 739 757 742 768.5 c 128,-1,62
 745 780 745 780 762 778 c 0,63,64
 777 776 777 776 781 763 c 128,-1,65
 785 750 785 750 787 694 c 0,66,67
 790 613 790 613 775 601 c 0,68,69
 750 581 750 581 744 613 c 0,70,71
 739 635 739 635 739 691 c 0,60,61
869 690 m 0,72,73
 869 756 869 756 872 768 c 128,-1,74
 875 780 875 780 892 778 c 0,75,76
 907 776 907 776 911 763 c 128,-1,77
 915 750 915 750 917 695 c 0,78,79
 919 595 919 595 897 591 c 0,80,81
 892 590 892 590 885 593 c 0,82,83
 875 597 875 597 872 616 c 128,-1,84
 869 635 869 635 869 690 c 0,72,73
1006 774 m 0,85,86
 1012 780 1012 780 1029 778 c 0,87,88
 1038 776 1038 776 1041 758.5 c 128,-1,89
 1044 741 1044 741 1044 690 c 0,90,91
 1044 629 1044 629 1041 616.5 c 128,-1,92
 1038 604 1038 604 1022 602 c 0,93,94
 1005 600 1005 600 1002 611 c 128,-1,95
 999 622 999 622 999 683 c 0,96,97
 999 767 999 767 1006 774 c 0,85,86
81 518 m 0,98,99
 101 538 101 538 112 498 c 0,100,101
 119 474 119 474 119 436 c 0,102,103
 119 385 119 385 111 365.5 c 128,-1,104
 103 346 103 346 85 353 c 0,105,106
 75 357 75 357 72 373 c 128,-1,107
 69 389 69 389 69 433 c 0,108,109
 69 506 69 506 81 518 c 0,98,99
320 517 m 0,110,111
 332 529 332 529 345 523 c 0,112,113
 360 518 360 518 360 435 c 128,-1,114
 360 352 360 352 345 347 c 0,115,116
 332 341 332 341 320 353 c 0,117,118
 310 364 310 364 310 435 c 128,-1,119
 310 506 310 506 320 517 c 0,110,111
450 517 m 0,120,121
 462 529 462 529 475 523 c 0,122,123
 489 517 489 517 489 435 c 0,124,125
 489 413 489 413 488.5 398 c 128,-1,126
 488 383 488 383 486.5 371.5 c 128,-1,127
 485 360 485 360 482.5 354 c 128,-1,128
 480 348 480 348 476 345 c 128,-1,129
 472 342 472 342 467 342.5 c 128,-1,130
 462 343 462 343 455 346 c 0,131,132
 445 350 445 350 442 366.5 c 128,-1,133
 439 383 439 383 439 429 c 0,134,135
 439 506 439 506 450 517 c 0,120,121
183 507 m 0,136,137
 189 520 189 520 209 520 c 0,138,139
 224 520 224 520 226.5 508 c 128,-1,140
 229 496 229 496 227 438 c 0,141,142
 225 382 225 382 221 368.5 c 128,-1,143
 217 355 217 355 204 355 c 128,-1,144
 191 355 191 355 187 366.5 c 128,-1,145
 183 378 183 378 181 424 c 0,146,147
 177 492 177 492 183 507 c 0,136,137
623 507 m 0,148,149
 629 520 629 520 649 520 c 0,150,151
 664 520 664 520 666.5 507.5 c 128,-1,152
 669 495 669 495 667 433 c 0,153,154
 665 373 665 373 661 359 c 128,-1,155
 657 345 657 345 644 345 c 128,-1,156
 631 345 631 345 627 357 c 128,-1,157
 623 369 623 369 621 419 c 0,158,159
 617 492 617 492 623 507 c 0,148,149
739 436 m 0,160,161
 739 498 739 498 742 509 c 128,-1,162
 745 520 745 520 762 518 c 0,163,164
 777 516 777 516 781 503 c 128,-1,165
 785 490 785 490 787 434 c 0,166,167
 789 383 789 383 786 366.5 c 128,-1,168
 783 350 783 350 773 346 c 0,169,170
 766 343 766 343 761 342.5 c 128,-1,171
 756 342 756 342 752 345 c 128,-1,172
 748 348 748 348 745.5 354.5 c 128,-1,173
 743 361 743 361 741.5 372.5 c 128,-1,174
 740 384 740 384 739.5 399 c 128,-1,175
 739 414 739 414 739 436 c 0,160,161
863 475 m 0,176,177
 868 505 868 505 873 512.5 c 128,-1,178
 878 520 878 520 892 518 c 0,179,180
 907 516 907 516 911 503.5 c 128,-1,181
 915 491 915 491 917 439 c 0,182,183
 920 363 920 363 904 350 c 128,-1,184
 888 337 888 337 878 347 c 0,185,186
 867 358 867 358 862.5 397.5 c 128,-1,187
 858 437 858 437 863 475 c 0,176,177
1006 514 m 0,188,189
 1012 520 1012 520 1029 518 c 0,190,191
 1038 516 1038 516 1041 499.5 c 128,-1,192
 1044 483 1044 483 1044 435 c 0,193,194
 1044 378 1044 378 1041 366 c 128,-1,195
 1038 354 1038 354 1022 352 c 0,196,197
 1005 350 1005 350 1002 360.5 c 128,-1,198
 999 371 999 371 999 428 c 0,199,200
 999 507 999 507 1006 514 c 0,188,189
76 263 m 0,201,202
 100 287 100 287 112 243 c 0,203,204
 122 207 122 207 117 145 c 0,205,206
 113 99 113 99 107 88 c 128,-1,207
 101 77 101 77 84 83 c 0,208,209
 75 87 75 87 72 105 c 128,-1,210
 69 123 69 123 69 173 c 0,211,212
 69 258 69 258 76 263 c 0,201,202
186 264 m 0,213,214
 192 270 192 270 209 268 c 0,215,216
 226 264 226 264 228.5 177 c 128,-1,217
 231 90 231 90 213 83 c 0,218,219
 196 77 196 77 188 91 c 0,220,221
 180 104 180 104 179.5 180 c 128,-1,222
 179 256 179 256 186 264 c 0,213,214
314 257 m 0,223,224
 320 272 320 272 336 268 c 0,225,226
 348 266 348 266 351 250 c 128,-1,227
 354 234 354 234 354 175 c 0,228,229
 354 112 354 112 351 98.5 c 128,-1,230
 348 85 348 85 334 85 c 0,231,232
 321 85 321 85 317 97.5 c 128,-1,233
 313 110 313 110 311 164 c 0,234,235
 307 242 307 242 314 257 c 0,223,224
446 264 m 0,236,237
 452 270 452 270 469 268 c 0,238,239
 486 264 486 264 488.5 177 c 128,-1,240
 491 90 491 90 473 83 c 0,241,242
 456 77 456 77 448 91 c 0,243,244
 440 104 440 104 439.5 180 c 128,-1,245
 439 256 439 256 446 264 c 0,236,237
631 258 m 0,246,247
 654 281 654 281 661 244 c 0,248,249
 665 223 665 223 667 177 c 0,250,251
 669 122 669 122 666 104.5 c 128,-1,252
 663 87 663 87 653 83 c 0,253,254
 636 77 636 77 628 91 c 0,255,256
 618 107 618 107 619.5 177.5 c 128,-1,257
 621 248 621 248 631 258 c 0,246,247
743 257 m 0,258,259
 749 273 749 273 764.5 269.5 c 128,-1,260
 780 266 780 266 784 247 c 0,261,262
 790 221 790 221 787 155 c 0,263,264
 785 108 785 108 781 96.5 c 128,-1,265
 777 85 777 85 764 85 c 128,-1,266
 751 85 751 85 747 97.5 c 128,-1,267
 743 110 743 110 741 164 c 0,268,269
 737 242 737 242 743 257 c 0,258,259
876 263 m 0,270,271
 886 274 886 274 898 269 c 128,-1,272
 910 264 910 264 914 247 c 0,273,274
 920 221 920 221 917 155 c 0,275,276
 915 107 915 107 911 95.5 c 128,-1,277
 907 84 907 84 892 82 c 0,278,279
 875 80 875 80 872 91.5 c 128,-1,280
 869 103 869 103 869 168 c 0,281,282
 869 258 869 258 876 263 c 0,270,271
999 175 m 128,-1,284
 999 238 999 238 1002 249 c 128,-1,285
 1005 260 1005 260 1022 258 c 0,286,287
 1038 256 1038 256 1041 244 c 128,-1,288
 1044 232 1044 232 1044 175 c 128,-1,289
 1044 118 1044 118 1041 106 c 128,-1,290
 1038 94 1038 94 1022 92 c 0,291,292
 1005 90 1005 90 1002 101 c 128,-1,283
 999 112 999 112 999 175 c 128,-1,284
EndSplineSet
Validated: 33
EndChar

StartChar: uniE039
Encoding: 302 57401 46
Width: 1015
GlyphClass: 1
Flags: W
LayerCount: 2
Fore
SplineSet
49 755 m 0,0,1
 62 791 62 791 99 741 c 0,2,3
 145 679 145 679 176 560 c 0,4,5
 189 511 189 511 194.5 458 c 128,-1,6
 200 405 200 405 203 298 c 0,7,8
 206 178 206 178 203 138.5 c 128,-1,9
 200 99 200 99 185 48 c 0,10,11
 158 -41 158 -41 123.5 -110.5 c 128,-1,12
 89 -180 89 -180 73 -180 c 0,13,14
 46 -180 46 -180 51 -149 c 0,15,16
 55 -124 55 -124 83 -63 c 0,17,18
 123 26 123 26 139.5 84.5 c 128,-1,19
 156 143 156 143 161 216 c 0,20,21
 169 317 169 317 143.5 451.5 c 128,-1,22
 118 586 118 586 74 676 c 0,23,24
 42 741 42 741 49 755 c 0,0,1
800 760 m 0,25,26
 818 790 818 790 857 729 c 0,27,28
 897 668 897 668 925 565 c 0,29,30
 937 520 937 520 943 468 c 128,-1,31
 949 416 949 416 952 322 c 0,32,33
 956 182 956 182 946.5 113.5 c 128,-1,34
 937 45 937 45 898 -55 c 0,35,36
 871 -124 871 -124 850.5 -154 c 128,-1,37
 830 -184 830 -184 816 -176 c 0,38,39
 803 -168 803 -168 806 -145.5 c 128,-1,40
 809 -123 809 -123 829 -79 c 0,41,42
 851 -29 851 -29 881 60 c 0,43,44
 900 117 900 117 904.5 151.5 c 128,-1,45
 909 186 909 186 909 270 c 0,46,47
 908 382 908 382 885 495 c 128,-1,48
 862 608 862 608 824 685 c 0,49,50
 793 749 793 749 800 760 c 0,25,26
246 746 m 0,51,52
 256 760 256 760 264.5 760 c 128,-1,53
 273 760 273 760 284 746 c 0,54,55
 296 732 296 732 293 624 c 0,56,57
 290 547 290 547 287 531 c 128,-1,58
 284 515 284 515 270 515 c 0,59,60
 262 515 262 515 258.5 517.5 c 128,-1,61
 255 520 255 520 251.5 532 c 128,-1,62
 248 544 248 544 246.5 563.5 c 128,-1,63
 245 583 245 583 242 623 c 0,64,65
 234 731 234 731 246 746 c 0,51,52
395 741 m 0,66,67
 404 757 404 757 411 759 c 128,-1,68
 418 761 418 761 433 752 c 0,69,70
 445 744 445 744 443 629 c 0,71,72
 441 548 441 548 437.5 531 c 128,-1,73
 434 514 434 514 419 512 c 0,74,75
 398 509 398 509 391 532 c 0,76,77
 383 561 383 561 385 643 c 128,-1,78
 387 725 387 725 395 741 c 0,66,67
565 741 m 0,79,80
 574 757 574 757 581 759 c 128,-1,81
 588 761 588 761 603 752 c 0,82,83
 615 744 615 744 613 629 c 0,84,85
 611 552 611 552 607 533 c 128,-1,86
 603 514 603 514 591 512 c 0,87,88
 572 508 572 508 564 522 c 0,89,90
 555 536 555 536 555.5 629.5 c 128,-1,91
 556 723 556 723 565 741 c 0,79,80
729 737 m 0,92,93
 734 750 734 750 753 750 c 0,94,95
 770 750 770 750 777.5 717 c 128,-1,96
 785 684 785 684 785 605 c 0,97,98
 785 546 785 546 777.5 527 c 128,-1,99
 770 508 770 508 749 512 c 0,100,101
 736 514 736 514 732.5 531.5 c 128,-1,102
 729 549 729 549 727 619 c 0,103,104
 725 724 725 724 729 737 c 0,92,93
250 397 m 0,105,106
 252 403 252 403 258.5 406.5 c 128,-1,107
 265 410 265 410 272 408 c 0,108,109
 284 406 284 406 287 387.5 c 128,-1,110
 290 369 290 369 290 300 c 0,111,112
 290 226 290 226 287 210.5 c 128,-1,113
 284 195 284 195 270 195 c 256,114,115
 256 195 256 195 252.5 210 c 128,-1,116
 249 225 249 225 247 289 c 0,117,118
 245 386 245 386 250 397 c 0,105,106
391 388 m 0,119,120
 397 410 397 410 422 410 c 2,121,-1
 446 410 l 1,122,-1
 443 303 l 2,123,124
 441 227 441 227 437.5 210.5 c 128,-1,125
 434 194 434 194 419 192 c 0,126,127
 398 189 398 189 391 212 c 0,128,129
 385 235 385 235 385 300 c 128,-1,130
 385 365 385 365 391 388 c 0,119,120
560 397 m 0,131,132
 562 403 562 403 570 406 c 128,-1,133
 578 409 578 409 587 408 c 0,134,135
 603 406 603 406 606.5 391 c 128,-1,136
 610 376 610 376 610 300 c 2,137,-1
 610 195 l 1,138,-1
 585 195 l 2,139,140
 566 195 566 195 562.5 207 c 128,-1,141
 559 219 559 219 557 289 c 0,142,143
 555 386 555 386 560 397 c 0,131,132
730 397 m 0,144,145
 732 403 732 403 740 406 c 128,-1,146
 748 409 748 409 757 408 c 0,147,148
 773 406 773 406 776.5 391 c 128,-1,149
 780 376 780 376 780 300 c 2,150,-1
 780 195 l 1,151,-1
 755 195 l 2,152,153
 736 195 736 195 732.5 207 c 128,-1,154
 729 219 729 219 727 289 c 0,155,156
 725 386 725 386 730 397 c 0,144,145
250 70 m 0,157,158
 257 81 257 81 273 78 c 0,159,160
 284 76 284 76 287 55.5 c 128,-1,161
 290 35 290 35 290 -40 c 0,162,163
 290 -123 290 -123 287 -139.5 c 128,-1,164
 284 -156 284 -156 268 -158 c 0,165,166
 255 -160 255 -160 249 -155 c 128,-1,167
 243 -150 243 -150 239 -135 c 0,168,169
 233 -111 233 -111 237.5 -27 c 128,-1,170
 242 57 242 57 250 70 c 0,157,158
391 65 m 0,171,172
 398 81 398 81 419 78 c 0,173,174
 434 76 434 76 437 59 c 128,-1,175
 440 42 440 42 440 -40 c 128,-1,176
 440 -122 440 -122 437 -139 c 128,-1,177
 434 -156 434 -156 419 -158 c 0,178,179
 398 -161 398 -161 391 -138 c 0,180,181
 385 -116 385 -116 385 -33.5 c 128,-1,182
 385 49 385 49 391 65 c 0,171,172
567 68 m 0,183,184
 579 80 579 80 595 78 c 0,185,186
 604 76 604 76 607 53 c 128,-1,187
 610 30 610 30 610 -40 c 0,188,189
 610 -118 610 -118 607 -137 c 128,-1,190
 604 -156 604 -156 591 -158 c 0,191,192
 572 -162 572 -162 564 -148 c 0,193,194
 553 -132 553 -132 554.5 -37.5 c 128,-1,195
 556 57 556 57 567 68 c 0,183,184
730 68 m 0,196,197
 732 73 732 73 740 76 c 128,-1,198
 748 79 748 79 757 78 c 0,199,200
 778 75 778 75 782.5 43.5 c 128,-1,201
 787 12 787 12 780 -78 c 0,202,203
 775 -136 775 -136 771 -148 c 128,-1,204
 767 -160 767 -160 752 -158 c 0,205,206
 736 -156 736 -156 732.5 -140.5 c 128,-1,207
 729 -125 729 -125 727 -51 c 0,208,209
 725 55 725 55 730 68 c 0,196,197
EndSplineSet
Validated: 33
EndChar

StartChar: uniE03A
Encoding: 303 57402 47
Width: 760
GlyphClass: 1
Flags: W
LayerCount: 2
Fore
SplineSet
79 704 m 0,0,1
 82 751 82 751 86.5 765.5 c 128,-1,2
 91 780 91 780 101 778 c 256,3,4
 111 776 111 776 114.5 697 c 128,-1,5
 118 618 118 618 120 297 c 0,6,7
 121 -51 121 -51 119 -115.5 c 128,-1,8
 117 -180 117 -180 104 -180 c 256,9,10
 91 -180 91 -180 87 -165.5 c 128,-1,11
 83 -151 83 -151 79 -97 c 0,12,13
 72 -17 72 -17 72 306.5 c 128,-1,14
 72 630 72 630 79 704 c 0,0,1
269 774 m 0,15,16
 275 780 275 780 292 778 c 0,17,18
 301 776 301 776 304 749 c 128,-1,19
 307 722 307 722 310 627 c 0,20,21
 312 480 312 480 325 479 c 0,22,23
 338 477 338 477 424 475 c 0,24,25
 512 471 512 471 522 465 c 0,26,27
 532 458 532 458 532 315 c 0,28,29
 532 309 532 309 532 297 c 0,30,31
 532 263 532 263 532 248 c 128,-1,32
 532 233 532 233 529.5 212 c 128,-1,33
 527 191 527 191 526 185 c 128,-1,34
 525 179 525 179 517 168.5 c 128,-1,35
 509 158 509 158 504 157 c 128,-1,36
 499 156 499 156 483 152.5 c 128,-1,37
 467 149 467 149 455.5 149.5 c 128,-1,38
 444 150 444 150 417 150 c 0,39,40
 407 150 407 150 402 150 c 2,41,-1
 312 150 l 1,42,-1
 313 -6 l 2,43,44
 313 -69 313 -69 312 -101.5 c 128,-1,45
 311 -134 311 -134 307.5 -155.5 c 128,-1,46
 304 -177 304 -177 296.5 -177.5 c 128,-1,47
 289 -178 289 -178 278 -177 c 0,48,49
 267 -172 267 -172 264.5 -92.5 c 128,-1,50
 262 -13 262 -13 262 298 c 0,51,52
 262 767 262 767 269 774 c 0,15,16
476 404 m 0,53,54
 472 414 472 414 456 417 c 128,-1,55
 440 420 440 420 398 420 c 0,56,57
 324 420 324 420 319 413 c 0,58,59
 312 408 312 408 312 309 c 2,60,-1
 312 212 l 1,61,-1
 340 207 l 2,62,63
 368 202 368 202 417.5 208 c 128,-1,64
 467 214 467 214 473.5 224 c 128,-1,65
 480 234 480 234 481 311 c 128,-1,66
 482 388 482 388 476 404 c 0,53,54
637 758 m 0,67,68
 643 781 643 781 660 778 c 0,69,70
 671 776 671 776 675.5 733 c 128,-1,71
 680 690 680 690 685 520 c 0,72,73
 693 293 693 293 687 42 c 0,74,75
 680 -155 680 -155 673 -172 c 0,76,77
 669 -180 669 -180 658 -178 c 2,78,-1
 637 -175 l 1,79,-1
 634 280 l 2,80,81
 632 737 632 737 637 758 c 0,67,68
EndSplineSet
Validated: 33
EndChar

StartChar: uniE03B
Encoding: 304 57403 48
Width: 687
GlyphClass: 1
Flags: W
LayerCount: 2
Fore
SplineSet
244 725 m 0,0,1
 276 760 276 760 302.5 768 c 128,-1,2
 329 776 329 776 345 756 c 0,3,4
 354 746 354 746 350.5 728 c 128,-1,5
 347 710 347 710 335 710 c 0,6,7
 326 710 326 710 245 635 c 0,8,9
 200 592 200 592 176.5 576 c 128,-1,10
 153 560 153 560 137 560 c 0,11,12
 116 560 116 560 105.5 572.5 c 128,-1,13
 95 585 95 585 102 603 c 0,14,15
 106 614 106 614 155 648 c 0,16,17
 203 680 203 680 244 725 c 0,0,1
474 666 m 0,18,19
 531 721 531 721 556.5 740 c 128,-1,20
 582 759 582 759 596 757 c 0,21,22
 621 756 621 756 624 734 c 0,23,24
 626 723 626 723 604.5 698 c 128,-1,25
 583 673 583 673 529 624 c 0,26,27
 432 534 432 534 418 526 c 0,28,29
 407 519 407 519 391.5 530 c 128,-1,30
 376 541 376 541 376 557 c 0,31,32
 376 563 376 563 405 595 c 128,-1,33
 434 627 434 627 474 666 c 0,18,19
189 462 m 0,34,35
 267 526 267 526 281 496 c 0,36,37
 283 491 283 491 284 483 c 0,38,39
 286 469 286 469 239 416 c 128,-1,40
 192 363 192 363 139 316.5 c 128,-1,41
 86 270 86 270 71 272 c 0,42,43
 24 279 24 279 74 347 c 0,44,45
 111 397 111 397 189 462 c 0,34,35
538 408 m 0,46,47
 600 461 600 461 626 447 c 0,48,49
 641 439 641 439 632 407 c 0,50,51
 626 386 626 386 552.5 328 c 128,-1,52
 479 270 479 270 458 270 c 0,53,54
 439 270 439 270 430 292 c 0,55,56
 427 306 427 306 432 315.5 c 128,-1,57
 437 325 437 325 456 340 c 0,58,59
 500 374 500 374 538 408 c 0,46,47
301 250 m 0,60,61
 318 256 318 256 337 249 c 128,-1,62
 356 242 356 242 356 229 c 0,63,64
 356 215 356 215 299.5 154 c 128,-1,65
 243 93 243 93 216 79 c 0,66,67
 207 73 207 73 154 42 c 0,68,69
 135 30 135 30 128.5 30 c 128,-1,70
 122 30 122 30 110 42 c 256,71,72
 98 54 98 54 98 60 c 128,-1,73
 98 66 98 66 110 84 c 0,74,75
 117 95 117 95 133.5 108.5 c 128,-1,76
 150 122 150 122 165 130 c 0,77,78
 182 138 182 138 204.5 157.5 c 128,-1,79
 227 177 227 177 242 196 c 0,80,81
 282 244 282 244 301 250 c 0,60,61
431 20 m 0,82,83
 458 39 458 39 479.5 37.5 c 128,-1,84
 501 36 501 36 504 14 c 0,85,86
 507 -5 507 -5 484.5 -23.5 c 128,-1,87
 462 -42 462 -42 358 -104 c 0,88,89
 245 -172 245 -172 225 -162 c 0,90,91
 215 -157 215 -157 218 -133 c 0,92,93
 220 -116 220 -116 237.5 -101 c 128,-1,94
 255 -86 255 -86 311 -53 c 0,95,96
 411 5 411 5 431 20 c 0,82,83
EndSplineSet
Validated: 33
EndChar

StartChar: uniE03C
Encoding: 305 57404 49
Width: 384
GlyphClass: 1
Flags: W
LayerCount: 2
Fore
SplineSet
66 757 m 0,0,1
 72 770 72 770 100 770 c 2,2,-1
 130 770 l 1,3,-1
 134 674 l 2,4,5
 138 577 138 577 134 488 c 2,6,-1
 130 399 l 1,7,-1
 98 402 l 1,8,-1
 67 405 l 1,9,-1
 64 575 l 2,10,11
 63 744 63 744 66 757 c 0,0,1
246 756 m 0,12,13
 252 771 252 771 279 768 c 2,14,-1
 307 765 l 1,15,-1
 316 645 l 2,16,17
 327 487 327 487 307 355 c 128,-1,18
 287 223 287 223 243 161 c 0,19,20
 221 129 221 129 170.5 93.5 c 128,-1,21
 120 58 120 58 95 57 c 0,22,23
 78 55 78 55 72 60 c 128,-1,24
 66 65 66 65 64 81 c 0,25,26
 63 96 63 96 70.5 106.5 c 128,-1,27
 78 117 78 117 101 133 c 0,28,29
 168 177 168 177 198.5 231 c 128,-1,30
 229 285 229 285 246 390 c 0,31,32
 257 450 257 450 258 490.5 c 128,-1,33
 259 531 259 531 251 612 c 0,34,35
 240 742 240 742 246 756 c 0,12,13
EndSplineSet
Validated: 33
EndChar

StartChar: uniE03D
Encoding: 306 57405 50
Width: 527
GlyphClass: 1
Flags: W
LayerCount: 2
Fore
SplineSet
289 752 m 0,0,1
 294 761 294 761 318.5 760 c 128,-1,2
 343 759 343 759 348 750 c 0,3,4
 354 740 354 740 227 293 c 128,-1,5
 100 -154 100 -154 89 -162 c 0,6,7
 75 -172 75 -172 61 -166 c 128,-1,8
 47 -160 47 -160 45 -143 c 128,-1,9
 43 -126 43 -126 83 26 c 128,-1,10
 123 178 123 178 168 325 c 0,11,12
 238 550 238 550 275 704 c 0,13,14
 284 744 284 744 289 752 c 0,0,1
275 238 m 128,-1,16
 287 250 287 250 301 250 c 0,17,18
 306 250 306 250 335 199 c 128,-1,19
 364 148 364 148 399 75 c 0,20,21
 422 28 422 28 437.5 -5 c 128,-1,22
 453 -38 453 -38 463.5 -64.5 c 128,-1,23
 474 -91 474 -91 478 -107.5 c 128,-1,24
 482 -124 482 -124 481 -135 c 128,-1,25
 480 -146 480 -146 474.5 -151 c 128,-1,26
 469 -156 469 -156 458 -158 c 0,27,28
 445 -159 445 -159 425.5 -126 c 128,-1,29
 406 -93 406 -93 351 23 c 0,30,31
 263 203 263 203 263 216 c 0,32,15
 263 226 263 226 275 238 c 128,-1,16
EndSplineSet
Validated: 33
EndChar

StartChar: uniE03E
Encoding: 307 57406 51
Width: 530
GlyphClass: 1
Flags: W
LayerCount: 2
Fore
SplineSet
177 748 m 0,0,1
 178 753 178 753 188 756.5 c 128,-1,2
 198 760 198 760 210 760 c 0,3,4
 227 760 227 760 234 754.5 c 128,-1,5
 241 749 241 749 245 733 c 0,6,7
 258 681 258 681 298.5 533.5 c 128,-1,8
 339 386 339 386 358 326 c 0,9,10
 378 262 378 262 439 47 c 0,11,12
 475 -83 475 -83 480.5 -115.5 c 128,-1,13
 486 -148 486 -148 475 -158 c 0,14,15
 455 -179 455 -179 440 -159 c 0,16,17
 419 -130 419 -130 354 97 c 0,18,19
 350 110 350 110 346 126 c 0,20,21
 294 310 294 310 220 570 c 0,22,23
 172 737 172 737 177 748 c 0,0,1
144 113 m 0,24,25
 213 250 213 250 225 250 c 0,26,27
 239 250 239 250 253 234 c 0,28,29
 254 233 254 233 255 232 c 0,30,31
 267 221 267 221 258 196.5 c 128,-1,32
 249 172 249 172 184 38 c 0,33,34
 172 12 172 12 165 -2 c 0,35,36
 121 -92 121 -92 100.5 -126 c 128,-1,37
 80 -160 80 -160 70 -160 c 0,38,39
 35 -160 35 -160 49 -106 c 0,40,41
 64 -49 64 -49 144 113 c 0,24,25
EndSplineSet
Validated: 33
EndChar

StartChar: uniE03F
Encoding: 308 57407 52
Width: 533
GlyphClass: 1
Flags: W
LayerCount: 2
Fore
SplineSet
267 748 m 0,0,1
 274 766 274 766 292.5 769 c 128,-1,2
 311 772 311 772 325 757 c 0,3,4
 335 742 335 742 325 709 c 0,5,6
 282 563 282 563 250 438.5 c 128,-1,7
 218 314 218 314 222 307 c 0,8,9
 240 273 240 273 376 68 c 0,10,11
 457 -55 457 -55 477.5 -103 c 128,-1,12
 498 -151 498 -151 475 -166 c 0,13,14
 462 -173 462 -173 434 -137.5 c 128,-1,15
 406 -102 406 -102 316 35 c 0,16,17
 271 104 271 104 234.5 154.5 c 128,-1,18
 198 205 198 205 193.5 205 c 128,-1,19
 189 205 189 205 172 150 c 128,-1,20
 155 95 155 95 137 20 c 0,21,22
 120 -47 120 -47 111.5 -78.5 c 128,-1,23
 103 -110 103 -110 95 -132.5 c 128,-1,24
 87 -155 87 -155 82.5 -160 c 128,-1,25
 78 -165 78 -165 71 -165 c 0,26,27
 25 -165 25 -165 74 30 c 0,28,29
 109 170 109 170 184 450 c 128,-1,30
 259 730 259 730 267 748 c 0,0,1
EndSplineSet
Validated: 33
EndChar

StartChar: uniE040
Encoding: 309 57408 53
Width: 626
GlyphClass: 1
Flags: W
LayerCount: 2
Fore
SplineSet
47 755 m 0,0,1
 49 761 49 761 57 765.5 c 128,-1,2
 65 770 65 770 73 770 c 0,3,4
 85 770 85 770 112.5 734.5 c 128,-1,5
 140 699 140 699 199 610 c 0,6,7
 305 450 305 450 313 450 c 0,8,9
 315 450 315 450 331 471.5 c 128,-1,10
 347 493 347 493 373.5 530.5 c 128,-1,11
 400 568 400 568 428 611 c 0,12,13
 494 710 494 710 519 740 c 128,-1,14
 544 770 544 770 557 768 c 0,15,16
 566 766 566 766 573 761 c 128,-1,17
 580 756 580 756 581.5 749 c 128,-1,18
 583 742 583 742 548 684 c 128,-1,19
 513 626 513 626 462 549 c 2,20,-1
 340 365 l 1,21,-1
 346 194 l 2,22,23
 353 24 353 24 346 -79 c 2,24,-1
 340 -181 l 1,25,-1
 309 -178 l 1,26,-1
 278 -175 l 1,27,-1
 282 96 l 1,28,-1
 286 368 l 1,29,-1
 171 541 l 2,30,31
 162 554 162 554 147 578 c 0,32,33
 67 699 67 699 54.5 721 c 128,-1,34
 42 743 42 743 46 752 c 0,35,36
 47 754 47 754 47 755 c 0,0,1
EndSplineSet
Validated: 33
EndChar

StartChar: uniE041
Encoding: 310 57409 54
Width: 393
GlyphClass: 1
Flags: W
LayerCount: 2
Fore
SplineSet
75 303 m 1,0,-1
 73 771 l 1,1,-1
 100 768 l 1,2,-1
 128 765 l 1,3,-1
 133 560 l 1,4,-1
 138 356 l 1,5,-1
 241 276 l 2,6,7
 314 219 314 219 328.5 202.5 c 128,-1,8
 343 186 343 186 343 158 c 0,9,10
 343 120 343 120 325 121 c 0,11,12
 302 122 302 122 226 190 c 0,13,14
 147 260 147 260 140 260 c 0,15,16
 131 260 131 260 133 58 c 0,17,18
 135 -152 135 -152 134 -158 c 0,19,20
 132 -171 132 -171 106 -168 c 2,21,-1
 78 -165 l 1,22,-1
 75 303 l 1,0,-1
EndSplineSet
Validated: 33
EndChar

StartChar: uniE042
Encoding: 311 57410 55
Width: 680
GlyphClass: 1
Flags: W
LayerCount: 2
Fore
SplineSet
366 728 m 0,0,1
 377 753 377 753 395.5 759 c 128,-1,2
 414 765 414 765 428 748 c 0,3,4
 438 736 438 736 535 532 c 0,5,6
 576 446 576 446 596.5 400 c 128,-1,7
 617 354 617 354 624.5 323.5 c 128,-1,8
 632 293 632 293 625.5 283.5 c 128,-1,9
 619 274 619 274 600 272 c 0,10,11
 575 269 575 269 564 282 c 0,12,13
 555 294 555 294 491 445 c 0,14,15
 463 510 463 510 449 541.5 c 128,-1,16
 435 573 435 573 424 594.5 c 128,-1,17
 413 616 413 616 409.5 615 c 128,-1,18
 406 614 406 614 400 613 c 0,19,20
 391 605 391 605 345 475 c 0,21,22
 336 450 336 450 266 255 c 0,23,24
 241 189 241 189 187 51 c 0,25,26
 140 -63 140 -63 129 -107 c 0,27,28
 120 -141 120 -141 103.5 -156.5 c 128,-1,29
 87 -172 87 -172 67 -164 c 0,30,31
 38 -152 38 -152 52.5 -95 c 128,-1,32
 67 -38 67 -38 160 200 c 0,33,34
 271 487 271 487 302 565 c 0,35,36
 318 608 318 608 341.5 667 c 128,-1,37
 365 726 365 726 366 728 c 0,0,1
EndSplineSet
Validated: 33
EndChar

StartChar: uniE043
Encoding: 312 57411 56
Width: 491
GlyphClass: 1
Flags: W
LayerCount: 2
Fore
SplineSet
283 503 m 0,0,1
 373 600 373 600 377 600 c 0,2,3
 387 600 387 600 403 580.5 c 128,-1,4
 419 561 419 561 419 548 c 128,-1,5
 419 535 419 535 267 371.5 c 128,-1,6
 115 208 115 208 98 201 c 0,7,8
 88 198 88 198 68.5 216 c 128,-1,9
 49 234 49 234 49 247 c 0,10,11
 49 261 49 261 122 334 c 0,12,13
 205 417 205 417 283 503 c 0,0,1
227 243 m 0,14,15
 264 253 264 253 273 244 c 0,16,17
 287 230 287 230 282 125 c 0,18,19
 281 100 281 100 278 44 c 0,20,21
 269 -140 269 -140 264 -158 c 0,22,23
 259 -171 259 -171 227 -168 c 2,24,-1
 194 -165 l 1,25,-1
 197 -55 l 2,26,27
 201 112 201 112 207.5 175.5 c 128,-1,28
 214 239 214 239 227 243 c 0,14,15
EndSplineSet
Validated: 33
EndChar

StartChar: uniE044
Encoding: 313 57412 57
Width: 451
GlyphClass: 1
Flags: W
LayerCount: 2
Fore
SplineSet
85 750 m 0,0,1
 101 760 101 760 115 760 c 0,2,3
 131 760 131 760 137.5 755.5 c 128,-1,4
 144 751 144 751 149.5 734 c 128,-1,5
 155 717 155 717 154 683 c 128,-1,6
 153 649 153 649 153 589 c 2,7,-1
 150 435 l 1,8,-1
 113 432 l 2,9,10
 77 429 77 429 70 455.5 c 128,-1,11
 63 482 63 482 66 610 c 0,12,13
 68 687 68 687 72 716 c 128,-1,14
 76 745 76 745 85 750 c 0,0,1
203 375 m 0,15,16
 349 518 349 518 354 520 c 0,17,18
 362 521 362 521 383.5 496 c 128,-1,19
 405 471 405 471 405 461 c 128,-1,20
 405 451 405 451 262.5 309.5 c 128,-1,21
 120 168 120 168 103 161 c 0,22,23
 92 157 92 157 73.5 176.5 c 128,-1,24
 55 196 55 196 55 212 c 0,25,26
 55 232 55 232 203 375 c 0,15,16
251 145 m 0,27,28
 258 161 258 161 294 158 c 2,29,-1
 330 155 l 1,30,-1
 333 -2 l 1,31,-1
 336 -160 l 1,32,-1
 296 -160 l 2,33,34
 257 -160 257 -160 251 -144 c 128,-1,35
 245 -128 245 -128 245 0.5 c 128,-1,36
 245 129 245 129 251 145 c 0,27,28
EndSplineSet
Validated: 33
EndChar

StartChar: uniE045
Encoding: 314 57413 58
Width: 1077
GlyphClass: 1
Flags: W
LayerCount: 2
Fore
SplineSet
265 765 m 0,0,1
 271 781 271 781 298 778 c 0,2,3
 316 776 316 776 320.5 766 c 128,-1,4
 325 756 325 756 329 710 c 2,5,-1
 334 645 l 1,6,-1
 406 605 l 2,7,8
 477 564 477 564 498.5 544 c 128,-1,9
 520 524 520 524 517 501 c 0,10,11
 513 476 513 476 503 473 c 0,12,13
 494 470 494 470 415 525 c 0,14,15
 383 548 383 548 358 562.5 c 128,-1,16
 333 577 333 577 330 575 c 0,17,18
 324 567 324 567 324 268 c 0,19,20
 324 64 324 64 321 14 c 128,-1,21
 318 -36 318 -36 307 -44 c 0,22,23
 284 -58 284 -58 277 -41 c 0,24,25
 264 -13 264 -13 266 217 c 0,26,27
 266 242 266 242 267 276 c 0,28,29
 270 580 270 580 262 580 c 0,30,31
 243 580 243 580 145 496 c 0,32,33
 115 472 115 472 104 467.5 c 128,-1,34
 93 463 93 463 84 470 c 0,35,36
 61 490 61 490 78 514 c 128,-1,37
 95 538 95 538 167 588 c 2,38,-1
 259 652 l 1,39,-1
 259 700 l 2,40,41
 259 747 259 747 265 765 c 0,0,1
786 774 m 256,42,43
 793 781 793 781 814 778 c 0,44,45
 827 776 827 776 831.5 764 c 128,-1,46
 836 752 836 752 839 713 c 2,47,-1
 844 650 l 1,48,-1
 919 604 l 2,49,50
 991 560 991 560 1010 542.5 c 128,-1,51
 1029 525 1029 525 1029 503 c 0,52,53
 1029 470 1029 470 990 488 c 0,54,55
 969 498 969 498 930 525 c 0,56,57
 865 570 865 570 852 570 c 0,58,59
 848 570 848 570 845.5 557.5 c 128,-1,60
 843 545 843 545 841.5 510 c 128,-1,61
 840 475 840 475 839.5 417.5 c 128,-1,62
 839 360 839 360 839 266 c 0,63,64
 839 70 839 70 836 15 c 128,-1,65
 833 -40 833 -40 824 -44 c 0,66,67
 809 -50 809 -50 794 -44 c 0,68,69
 784 -40 784 -40 781.5 16 c 128,-1,70
 779 72 779 72 779 271 c 0,71,72
 779 580 779 580 772 580 c 0,73,74
 763 580 763 580 691 520 c 0,75,76
 616 460 616 460 610 460 c 0,77,78
 600 460 600 460 589.5 474.5 c 128,-1,79
 579 489 579 489 579 502 c 0,80,81
 579 519 579 519 665 577 c 0,82,83
 667 579 667 579 672 582 c 0,84,85
 704 604 704 604 717 612.5 c 128,-1,86
 730 621 730 621 746 634.5 c 128,-1,87
 762 648 762 648 765.5 652.5 c 128,-1,88
 769 657 769 657 774 669 c 128,-1,89
 779 681 779 681 779 688 c 128,-1,90
 779 695 779 695 779 712 c 0,91,92
 779 713 779 713 779 714 c 0,93,94
 779 767 779 767 786 774 c 256,42,43
EndSplineSet
Validated: 33
EndChar

StartChar: uniE046
Encoding: 315 57414 59
Width: 613
GlyphClass: 1
Flags: W
LayerCount: 2
Fore
SplineSet
280 774 m 0,0,1
 288 782 288 782 313 778 c 0,2,3
 331 776 331 776 335 765.5 c 128,-1,4
 339 755 339 755 341 705 c 0,5,6
 345 633 345 633 354 624 c 0,7,8
 362 614 362 614 452 561 c 0,9,10
 542 510 542 510 552 496 c 0,11,12
 564 483 564 483 562 455 c 128,-1,13
 560 427 560 427 547 423 c 0,14,15
 543 421 543 421 512 440 c 128,-1,16
 481 459 481 459 444 486 c 0,17,18
 352 551 352 551 346 546 c 0,19,20
 339 541 339 541 339 182 c 2,21,-1
 338 -175 l 1,22,-1
 308 -175 l 1,23,-1
 278 -175 l 1,24,-1
 278 188 l 2,25,26
 278 294 278 294 277.5 362 c 128,-1,27
 277 430 277 430 275.5 473 c 128,-1,28
 274 516 274 516 272 533 c 128,-1,29
 270 550 270 550 266 550 c 0,30,31
 254 550 254 550 205 507 c 0,32,33
 96 410 96 410 74 410 c 0,34,35
 64 410 64 410 51 435 c 0,36,37
 47 444 47 444 46 450 c 128,-1,38
 45 456 45 456 48.5 464 c 128,-1,39
 52 472 52 472 58.5 479 c 128,-1,40
 65 486 65 486 81 499 c 128,-1,41
 97 512 97 512 116.5 525.5 c 128,-1,42
 136 539 136 539 170 562 c 2,43,-1
 273 630 l 1,44,-1
 273 699 l 2,45,46
 273 767 273 767 280 774 c 0,0,1
EndSplineSet
Validated: 33
EndChar

StartChar: uniE047
Encoding: 316 57415 60
Width: 487
GlyphClass: 1
Flags: W
LayerCount: 2
Fore
SplineSet
220 758 m 0,0,1
 225 771 225 771 252 768 c 0,2,3
 273 766 273 766 276 757 c 128,-1,4
 279 748 279 748 277 696 c 2,5,-1
 274 627 l 1,6,-1
 323 633 l 2,7,8
 374 639 374 639 385 625 c 0,9,10
 401 606 401 606 389.5 593 c 128,-1,11
 378 580 378 580 346 580 c 0,12,13
 275 580 275 580 275 561 c 0,14,15
 275 555 275 555 355 495 c 0,16,17
 434 436 434 436 439 423 c 0,18,19
 445 410 445 410 424 389 c 2,20,-1
 403 368 l 1,21,-1
 349 421 l 2,22,23
 328 442 328 442 309.5 455.5 c 128,-1,24
 291 469 291 469 288 466 c 0,25,26
 280 460 280 460 280 153 c 0,27,28
 280 -49 280 -49 277.5 -102.5 c 128,-1,29
 275 -156 275 -156 264 -163 c 0,30,31
 249 -173 249 -173 231 -167 c 0,32,33
 219 -163 219 -163 216.5 -113.5 c 128,-1,34
 214 -64 214 -64 216 152 c 0,35,36
 218 464 218 464 209 467 c 0,37,38
 199 471 199 471 150 420 c 0,39,40
 100 370 100 370 89 370 c 0,41,42
 76 370 76 370 60.5 386 c 128,-1,43
 45 402 45 402 45 415 c 0,44,45
 45 421 45 421 72 443 c 128,-1,46
 99 465 99 465 136 490 c 0,47,48
 173 516 173 516 198 537.5 c 128,-1,49
 223 559 223 559 222 563 c 0,50,51
 219 575 219 575 165 575 c 0,52,53
 122 575 122 575 105.5 587.5 c 128,-1,54
 89 600 89 600 98 625 c 0,55,56
 102 635 102 635 113.5 637.5 c 128,-1,57
 125 640 125 640 158 638 c 2,58,-1
 210 635 l 1,59,-1
 213 690 l 2,60,61
 215 739 215 739 220 758 c 0,0,1
EndSplineSet
Validated: 33
EndChar

StartChar: uniE048
Encoding: 317 57416 61
Width: 558
GlyphClass: 1
Flags: W
LayerCount: 2
Fore
SplineSet
252 762 m 0,0,1
 299 770 299 770 341.5 737 c 128,-1,2
 384 704 384 704 399 649 c 0,3,4
 410 611 410 611 401 550.5 c 128,-1,5
 392 490 392 490 372 462 c 0,6,7
 347 427 347 427 344 423 c 0,8,9
 334 409 334 409 369 378 c 0,10,11
 473 287 473 287 491.5 266.5 c 128,-1,12
 510 246 510 246 507 224 c 0,13,14
 501 174 501 174 461 201 c 0,15,16
 435 219 435 219 389 270 c 0,17,18
 316 350 316 350 301 348 c 0,19,20
 288 347 288 347 293 293 c 0,21,22
 299 233 299 233 304 50 c 0,23,24
 307 -33 307 -33 306.5 -72.5 c 128,-1,25
 306 -112 306 -112 301.5 -140 c 128,-1,26
 297 -168 297 -168 286 -166.5 c 128,-1,27
 275 -165 275 -165 256 -166 c 1,28,-1
 231 -160 l 1,29,-1
 236 86 l 2,30,31
 241 299 241 299 233 321 c 0,32,33
 226 338 226 338 203 307 c 0,34,35
 197 299 197 299 187 284 c 0,36,37
 151 234 151 234 121 201 c 0,38,39
 99 176 99 176 83 167 c 128,-1,40
 67 158 67 158 58 166.5 c 128,-1,41
 49 175 49 175 49 200 c 0,42,43
 49 217 49 217 65.5 242 c 128,-1,44
 82 267 82 267 129 319 c 0,45,46
 187 384 187 384 201 409 c 128,-1,47
 215 434 215 434 198 446 c 0,48,49
 180 456 180 456 164.5 507.5 c 128,-1,50
 149 559 149 559 149 606 c 0,51,52
 149 652 149 652 155 667.5 c 128,-1,53
 161 683 161 683 190 715 c 0,54,55
 230 758 230 758 252 762 c 0,0,1
309 658 m 0,56,57
 290 689 290 689 270 689.5 c 128,-1,58
 250 690 250 690 234 660 c 0,59,60
 205 604 205 604 235 518 c 0,61,62
 247 482 247 482 262.5 469.5 c 128,-1,63
 278 457 278 457 293.5 470 c 128,-1,64
 309 483 309 483 319 519 c 0,65,66
 342 604 342 604 309 658 c 0,56,57
EndSplineSet
Validated: 33
EndChar

StartChar: uniE049
Encoding: 318 57417 62
Width: 953
GlyphClass: 1
Flags: W
LayerCount: 2
Fore
SplineSet
446 763 m 0,0,1
 458 769 458 769 461 769 c 0,2,3
 464 770 464 770 484 759 c 0,4,5
 499 752 499 752 501 731 c 128,-1,6
 503 710 503 710 497 615 c 2,7,-1
 490 481 l 1,8,-1
 547 456 l 2,9,10
 590 437 590 437 599 422.5 c 128,-1,11
 608 408 608 408 593 379 c 0,12,13
 585 365 585 365 579 365 c 128,-1,14
 573 365 573 365 543 380 c 0,15,16
 533 385 533 385 523 389 c 128,-1,17
 513 393 513 393 507.5 394 c 128,-1,18
 502 395 502 395 501 393 c 0,19,20
 500 387 500 387 498 125 c 2,21,-1
 498 -135 l 1,22,-1
 471 -138 l 2,23,24
 448 -141 448 -141 441 -121 c 0,25,26
 430 -90 430 -90 436 124 c 0,27,28
 436 134 436 134 436 146 c 0,29,30
 443 379 443 379 433 385 c 0,31,32
 424 390 424 390 395 376 c 0,33,34
 343 350 343 350 343 407 c 0,35,36
 343 421 343 421 352.5 430 c 128,-1,37
 362 439 362 439 388 450 c 2,38,-1
 433 469 l 1,39,-1
 433 614 l 2,40,41
 433 759 433 759 446 763 c 0,0,1
60 753 m 0,42,43
 80 774 80 774 140 731 c 0,44,45
 224 670 224 670 268 556.5 c 128,-1,46
 312 443 312 443 312 290 c 0,47,48
 312 162 312 162 281.5 80 c 128,-1,49
 251 -2 251 -2 172 -84 c 0,50,51
 128 -131 128 -131 109 -145 c 128,-1,52
 90 -159 90 -159 74 -158 c 0,53,54
 32 -153 32 -153 52 -117 c 0,55,56
 67 -91 67 -91 116 -41 c 0,57,58
 192 37 192 37 207 67 c 0,59,60
 238 130 238 130 249 237 c 128,-1,61
 260 344 260 344 243 431 c 0,62,63
 231 498 231 498 197 558 c 128,-1,64
 163 618 163 618 112 661 c 0,65,66
 72 697 72 697 59.5 718.5 c 128,-1,67
 47 740 47 740 60 753 c 0,42,43
776 687 m 0,68,69
 810 723 810 723 829.5 736.5 c 128,-1,70
 849 750 849 750 865 750 c 0,71,72
 900 750 900 750 900 734 c 0,73,74
 899 712 899 712 831 647 c 0,75,76
 787 604 787 604 767.5 577.5 c 128,-1,77
 748 551 748 551 734 515 c 0,78,79
 701 426 701 426 695.5 346.5 c 128,-1,80
 690 267 690 267 709 172 c 0,81,82
 727 87 727 87 746 52 c 128,-1,83
 765 17 765 17 828 -44 c 0,84,85
 922 -137 922 -137 897 -159 c 0,86,87
 893 -162 893 -162 887 -164 c 0,88,89
 870 -171 870 -171 847.5 -155 c 128,-1,90
 825 -139 825 -139 770 -81 c 0,91,92
 710 -16 710 -16 691.5 18.5 c 128,-1,93
 673 53 673 53 652 137 c 0,94,95
 640 190 640 190 637 227 c 128,-1,96
 634 264 634 264 637 325 c 0,97,98
 645 457 645 457 674.5 534.5 c 128,-1,99
 704 612 704 612 776 687 c 0,68,69
EndSplineSet
Validated: 33
EndChar

StartChar: uniE04A
Encoding: 319 57418 63
Width: 499
GlyphClass: 1
Flags: W
LayerCount: 2
Fore
SplineSet
388 749 m 0,0,1
 388 757 388 757 397.5 759 c 128,-1,2
 407 761 407 761 419 757 c 128,-1,3
 431 753 431 753 438 745 c 0,4,5
 450 730 450 730 444 659.5 c 128,-1,6
 438 589 438 589 422 550 c 0,7,8
 407 514 407 514 360 467 c 2,9,-1
 313 419 l 1,10,-1
 313 137 l 2,11,12
 311 -148 311 -148 304 -158 c 0,13,14
 296 -170 296 -170 279 -170 c 0,15,16
 257 -170 257 -170 253 -114.5 c 128,-1,17
 249 -59 249 -59 254 144 c 2,18,-1
 261 393 l 1,19,-1
 227 386 l 2,20,21
 48 348 48 348 48 425 c 0,22,23
 48 441 48 441 53.5 445.5 c 128,-1,24
 59 450 59 450 76 450 c 128,-1,25
 93 450 93 450 126 478 c 128,-1,26
 159 506 159 506 246 594 c 0,27,28
 388 738 388 738 388 749 c 0,0,1
373 594 m 0,29,30
 389 633 389 633 381 641 c 0,31,32
 375 647 375 647 275 552 c 128,-1,33
 175 457 175 457 170 440 c 0,34,35
 166 430 166 430 180 430 c 0,36,37
 206 431 206 431 249 459 c 0,38,39
 342 519 342 519 373 594 c 0,29,30
EndSplineSet
Validated: 33
EndChar

StartChar: uniE04B
Encoding: 320 57419 64
Width: 583
GlyphClass: 1
Flags: W
LayerCount: 2
Fore
SplineSet
226 733 m 0,0,1
 252 760 252 760 287 760 c 0,2,3
 310 760 310 760 322.5 752.5 c 128,-1,4
 335 745 335 745 354 718 c 0,5,6
 400 655 400 655 484 451 c 0,7,8
 519 367 519 367 527.5 328.5 c 128,-1,9
 536 290 536 290 523 275 c 0,10,11
 500 248 500 248 483 278 c 0,12,13
 473 295 473 295 459 338 c 0,14,15
 383 570 383 570 369 570 c 0,16,17
 358 570 358 570 341 553 c 0,18,19
 328 542 328 542 325.5 489 c 128,-1,20
 323 436 323 436 323 199 c 0,21,22
 323 -136 323 -136 317 -154 c 0,23,24
 312 -170 312 -170 293 -170 c 0,25,26
 273 -170 273 -170 269 -100.5 c 128,-1,27
 265 -31 265 -31 270 213 c 2,28,-1
 276 506 l 1,29,-1
 246 540 l 2,30,31
 216 573 216 573 205 566 c 0,32,33
 195 560 195 560 159.5 451.5 c 128,-1,34
 124 343 124 343 116 298 c 0,35,36
 109 253 109 253 84 242 c 0,37,38
 63 233 63 233 56 260 c 0,39,40
 53 269 53 269 53 282 c 0,41,42
 53 351 53 351 117 517 c 128,-1,43
 181 683 181 683 226 733 c 0,0,1
317 669 m 0,44,45
 307 695 307 695 290 697 c 128,-1,46
 273 699 273 699 257 675 c 0,47,48
 239 647 239 647 248 621 c 128,-1,49
 257 595 257 595 285 592 c 0,50,51
 301 590 301 590 308 594.5 c 128,-1,52
 315 599 315 599 319 616 c 0,53,54
 326 643 326 643 317 669 c 0,44,45
EndSplineSet
Validated: 33
EndChar

StartChar: uniE050
Encoding: 321 57424 65
Width: 472
GlyphClass: 1
Flags: W
LayerCount: 2
Fore
SplineSet
74 748 m 0,0,1
 92 765 92 765 112.5 754 c 128,-1,2
 133 743 133 743 179 693 c 2,3,-1
 241 625 l 1,4,-1
 305 695 l 2,5,6
 347 740 347 740 362 750.5 c 128,-1,7
 377 761 377 761 389 754 c 0,8,9
 416 738 416 738 408 714.5 c 128,-1,10
 400 691 400 691 353 650 c 0,11,12
 328 629 328 629 310 609 c 128,-1,13
 292 589 292 589 292 584 c 0,14,15
 292 572 292 572 357 509 c 0,16,17
 450 420 450 420 409 398 c 0,18,19
 406 396 406 396 400 394 c 0,20,21
 387 390 387 390 372.5 400 c 128,-1,22
 358 410 358 410 326 446 c 2,23,-1
 273 505 l 1,24,-1
 270 170 l 2,25,26
 268 -69 268 -69 265 -117.5 c 128,-1,27
 262 -166 262 -166 248 -168 c 0,28,29
 229 -172 229 -172 220 -158 c 0,30,31
 211 -146 211 -146 213 174 c 0,32,33
 216 494 216 494 206 497 c 128,-1,34
 196 500 196 500 143 440 c 0,35,36
 63 348 63 348 47 401 c 0,37,38
 43 414 43 414 57 433.5 c 128,-1,39
 71 453 71 453 118 501 c 2,40,-1
 196 580 l 1,41,-1
 129 648 l 2,42,43
 77 700 77 700 68 716.5 c 128,-1,44
 59 733 59 733 74 748 c 0,0,1
EndSplineSet
Validated: 33
EndChar

StartChar: uniE051
Encoding: 322 57425 66
Width: 715
GlyphClass: 1
Flags: W
LayerCount: 2
Fore
SplineSet
588 766 m 0,0,1
 610 771 610 771 627 766 c 128,-1,2
 644 761 644 761 649 748 c 0,3,4
 651 741 651 741 638 726 c 128,-1,5
 625 711 625 711 554 637 c 0,6,7
 551 635 551 635 546 629 c 0,8,9
 507 589 507 589 501.5 581.5 c 128,-1,10
 496 574 496 574 501 567 c 0,11,12
 502 567 502 567 502 567 c 2,13,14
 504 564 504 564 552 525 c 0,15,16
 641 454 641 454 653 443 c 128,-1,17
 665 432 665 432 666 423 c 0,18,19
 668 413 668 413 665 407.5 c 128,-1,20
 662 402 662 402 651 392 c 0,21,22
 634 375 634 375 627.5 375.5 c 128,-1,23
 621 376 621 376 601 396 c 0,24,25
 551 443 551 443 534 453 c 0,26,27
 528 455 528 455 523 462 c 0,28,29
 519 468 519 468 507 479.5 c 128,-1,30
 495 491 495 491 490 493 c 0,31,32
 480 498 480 498 478 487 c 0,33,34
 475 474 475 474 477 367 c 0,35,36
 480 220 480 220 480 34.5 c 128,-1,37
 480 -151 480 -151 477 -155 c 0,38,39
 472 -163 472 -163 451 -159 c 0,40,41
 436 -158 436 -158 431 -158 c 0,42,43
 420 -158 420 -158 418 -153 c 0,44,45
 415 -144 415 -144 415 -11 c 0,46,47
 415 335 415 335 419 445 c 0,48,49
 421 485 421 485 415 485 c 0,50,51
 408 485 408 485 368 438 c 0,52,53
 362 431 362 431 351 418 c 0,54,55
 297 356 297 356 286 348 c 128,-1,56
 275 340 275 340 261 354 c 0,57,58
 259 356 259 356 258 357 c 0,59,60
 236 378 236 378 237 387 c 128,-1,61
 238 396 238 396 267 425 c 0,62,63
 298 458 298 458 303 466 c 0,64,65
 311 476 311 476 316 478 c 0,66,67
 317 479 317 479 328 490 c 0,68,69
 338 501 338 501 344 507 c 0,70,71
 403 562 403 562 388 569 c 0,72,73
 382 572 382 572 372 581 c 0,74,75
 367 586 367 586 357 593 c 0,76,77
 350 596 350 596 350 598 c 0,78,79
 350 601 350 601 337 613.5 c 128,-1,80
 324 626 324 626 318 629 c 0,81,82
 309 634 309 634 305 639 c 0,83,84
 298 650 298 650 278.5 665.5 c 128,-1,85
 259 681 259 681 254 679 c 0,86,87
 251 678 251 678 232 644.5 c 128,-1,88
 213 611 213 611 206 593 c 0,89,90
 201 578 201 578 197 475 c 0,91,92
 195 430 195 430 185.5 416.5 c 128,-1,93
 176 403 176 403 155 417 c 0,94,95
 145 423 145 423 138 425 c 0,96,97
 126 431 126 431 124 431 c 0,98,99
 122 433 122 433 109 438 c 0,100,101
 98 442 98 442 89 449 c 0,102,103
 82 456 82 456 75 458 c 0,104,105
 53 463 53 463 46.5 483.5 c 128,-1,106
 40 504 40 504 58 514 c 0,107,108
 65 519 65 519 74 530 c 0,109,110
 88 544 88 544 99 552 c 0,111,112
 110 561 110 561 113 566 c 128,-1,113
 116 571 116 571 125 578 c 0,114,115
 155 599 155 599 178 637 c 0,116,117
 224 710 224 710 232 731 c 0,118,119
 234 737 234 737 247 752 c 0,120,121
 261 766 261 766 267.5 764 c 128,-1,122
 274 762 274 762 304 736 c 0,123,124
 308 733 308 733 319.5 723 c 128,-1,125
 331 713 331 713 335 709.5 c 128,-1,126
 339 706 339 706 347.5 698.5 c 128,-1,127
 356 691 356 691 367.5 681 c 128,-1,128
 379 671 379 671 386 665 c 0,129,130
 427 629 427 629 435.5 623 c 128,-1,131
 444 617 444 617 450 621 c 0,132,133
 458 627 458 627 512 692 c 0,134,135
 530 715 530 715 539 723 c 0,136,137
 541 726 541 726 548.5 733.5 c 128,-1,138
 556 741 556 741 559 744 c 0,139,140
 576 764 576 764 588 766 c 0,0,1
173 561 m 0,141,142
 172 564 172 564 163.5 561 c 128,-1,143
 155 558 155 558 146.5 551.5 c 128,-1,144
 138 545 138 545 136 540 c 0,145,146
 135 536 135 536 148.5 525.5 c 128,-1,147
 162 515 162 515 168 515 c 0,148,149
 172 515 172 515 174 533 c 128,-1,150
 176 551 176 551 173 561 c 0,141,142
131 504 m 0,151,152
 117 512 117 512 113.5 512.5 c 128,-1,153
 110 513 110 513 103 506 c 0,154,155
 89 493 89 493 91 488 c 128,-1,156
 93 483 93 483 121 469 c 0,157,158
 136 461 136 461 143 458 c 128,-1,159
 150 455 150 455 155.5 454.5 c 128,-1,160
 161 454 161 454 162.5 456.5 c 128,-1,161
 164 459 164 459 166 465 c 0,162,163
 169 475 169 475 163.5 481 c 128,-1,164
 158 487 158 487 131 504 c 0,151,152
EndSplineSet
Validated: 33
EndChar

StartChar: uniE052
Encoding: 323 57426 67
Width: 637
GlyphClass: 1
Flags: W
LayerCount: 2
Fore
SplineSet
114.5 -93 m 128,-1,1
 98 -76 98 -76 93.5 -76 c 128,-1,2
 89 -76 89 -76 83 -93 c 0,3,4
 78 -107 78 -107 81 -110 c 128,-1,5
 84 -113 84 -113 103 -115 c 0,6,7
 127 -118 127 -118 129 -114 c 128,-1,0
 131 -110 131 -110 114.5 -93 c 128,-1,1
478 690 m 2,8,9
 546 760 546 760 553 760 c 0,10,11
 563 760 563 760 574.5 746.5 c 128,-1,12
 586 733 586 733 586 721 c 0,13,14
 586 705 586 705 519 642 c 2,15,-1
 451 580 l 1,16,-1
 520 516 l 2,17,18
 589 453 589 453 583 436 c 0,19,20
 572 409 572 409 551.5 414.5 c 128,-1,21
 531 420 531 420 489 461 c 2,22,-1
 434 515 l 1,23,-1
 438 183 l 2,24,25
 441 -149 441 -149 431 -159 c 0,26,27
 420 -170 420 -170 397 -163 c 2,28,-1
 374 -157 l 1,29,-1
 377 166 l 2,30,31
 381 488 381 488 375 495 c 0,32,33
 369 501 369 501 323 450 c 0,34,35
 285 409 285 409 273 403.5 c 128,-1,36
 261 398 261 398 247 414 c 0,37,38
 234 430 234 430 247.5 451 c 128,-1,39
 261 472 261 472 310 514 c 0,40,41
 366 561 366 561 366 574 c 0,42,43
 366 588 366 588 320 630 c 128,-1,44
 274 672 274 672 267 665 c 0,45,46
 255 652 255 652 191 340 c 0,47,48
 162 207 162 207 135 97 c 0,49,50
 118 26 118 26 115.5 0.5 c 128,-1,51
 113 -25 113 -25 120 -41.5 c 128,-1,52
 127 -58 127 -58 155 -84 c 0,53,54
 186 -115 186 -115 186 -138 c 0,55,56
 186 -156 186 -156 178.5 -158.5 c 128,-1,57
 171 -161 171 -161 132 -156 c 0,58,59
 74 -149 74 -149 60 -141 c 128,-1,60
 46 -133 46 -133 46 -106 c 0,61,62
 46 -70 46 -70 134 317 c 128,-1,63
 222 704 222 704 236 730 c 128,-1,64
 250 756 250 756 275 746 c 128,-1,65
 300 736 300 736 349 685 c 2,66,-1
 411 619 l 1,67,-1
 478 690 l 2,8,9
EndSplineSet
Validated: 33
EndChar

StartChar: uniE053
Encoding: 324 57427 68
Width: 658
GlyphClass: 1
Flags: W
LayerCount: 2
Fore
SplineSet
123.775877973 631.447511036 m 0,0,1
 288 760 288 760 315.798337263 760 c 256,2,3
 338 760 338 760 494.146866729 657.629855008 c 0,4,5
 579 602 579 602 595.911642762 587.373714368 c 0,6,7
 616 570 616 570 608.754672501 548.781540896 c 0,8,9
 602 529 602 529 580.416427649 530.962142941 c 0,10,11
 558 533 558 533 517.481955219 564.98793009 c 0,12,13
 482 593 482 593 404.595986083 640.520185759 c 0,14,15
 324 690 324 690 314.046204041 690 c 0,16,17
 301 690 301 690 174.928287777 591.68719689 c 0,18,19
 83 520 83 520 72.2910765024 520 c 0,20,21
 67 520 67 520 55.820045736 537.01297388 c 0,22,23
 44 555 44 555 44 558.891134226 c 0,24,25
 44 569 44 569 123.775877973 631.447511036 c 0,0,1
305.809102727 544.073255303 m 0,26,27
 314 560 314 560 332.411218442 560 c 0,28,29
 347 560 347 560 350.536044803 549.897014848 c 0,30,31
 354 540 354 540 354 501.713533229 c 0,32,33
 354 440 354 440 362.946858157 440 c 0,34,35
 371 440 371 440 407.400286126 489.840391773 c 0,36,37
 436 529 436 529 446.556269942 535.534833774 c 128,-1,38
 457 542 457 542 471.619641287 536.544909967 c 0,39,40
 524 517 524 517 431.71359007 422.770718282 c 0,41,42
 429 420 429 420 427 418 c 2,43,-1
 361 351 l 1,44,-1
 450 266 l 2,45,46
 508 211 508 211 521.654600425 192.7938661 c 0,47,48
 535 175 535 175 524.180085912 156.802871761 c 0,49,50
 513 138 513 138 494.119584174 145.828465099 c 0,51,52
 472 155 472 155 417.93700034 216.556880801 c 0,53,54
 371 270 371 270 364.855940883 270 c 0,55,56
 353 270 353 270 360.884571386 46.1994737281 c 0,57,58
 366 -99 366 -99 361.1980826 -137.895530938 c 0,59,60
 356 -180 356 -180 329 -180 c 2,61,-1
 304 -180 l 1,62,-1
 304 45 l 2,63,64
 304 270 304 270 291.193329166 270 c 0,65,66
 286 270 286 270 253.704395531 226.787571485 c 0,67,68
 215 175 215 175 191.986272559 154.862988489 c 0,69,70
 167 133 167 133 147.044976693 143.279860491 c 0,71,72
 134 150 134 150 134 159.123609505 c 0,73,74
 134 181 134 181 222.646955465 276.738711902 c 0,75,76
 284 343 284 343 284 351.219919233 c 0,77,78
 284 360 284 360 234.86674931 406.403625652 c 0,79,80
 104 530 104 530 163.241020261 530 c 0,81,82
 210 530 210 530 251.585761157 466.950620181 c 0,83,84
 272 436 272 436 288.748207639 430.802280388 c 0,85,86
 301 427 301 427 305.681029576 434.021544364 c 0,87,88
 313 445 313 445 305.453572688 480.512599117 c 0,89,90
 296 525 296 525 305.809102727 544.073255303 c 0,26,27
EndSplineSet
Validated: 33
EndChar

StartChar: uniE054
Encoding: 325 57428 69
Width: 605
GlyphClass: 1
Flags: W
LayerCount: 2
Fore
SplineSet
207 703 m 0,0,1
 246 740 246 740 267.5 755 c 128,-1,2
 289 770 289 770 304 770 c 0,3,4
 333 770 333 770 399.5 700.5 c 128,-1,5
 466 631 466 631 496 569 c 0,6,7
 593 369 593 369 531 372 c 0,8,9
 528 372 528 372 526 372 c 0,10,11
 514 373 514 373 507.5 384.5 c 128,-1,12
 501 396 501 396 494 425 c 0,13,14
 483 475 483 475 460 520 c 0,15,16
 439 563 439 563 379 636.5 c 128,-1,17
 319 710 319 710 305 710 c 256,18,19
 291 710 291 710 234.5 648 c 128,-1,20
 178 586 178 586 152 543 c 0,21,22
 124 493 124 493 109 436 c 0,23,24
 98 398 98 398 90.5 385.5 c 128,-1,25
 83 373 83 373 69 372 c 0,26,27
 53 369 53 369 50.5 376 c 128,-1,28
 48 383 48 383 51 420 c 0,29,30
 57 483 57 483 101 563 c 128,-1,31
 145 643 145 643 207 703 c 0,0,1
290 581 m 0,32,33
 300 586 300 586 306.5 587 c 128,-1,34
 313 588 313 588 317 580.5 c 128,-1,35
 321 573 321 573 322.5 559 c 128,-1,36
 324 545 324 545 324 522 c 0,37,38
 324 460 324 460 334 460 c 0,39,40
 345 460 345 460 370 492 c 0,41,42
 397 523 397 523 413 517 c 0,43,44
 452 502 452 502 389 434 c 0,45,46
 372 416 372 416 360.5 398 c 128,-1,47
 349 380 349 380 350 373 c 0,48,49
 350 366 350 366 369 345 c 128,-1,50
 388 324 388 324 415 301 c 0,51,52
 480 247 480 247 477 226 c 0,53,54
 471 185 471 185 432 209 c 0,55,56
 412 221 412 221 388 249 c 0,57,58
 377 263 377 263 366.5 274 c 128,-1,59
 356 285 356 285 349 290 c 128,-1,60
 342 295 342 295 340 294 c 0,61,62
 334 288 334 288 334 62 c 2,63,-1
 334 -165 l 1,64,-1
 309 -165 l 1,65,-1
 284 -165 l 1,66,-1
 284 63 l 2,67,68
 285 290 285 290 273 290 c 0,69,70
 262 290 262 290 224 239 c 0,71,72
 196 200 196 200 178.5 194 c 128,-1,73
 161 188 161 188 145 212 c 0,74,75
 138 223 138 223 149 239.5 c 128,-1,76
 160 256 160 256 204 300 c 2,77,-1
 274 371 l 1,78,-1
 221 421 l 2,79,80
 139 497 139 497 192 508 c 0,81,82
 208 511 208 511 235 481 c 0,83,84
 267 443 267 443 278 450 c 128,-1,85
 289 457 289 457 283 511 c 0,86,87
 279 546 279 546 280.5 561 c 128,-1,88
 282 576 282 576 290 581 c 0,32,33
EndSplineSet
Validated: 33
EndChar

StartChar: uniE055
Encoding: 326 57429 70
Width: 692
GlyphClass: 1
Flags: W
LayerCount: 2
Fore
SplineSet
156 758 m 0,0,1
 166 771 166 771 173 773.5 c 128,-1,2
 180 776 180 776 193 769 c 0,3,4
 210 760 210 760 208 742 c 128,-1,5
 206 724 206 724 181 655 c 0,6,7
 140 542 140 542 122.5 404.5 c 128,-1,8
 105 267 105 267 120 170 c 0,9,10
 134 89 134 89 177 -18 c 0,11,12
 223 -131 223 -131 219 -148 c 0,13,14
 215 -164 215 -164 194 -168 c 0,15,16
 173 -171 173 -171 152 -131.5 c 128,-1,17
 131 -92 131 -92 95 17 c 0,18,19
 70 92 70 92 65.5 127.5 c 128,-1,20
 61 163 61 163 61 275 c 0,21,22
 61 432 61 432 76 502 c 0,23,24
 93 580 93 580 117.5 659 c 128,-1,25
 142 738 142 738 156 758 c 0,0,1
336 761 m 0,26,27
 344 772 344 772 364 768 c 0,28,29
 379 766 379 766 382.5 756 c 128,-1,30
 386 746 386 746 384 708 c 0,31,32
 383 672 383 672 387.5 659.5 c 128,-1,33
 392 647 392 647 403.5 655.5 c 128,-1,34
 415 664 415 664 436 695 c 0,35,36
 462 733 462 733 475.5 741.5 c 128,-1,37
 489 750 489 750 501 734 c 0,38,39
 512 722 512 722 498.5 698 c 128,-1,40
 485 674 485 674 434 613 c 0,41,42
 398 571 398 571 397.5 553.5 c 128,-1,43
 397 536 397 536 430 506 c 0,44,45
 443 494 443 494 448 481 c 128,-1,46
 453 468 453 468 449 459 c 128,-1,47
 445 450 445 450 433 450 c 0,48,49
 415 450 415 450 403 462 c 0,50,51
 400 465 400 465 397 467 c 128,-1,52
 394 469 394 469 392 468 c 128,-1,53
 390 467 390 467 390 465 c 0,54,55
 390 317 390 317 391 149 c 0,56,57
 392 -50 392 -50 389.5 -105.5 c 128,-1,58
 387 -161 387 -161 376 -170 c 0,59,60
 361 -183 361 -183 345 -169 c 0,61,62
 335 -161 335 -161 333 -105 c 128,-1,63
 331 -49 331 -49 333 157 c 0,64,65
 337 470 337 470 330 470 c 0,66,67
 326 470 326 470 305 455 c 0,68,69
 269 428 269 428 258 447 c 0,70,71
 248 467 248 467 280 504 c 0,72,73
 283 507 283 507 286 510 c 0,74,75
 321 547 321 547 321 554 c 0,76,77
 321 562 321 562 270 617 c 0,78,79
 220 673 220 673 223 694 c 0,80,81
 228 730 228 730 257 711 c 0,82,83
 272 700 272 700 290 675 c 0,84,85
 323 628 323 628 333 631.5 c 128,-1,86
 343 635 343 635 337 690 c 0,87,88
 330 749 330 749 336 761 c 0,26,27
563 758 m 0,89,90
 586 785 586 785 611 755 c 0,91,92
 618 746 618 746 615.5 729 c 128,-1,93
 613 712 613 712 597 668 c 0,94,95
 565 578 565 578 552 507 c 128,-1,96
 539 436 539 436 535 325 c 0,97,98
 530 225 530 225 533.5 193 c 128,-1,99
 537 161 537 161 556 100 c 0,100,101
 583 15 583 15 618 -62 c 0,102,103
 641 -111 641 -111 645 -128 c 128,-1,104
 649 -145 649 -145 641 -155 c 0,105,106
 621 -180 621 -180 600.5 -163.5 c 128,-1,107
 580 -147 580 -147 554 -85 c 0,108,109
 495 54 495 54 479 180 c 128,-1,110
 463 306 463 306 485 453 c 0,111,112
 498 536 498 536 524 638.5 c 128,-1,113
 550 741 550 741 563 758 c 0,89,90
EndSplineSet
Validated: 33
EndChar

StartChar: uniE05A
Encoding: 327 57434 71
Width: 512
GlyphClass: 1
Flags: W
LayerCount: 2
Fore
SplineSet
222 763 m 0,0,1
 227 770 227 770 252 770 c 0,2,3
 269 770 269 770 272 758 c 128,-1,4
 275 746 275 746 275 683 c 2,5,-1
 276 595 l 1,6,-1
 357 554 l 2,7,8
 424 520 424 520 443 501.5 c 128,-1,9
 462 483 462 483 449 462 c 0,10,11
 435 440 435 440 416 444.5 c 128,-1,12
 397 449 397 449 350 484 c 0,13,14
 289 530 289 530 278 530 c 0,15,16
 266 530 266 530 271 383 c 2,17,-1
 277 235 l 1,18,-1
 339 125 l 2,19,20
 465 -98 465 -98 465 -146 c 0,21,22
 465 -160 465 -160 460 -165 c 128,-1,23
 455 -170 455 -170 441 -170 c 0,24,25
 426 -170 426 -170 407.5 -143 c 128,-1,26
 389 -116 389 -116 337 -18 c 0,27,28
 257 134 257 134 247 138 c 0,29,30
 238 141 238 141 221 88 c 0,31,32
 201 19 201 19 162 -74 c 128,-1,33
 123 -167 123 -167 112 -174 c 0,34,35
 96 -184 96 -184 80.5 -175 c 128,-1,36
 65 -166 65 -166 65 -146 c 0,37,38
 65 -122 65 -122 134 36 c 2,39,-1
 202 195 l 1,40,-1
 210 358 l 2,41,42
 216 520 216 520 207 520 c 0,43,44
 197 520 197 520 136 479 c 0,45,46
 56 425 56 425 47 459 c 0,47,48
 45 465 45 465 45 474 c 0,49,50
 45 496 45 496 70.5 516 c 128,-1,51
 96 536 96 536 158 564 c 2,52,-1
 215 589 l 1,53,-1
 215 673 l 2,54,55
 215 758 215 758 222 763 c 0,0,1
EndSplineSet
Validated: 33
EndChar

StartChar: uniE05B
Encoding: 328 57435 72
Width: 917
GlyphClass: 1
Flags: W
LayerCount: 2
Fore
SplineSet
222 748 m 128,-1,1
 234 760 234 760 250 758 c 0,2,3
 265 754 265 754 270 670 c 2,4,-1
 275 585 l 1,5,-1
 365 536 l 1,6,-1
 455 488 l 1,7,-1
 538 531 l 2,8,9
 606 568 606 568 620 589 c 128,-1,10
 634 610 634 610 626 669 c 0,11,12
 621 709 621 709 632 731 c 128,-1,13
 643 753 643 753 666 748 c 0,14,15
 679 746 679 746 682 732 c 128,-1,16
 685 718 685 718 685 665 c 2,17,-1
 685 586 l 1,18,-1
 770 540 l 2,19,20
 823 511 823 511 839 497.5 c 128,-1,21
 855 484 855 484 855 469 c 0,22,23
 855 429 855 429 808 445 c 0,24,25
 783 454 783 454 749 479 c 0,26,27
 697 520 697 520 685 520 c 0,28,29
 675 520 675 520 678 379 c 2,30,-1
 682 238 l 1,31,-1
 776 72 l 2,32,33
 811 10 811 10 831 -30 c 128,-1,34
 851 -70 851 -70 860.5 -97 c 128,-1,35
 870 -124 870 -124 868.5 -136.5 c 128,-1,36
 867 -149 867 -149 856 -153 c 0,37,38
 839 -160 839 -160 813.5 -124.5 c 128,-1,39
 788 -89 788 -89 735 13 c 0,40,41
 668 140 668 140 655 140 c 128,-1,42
 642 140 642 140 635 113 c 0,43,44
 630 92 630 92 590.5 -13.5 c 128,-1,45
 551 -119 551 -119 541 -140 c 0,46,47
 533 -156 533 -156 509 -155 c 128,-1,48
 485 -154 485 -154 482 -138 c 128,-1,49
 479 -122 479 -122 548 42 c 2,50,-1
 617 205 l 1,51,-1
 623 352 l 2,52,53
 628 499 628 499 621 505 c 0,54,55
 611 509 611 509 544 465 c 0,56,57
 476 420 476 420 455 420 c 0,58,59
 437 420 437 420 357 470 c 0,60,61
 280 520 280 520 270 520 c 0,62,63
 261 520 261 520 266 378 c 2,64,-1
 272 235 l 1,65,-1
 323 150 l 2,66,67
 493 -136 493 -136 429 -148 c 0,68,69
 421 -150 421 -150 399 -116.5 c 128,-1,70
 377 -83 377 -83 336 -6 c 0,71,72
 260 138 260 138 251 145 c 0,73,74
 242 150 242 150 231.5 134 c 128,-1,75
 221 118 221 118 211 82 c 0,76,77
 200 41 200 41 160 -58 c 0,78,79
 120 -158 120 -158 95 -160 c 0,80,81
 83 -161 83 -161 70 -145 c 0,82,83
 56 -129 56 -129 70 -102 c 0,84,85
 91 -56 91 -56 145 70 c 2,86,-1
 208 216 l 1,87,-1
 211 363 l 2,88,89
 215 510 215 510 202 510 c 0,90,91
 188 510 188 510 136 474 c 0,92,93
 45 414 45 414 45 470 c 0,94,95
 45 486 45 486 60.5 498.5 c 128,-1,96
 76 511 76 511 128 538 c 2,97,-1
 210 581 l 1,98,-1
 210 658 l 2,99,0
 210 736 210 736 222 748 c 128,-1,1
EndSplineSet
Validated: 33
EndChar

StartChar: uniE05C
Encoding: 329 57436 73
Width: 740
GlyphClass: 1
Flags: W
LayerCount: 2
Fore
SplineSet
49 761 m 0,0,1
 55 765 55 765 372 765 c 2,2,-1
 690 765 l 1,3,-1
 693 738 l 2,4,5
 695 718 695 718 690.5 714 c 128,-1,6
 686 710 686 710 661 710 c 0,7,8
 639 710 639 710 628.5 703 c 128,-1,9
 618 696 618 696 604 673 c 0,10,11
 590 648 590 648 489 490 c 2,12,-1
 397 345 l 1,13,-1
 390 229 l 2,14,15
 383 112 383 112 392 107 c 0,16,17
 401 101 401 101 480 160 c 0,18,19
 543 206 543 206 572.5 215 c 128,-1,20
 602 224 602 224 615 201 c 0,21,22
 624 184 624 184 600 163 c 128,-1,23
 576 142 576 142 483 85 c 0,24,25
 407 41 407 41 398 27 c 0,26,27
 390 16 390 16 390 -69 c 0,28,29
 390 -136 390 -136 379.5 -156.5 c 128,-1,30
 369 -177 369 -177 340 -166 c 0,31,32
 328 -162 328 -162 326 -145.5 c 128,-1,33
 324 -129 324 -129 328 -66 c 2,34,-1
 334 27 l 1,35,-1
 224 109 l 2,36,37
 157 158 157 158 136 178.5 c 128,-1,38
 115 199 115 199 117 213 c 0,39,40
 124 262 124 262 192 213 c 0,41,42
 212 199 212 199 239 176 c 0,43,44
 314 110 314 110 325 110 c 0,45,46
 343 110 343 110 327 290 c 0,47,48
 322 345 322 345 306.5 379.5 c 128,-1,49
 291 414 291 414 217 538 c 0,50,51
 142 665 142 665 124 687.5 c 128,-1,52
 106 710 106 710 80 710 c 0,53,54
 57 710 57 710 51 714 c 128,-1,55
 45 718 45 718 45 733 c 0,56,57
 45 757 45 757 49 761 c 0,0,1
545 698 m 0,58,59
 545 710 545 710 370 710 c 128,-1,60
 195 710 195 710 195 703 c 0,61,62
 195 698 195 698 264 579.5 c 128,-1,63
 333 461 333 461 354 430 c 0,64,65
 361 420 361 420 365.5 421 c 128,-1,66
 370 422 370 422 380 435 c 0,67,68
 406 467 406 467 475.5 578 c 128,-1,69
 545 689 545 689 545 698 c 0,58,59
EndSplineSet
Validated: 33
EndChar

StartChar: uniE05D
Encoding: 330 57437 74
Width: 489
GlyphClass: 1
Flags: W
LayerCount: 2
Fore
SplineSet
229 775 m 0,0,1
 256 801 256 801 264 771 c 0,2,3
 270 751 270 751 271 700 c 0,4,5
 275 616 275 616 284 603 c 0,6,7
 295 591 295 591 357 556 c 0,8,9
 418 522 418 522 432.5 505.5 c 128,-1,10
 447 489 447 489 430 473 c 0,11,12
 416 458 416 458 392 466.5 c 128,-1,13
 368 475 368 475 323 510 c 0,14,15
 285 539 285 539 279 533 c 128,-1,16
 273 527 273 527 273 406 c 0,17,18
 273 318 273 318 278.5 289.5 c 128,-1,19
 284 261 284 261 312 195 c 0,20,21
 349 110 349 110 391 -10.5 c 128,-1,22
 433 -131 433 -131 433 -151 c 0,23,24
 433 -169 433 -169 418.5 -175.5 c 128,-1,25
 404 -182 404 -182 390 -171 c 0,26,27
 378 -162 378 -162 317 19 c 0,28,29
 302 67 302 67 287 109 c 128,-1,30
 272 151 272 151 262 174 c 128,-1,31
 252 197 252 197 249 197 c 0,32,33
 240 193 240 193 178 16 c 0,34,35
 115 -162 115 -162 102 -171 c 0,36,37
 91 -178 91 -178 77 -168.5 c 128,-1,38
 63 -159 63 -159 63 -144 c 256,39,40
 63 -129 63 -129 94 -40.5 c 128,-1,41
 125 48 125 48 170 159 c 2,42,-1
 223 293 l 1,43,-1
 223 416 l 2,44,45
 223 486 223 486 220.5 513 c 128,-1,46
 218 540 218 540 210 540 c 0,47,48
 199 540 199 540 149 505 c 0,49,50
 85 461 85 461 56 471 c 0,51,52
 43 475 43 475 45 491 c 0,53,54
 48 514 48 514 130 559 c 2,55,-1
 213 605 l 1,56,-1
 213 682 l 2,57,58
 213 759 213 759 229 775 c 0,0,1
227 -23 m 0,59,60
 233 -10 233 -10 252.5 -10 c 128,-1,61
 272 -10 272 -10 278 -33 c 128,-1,62
 284 -56 284 -56 281 -115 c 0,63,64
 279 -158 279 -158 275 -166.5 c 128,-1,65
 271 -175 271 -175 253 -175 c 128,-1,66
 235 -175 235 -175 231.5 -165.5 c 128,-1,67
 228 -156 228 -156 225 -106 c 0,68,69
 222 -38 222 -38 227 -23 c 0,59,60
EndSplineSet
Validated: 33
EndChar

StartChar: uniE05E
Encoding: 331 57438 75
Width: 505
GlyphClass: 1
Flags: W
LayerCount: 2
Fore
SplineSet
213 751 m 0,0,1
 225 770 225 770 237 770 c 0,2,3
 279 770 279 770 271 684 c 2,4,-1
 266 628 l 1,5,-1
 355 569 l 2,6,7
 423 523 423 523 441 502.5 c 128,-1,8
 459 482 459 482 445 468 c 0,9,10
 420 443 420 443 334 511 c 0,11,12
 282 553 282 553 272 543 c 128,-1,13
 262 533 262 533 269 467 c 2,14,-1
 276 401 l 1,15,-1
 341 398 l 1,16,-1
 407 395 l 1,17,-1
 416 360 l 2,18,19
 425 324 425 324 420.5 226.5 c 128,-1,20
 416 129 416 129 405 118 c 0,21,22
 381 94 381 94 371 151 c 0,23,24
 366 181 366 181 363 238 c 2,25,-1
 358 345 l 1,26,-1
 316 348 l 1,27,-1
 273 351 l 1,28,-1
 273 273 l 2,29,30
 273 194 273 194 287 175 c 0,31,32
 325 119 325 119 389 -1 c 128,-1,33
 453 -121 453 -121 453 -136 c 0,34,35
 453 -157 453 -157 438.5 -165.5 c 128,-1,36
 424 -174 424 -174 410 -162 c 0,37,38
 398 -151 398 -151 328 -16 c 0,39,40
 257 120 257 120 247 120 c 128,-1,41
 237 120 237 120 184 -5 c 0,42,43
 137 -115 137 -115 116.5 -145.5 c 128,-1,44
 96 -176 96 -176 76 -164 c 0,45,46
 65 -157 65 -157 62.5 -148.5 c 128,-1,47
 60 -140 60 -140 67 -116.5 c 128,-1,48
 74 -93 74 -93 89 -60.5 c 128,-1,49
 104 -28 104 -28 136 35 c 0,50,51
 188 138 188 138 198 169 c 128,-1,52
 208 200 208 200 211 263 c 2,53,-1
 216 351 l 1,54,-1
 167 348 l 1,55,-1
 118 345 l 1,56,-1
 113 235 l 2,57,58
 111 193 111 193 109.5 174 c 128,-1,59
 108 155 108 155 105 142.5 c 128,-1,60
 102 130 102 130 99 127.5 c 128,-1,61
 96 125 96 125 88 125 c 0,62,63
 74 125 74 125 70.5 142 c 128,-1,64
 67 159 67 159 65 240 c 0,65,66
 65 244 65 244 65 252 c 0,67,68
 62 362 62 362 70.5 380.5 c 128,-1,69
 79 399 79 399 134 402 c 0,70,71
 139 402 139 402 141 402 c 2,72,-1
 208 405 l 1,73,-1
 211 483 l 2,74,75
 215 560 215 560 207 560 c 256,76,77
 199 560 199 560 147 510 c 0,78,79
 93 460 93 460 84 460 c 0,80,81
 74 460 74 460 63 480 c 0,82,83
 54 497 54 497 70 516 c 128,-1,84
 86 535 86 535 162 599 c 0,85,86
 202 632 202 632 208 643.5 c 128,-1,87
 214 655 214 655 209 687 c 0,88,89
 204 731 204 731 213 751 c 0,0,1
EndSplineSet
Validated: 33
EndChar

StartChar: uniE05F
Encoding: 332 57439 76
Width: 575
GlyphClass: 1
Flags: W
LayerCount: 2
Fore
SplineSet
251 758 m 0,0,1
 269 768 269 768 288 759 c 0,2,3
 299 752 299 752 302 737 c 128,-1,4
 305 722 305 722 303 672 c 2,5,-1
 300 596 l 1,6,-1
 358 568 l 2,7,8
 418 539 418 539 438 537 c 0,9,10
 454 535 454 535 456.5 548.5 c 128,-1,11
 459 562 459 562 457 631 c 0,12,13
 455 689 455 689 457 710.5 c 128,-1,14
 459 732 459 732 469 739 c 0,15,16
 487 753 487 753 500 746 c 0,17,18
 516 740 516 740 516 600 c 128,-1,19
 516 460 516 460 500 454 c 0,20,21
 485 447 485 447 399 489 c 0,22,23
 312 530 312 530 303 524 c 0,24,25
 292 516 292 516 297 371 c 2,26,-1
 302 225 l 1,27,-1
 383 75 l 2,28,29
 471 -89 471 -89 481 -106 c 0,30,31
 497 -134 497 -134 491.5 -152 c 128,-1,32
 486 -170 486 -170 460 -170 c 0,33,34
 444 -170 444 -170 426.5 -143.5 c 128,-1,35
 409 -117 409 -117 355 -10 c 0,36,37
 275 150 275 150 267 150 c 0,38,39
 256 150 256 150 161 -90 c 0,40,41
 142 -142 142 -142 132 -157 c 0,42,43
 123 -171 123 -171 98.5 -169.5 c 128,-1,44
 74 -168 74 -168 68 -154 c 0,45,46
 63 -139 63 -139 151 48 c 2,47,-1
 240 235 l 1,48,-1
 243 383 l 2,49,50
 248 530 248 530 237 530 c 0,51,52
 228 530 228 530 150 479 c 0,53,54
 67 424 67 424 51 440 c 0,55,56
 45 447 45 447 45 464 c 0,57,58
 45 479 45 479 64 495 c 128,-1,59
 83 511 83 511 143 548 c 2,60,-1
 240 607 l 1,61,-1
 237 677 l 2,62,63
 235 722 235 722 237.5 737 c 128,-1,64
 240 752 240 752 251 758 c 0,0,1
EndSplineSet
Validated: 33
EndChar

StartChar: uniE060
Encoding: 333 57440 77
Width: 517
GlyphClass: 1
Flags: W
LayerCount: 2
Fore
SplineSet
223 763 m 0,0,1
 232 771 232 771 249 768.5 c 128,-1,2
 266 766 266 766 322 749 c 0,3,4
 410 722 410 722 439 702.5 c 128,-1,5
 468 683 468 683 455 658 c 0,6,7
 445 640 445 640 429 642 c 128,-1,8
 413 644 413 644 358 670 c 0,9,10
 294 701 294 701 285 694 c 0,11,12
 276 689 276 689 276 642 c 2,13,-1
 276 595 l 1,14,-1
 358 554 l 2,15,16
 426 520 426 520 444.5 501.5 c 128,-1,17
 463 483 463 483 450 462 c 0,18,19
 437 440 437 440 417.5 444.5 c 128,-1,20
 398 449 398 449 349 485 c 0,21,22
 286 530 286 530 275 530 c 0,23,24
 263 530 263 530 270 469 c 0,25,26
 276 401 276 401 276 321 c 2,27,-1
 276 234 l 1,28,-1
 331 140 l 2,29,30
 472 -102 472 -102 466 -151 c 0,31,32
 464 -170 464 -170 442 -170 c 0,33,34
 427 -170 427 -170 408.5 -143 c 128,-1,35
 390 -116 390 -116 338 -18 c 0,36,37
 258 134 258 134 248 138 c 0,38,39
 243 140 243 140 236.5 128 c 128,-1,40
 230 116 230 116 226 98 c 0,41,42
 218 68 218 68 178.5 -34 c 128,-1,43
 139 -136 139 -136 127 -160 c 0,44,45
 118 -175 118 -175 95 -175 c 0,46,47
 68 -175 68 -175 70 -146 c 0,48,49
 73 -109 73 -109 134 33 c 2,50,-1
 203 195 l 1,51,-1
 211 358 l 2,52,53
 217 520 217 520 208 520 c 0,54,55
 198 520 198 520 137 479 c 0,56,57
 57 425 57 425 48 459 c 0,58,59
 46 465 46 465 46 474 c 0,60,61
 46 515 46 515 152 560 c 0,62,63
 200 581 200 581 208 593 c 0,64,65
 216 607 216 607 216 681 c 0,66,67
 216 758 216 758 223 763 c 0,0,1
EndSplineSet
Validated: 33
EndChar

StartChar: uniE061
Encoding: 334 57441 78
Width: 802
GlyphClass: 1
Flags: W
LayerCount: 2
Fore
SplineSet
368 755 m 0,0,1
 381 768 381 768 387.5 769 c 128,-1,2
 394 770 394 770 412 760 c 0,3,4
 424 753 424 753 427.5 740 c 128,-1,5
 431 727 431 727 430 691 c 0,6,7
 429 632 429 632 435 622 c 0,8,9
 440 613 440 613 527 555 c 0,10,11
 584 517 584 517 598 503 c 128,-1,12
 612 489 612 489 609 472 c 0,13,14
 607 456 607 456 601 449.5 c 128,-1,15
 595 443 595 443 583.5 444 c 128,-1,16
 572 445 572 445 554.5 455 c 128,-1,17
 537 465 537 465 512 484 c 0,18,19
 442 538 442 538 429 527 c 0,20,21
 421 520 421 520 425 483 c 0,22,23
 431 430 431 430 436 345 c 0,24,25
 441 280 441 280 454 240.5 c 128,-1,26
 467 201 467 201 533 58 c 0,27,28
 623 -139 623 -139 618 -154 c 0,29,30
 613 -167 613 -167 596.5 -169.5 c 128,-1,31
 580 -172 580 -172 565 -162 c 0,32,33
 561 -159 561 -159 539 -113.5 c 128,-1,34
 517 -68 517 -68 493 -10 c 0,35,36
 469 50 469 50 447 93 c 128,-1,37
 425 136 425 136 418 138 c 0,38,39
 413 139 413 139 404.5 124.5 c 128,-1,40
 396 110 396 110 383 76.5 c 128,-1,41
 370 43 370 43 351 -15 c 2,42,-1
 299 -171 l 1,43,-1
 267 -168 l 2,44,45
 249 -166 249 -166 243 -161.5 c 128,-1,46
 237 -157 237 -157 237 -145 c 0,47,48
 239 -127 239 -127 305 50 c 2,49,-1
 371 225 l 1,50,-1
 369 379 l 2,51,52
 366 534 366 534 355 537 c 0,53,54
 345 540 345 540 287 490 c 0,55,56
 243 451 243 451 219.5 443 c 128,-1,57
 196 435 196 435 187 456 c 0,58,59
 180 475 180 475 198 496.5 c 128,-1,60
 216 518 216 518 273 556 c 0,61,62
 347 606 347 606 354 615 c 0,63,64
 363 627 363 627 357 683 c 0,65,66
 353 740 353 740 368 755 c 0,0,1
679 762 m 0,67,68
 695 767 695 767 707 763 c 0,69,70
 723 758 723 758 729 487.5 c 128,-1,71
 735 217 735 217 724 -18 c 0,72,73
 719 -152 719 -152 711 -164 c 0,74,75
 708 -170 708 -170 696 -170 c 0,76,77
 687 -170 687 -170 678.5 -165.5 c 128,-1,78
 670 -161 670 -161 667 -154 c 0,79,80
 661 -136 661 -136 661 310 c 0,81,82
 661 625 661 625 664 692.5 c 128,-1,83
 667 760 667 760 679 762 c 0,67,68
76 748 m 0,84,85
 78 753 78 753 86.5 756.5 c 128,-1,86
 95 760 95 760 105 760 c 2,87,-1
 129 760 l 1,88,-1
 132 528 l 2,89,90
 137 316 137 316 133 62 c 2,91,-1
 129 -171 l 1,92,-1
 102 -168 l 1,93,-1
 76 -165 l 1,94,-1
 73 285 l 2,95,96
 72 737 72 737 76 748 c 0,84,85
EndSplineSet
Validated: 33
EndChar

StartChar: uniE062
Encoding: 335 57442 79
Width: 512
GlyphClass: 1
Flags: W
LayerCount: 2
Fore
SplineSet
234 711 m 1,0,-1
 234 771 l 1,1,-1
 267 768 l 1,2,-1
 299 765 l 1,3,-1
 299 695 l 2,4,5
 299 647 299 647 306 630.5 c 128,-1,6
 313 614 313 614 328 625.5 c 128,-1,7
 343 637 343 637 369 679 c 0,8,9
 397 726 397 726 412.5 735 c 128,-1,10
 428 744 428 744 448 724 c 0,11,12
 466 706 466 706 461.5 688 c 128,-1,13
 457 670 457 670 424 633 c 0,14,15
 384 588 384 588 384 575 c 0,16,17
 384 570 384 570 394.5 560 c 128,-1,18
 405 550 405 550 420 541 c 0,19,20
 442 528 442 528 448 518.5 c 128,-1,21
 454 509 454 509 452 492 c 0,22,23
 448 460 448 460 424 461.5 c 128,-1,24
 400 463 400 463 361 499 c 0,25,26
 314 542 314 542 303 539 c 0,27,28
 289 535 289 535 290 453 c 0,29,30
 290 435 290 435 291 403 c 0,31,32
 295 278 295 278 307 223 c 128,-1,33
 319 168 319 168 376 27 c 0,34,35
 435 -121 435 -121 432 -143 c 256,36,37
 429 -165 429 -165 402 -168 c 0,38,39
 401 -168 401 -168 400 -168 c 0,40,41
 377 -171 377 -171 365.5 -150 c 128,-1,42
 354 -129 354 -129 309 1 c 0,43,44
 307 7 307 7 306 10 c 0,45,46
 258 145 258 145 251 145 c 0,47,48
 242 145 242 145 179 7 c 0,49,50
 124 -111 124 -111 108 -135.5 c 128,-1,51
 92 -160 92 -160 68 -160 c 0,52,53
 38 -160 38 -160 47 -120 c 0,54,55
 58 -74 58 -74 134 79 c 2,56,-1
 224 260 l 1,57,-1
 224 399 l 2,58,59
 224 539 224 539 215 544 c 0,60,61
 211 546 211 546 194 536 c 128,-1,62
 177 526 177 526 158 510 c 0,63,64
 86 450 86 450 65 480 c 0,65,66
 59 489 59 489 59 505 c 0,67,68
 59 525 59 525 73.5 539.5 c 128,-1,69
 88 554 88 554 147 592 c 2,70,-1
 234 650 l 1,71,-1
 234 711 l 1,0,-1
EndSplineSet
Validated: 33
EndChar

StartChar: uniE063
Encoding: 336 57443 80
Width: 582
GlyphClass: 1
Flags: W
LayerCount: 2
Fore
SplineSet
249 763 m 0,0,1
 257 770 257 770 272.5 769.5 c 128,-1,2
 288 769 288 769 301 761 c 0,3,4
 315 752 315 752 308 698 c 256,5,6
 301 644 301 644 308 626 c 0,7,8
 311 618 311 618 343 598.5 c 128,-1,9
 375 579 375 579 419 558 c 0,10,11
 486 527 486 527 504 514 c 128,-1,12
 522 501 522 501 522 484 c 0,13,14
 522 431 522 431 443 470 c 0,15,16
 413 484 413 484 369 512 c 0,17,18
 324 541 324 541 313 532 c 0,19,20
 301 521 301 521 306 426 c 0,21,22
 307 417 307 417 307 405 c 2,23,-1
 314 289 l 1,24,-1
 423 234 l 2,25,26
 532 180 532 180 532 164 c 0,27,28
 532 150 532 150 522 130 c 128,-1,29
 512 110 512 110 504 110 c 0,30,31
 498 110 498 110 413 165 c 0,32,33
 330 219 330 219 321 214 c 0,34,35
 314 210 314 210 327 179 c 128,-1,36
 340 148 340 148 405 10 c 0,37,38
 471 -127 471 -127 473 -148 c 0,39,40
 474 -163 474 -163 458 -164 c 0,41,42
 453 -165 453 -165 443 -165 c 2,43,-1
 408 -165 l 1,44,-1
 358 -40 l 2,45,46
 302 99 302 99 295 120 c 0,47,48
 287 142 287 142 282.5 145.5 c 128,-1,49
 278 149 278 149 269 140 c 0,50,51
 256 125 256 125 203 -10 c 0,52,53
 147 -149 147 -149 140 -157 c 0,54,55
 129 -170 129 -170 106 -170 c 0,56,57
 92 -170 92 -170 87 -165 c 128,-1,58
 82 -160 82 -160 82 -146 c 0,59,60
 82 -123 82 -123 118.5 -37.5 c 128,-1,61
 155 48 155 48 203 138 c 2,62,-1
 252 230 l 1,63,-1
 252 380 l 2,64,65
 252 528 252 528 242 535 c 0,66,67
 239 537 239 537 215 528.5 c 128,-1,68
 191 520 191 520 163 505 c 0,69,70
 106 477 106 477 79.5 472.5 c 128,-1,71
 53 468 53 468 45 485 c 0,72,73
 39 504 39 504 64.5 524 c 128,-1,74
 90 544 90 544 157 571 c 2,75,-1
 242 605 l 1,76,-1
 242 681 l 2,77,78
 242 758 242 758 249 763 c 0,0,1
EndSplineSet
Validated: 33
EndChar

StartChar: uniE064
Encoding: 337 57444 81
Width: 513
GlyphClass: 1
Flags: W
LayerCount: 2
Fore
SplineSet
125 767 m 0,0,1
 158 805 158 805 178 729 c 0,2,3
 181 717 181 717 184 701 c 0,4,5
 202 615 202 615 214 622 c 0,6,7
 224 628 224 628 224 695 c 0,8,9
 224 750 224 750 227.5 760 c 128,-1,10
 231 770 231 770 247 768 c 0,11,12
 262 766 262 766 265.5 755 c 128,-1,13
 269 744 269 744 269 696 c 0,14,15
 269 626 269 626 281 623 c 0,16,17
 286 621 286 621 289 624 c 128,-1,18
 292 627 292 627 297 639.5 c 128,-1,19
 302 652 302 652 307 672.5 c 128,-1,20
 312 693 312 693 321 730 c 0,21,22
 327 751 327 751 334 759 c 128,-1,23
 341 767 341 767 357 768 c 0,24,25
 375 770 375 770 379.5 766 c 128,-1,26
 384 762 384 762 384 743 c 0,27,28
 384 715 384 715 364 671 c 0,29,30
 341 620 341 620 347.5 596.5 c 128,-1,31
 354 573 354 573 404 530 c 0,32,33
 464 477 464 477 464 459 c 0,34,35
 464 440 464 440 460 440 c 0,36,37
 458 440 458 440 440 434 c 0,38,39
 424 428 424 428 349 501 c 0,40,41
 330 520 330 520 312 536 c 128,-1,42
 294 552 294 552 283.5 559.5 c 128,-1,43
 273 567 273 567 273 564 c 256,44,45
 273 561 273 561 273 536.5 c 128,-1,46
 273 512 273 512 273 469 c 128,-1,47
 273 426 273 426 274 381 c 2,48,-1
 276 208 l 1,49,-1
 308 151 l 2,50,51
 349 80 349 80 401.5 -33 c 128,-1,52
 454 -146 454 -146 454 -161 c 0,53,54
 454 -171 454 -171 448.5 -175.5 c 128,-1,55
 443 -180 443 -180 429 -180 c 0,56,57
 414 -180 414 -180 402.5 -166.5 c 128,-1,58
 391 -153 391 -153 368 -107 c 0,59,60
 337 -48 337 -48 293 55 c 0,61,62
 255 145 255 145 246 148 c 256,63,64
 237 151 237 151 218 103 c 0,65,66
 143 -105 143 -105 125.5 -140 c 128,-1,67
 108 -175 108 -175 81 -178 c 0,68,69
 66 -180 66 -180 60 -177 c 128,-1,70
 54 -174 54 -174 54 -163 c 0,71,72
 54 -149 54 -149 99 -37 c 128,-1,73
 144 75 144 75 187 170 c 0,74,75
 204 208 204 208 209 243.5 c 128,-1,76
 214 279 214 279 217 393 c 0,77,78
 222 560 222 560 211 567 c 0,79,80
 207 569 207 569 195 559.5 c 128,-1,81
 183 550 183 550 170 534 c 0,82,83
 115 465 115 465 94 446.5 c 128,-1,84
 73 428 73 428 60 439 c 0,85,86
 41 456 41 456 48.5 474.5 c 128,-1,87
 56 493 56 493 100 537 c 2,88,-1
 156 594 l 1,89,-1
 135 673 l 2,90,91
 123 719 123 719 121 739 c 128,-1,92
 119 759 119 759 125 767 c 0,0,1
EndSplineSet
Validated: 33
EndChar

